{
.appVersion = "1286";
DisplayStrings = (
"/ecedilla",
"/ohorn/ohornhookabove",
"/llinebelow",
"a/aogonek",
"รง/ccedillaacute",
"/ecedilla/ecedillabreve",
"/Oogonek/Oogonekmacron",
"ร/Ccedillaacute",
"/ecedilla/ecedillabreve",
"รง/ccedillaacute",
"/Tbar",
"/fi",
"a/ogonekcomb/aogonek",
"/fi  /fl  /f_j  /f_f  /f_f_i  /f_f_l  \012/T_h  /c_h  /c_t  /s_t"
);
classes = (
{
automatic = 1;

glyphs = (
{
glyphname = quotedbl;
lastChange = "2020-06-01 08:04:24 +0000";
layers = (
{
hints = (
{
place = "{47, 223}";
type = Stem;
},
{
horizontal = 1;
place = "{443, 219}";
type = Stem;
}
);
layerId = UUID0;
paths = (
{
closed = 1;
nodes = (
"117 443 LINE",
"136 662 LINE",
"47 662 LINE",
"66 443 LINE"
);
},
{
closed = 1;
nodes = (
"251 443 LINE",
"270 662 LINE",
"181 662 LINE",
"200 443 LINE"
);
}
);
width = 317;
}
);
leftKerningGroup = quotesingle;
rightKerningGroup = quotesingle;
unicode = 0022;
},
{
glyphname = numbersign;
lastChange = "2020-06-01 08:04:24 +0000";
layers = (
{
hints = (
{
place = "{45, 491}";
type = Stem;
},
{
horizontal = 1;
place = "{168, 65}";
type = Stem;
},
{
horizontal = 1;
place = "{377, 65}";
type = Stem;
}
);
layerId = UUID0;
paths = (
{
closed = 1;
nodes = (
"193 25 LINE",
"213 168 LINE",
"329 168 LINE",
"309 25 LINE",
"374 25 LINE",
"394 168 LINE",
"506 168 LINE",
"506 233 LINE",
"403 233 LINE",
"423 377 LINE",
"536 377 LINE",
"536 442 LINE",
"432 442 LINE",
"453 585 LINE",
"388 585 LINE",
"367 442 LINE",
"251 442 LINE",
"272 585 LINE",
"207 585 LINE",
"186 442 LINE",
"75 442 LINE",
"75 377 LINE",
"177 377 LINE",
"157 233 LINE",
"45 233 LINE",
"45 168 LINE",
"148 168 LINE",
"128 25 LINE"
);
},
{
closed = 1;
nodes = (
"242 377 LINE",
"358 377 LINE",
"338 233 LINE",
"222 233 LINE"
);
}
);
width = 581;
}
);
unicode = 0023;
},
{
glyphname = dollar;
lastChange = "2020-06-01 08:04:24 +0000";
layers = (
{
components = (
{
name = S;
}
);
hints = (
{
place = "{63, 73}";
type = Stem;
},
{
place = "{298, 37}";
type = Stem;
},
{
place = "{516, 75}";
type = Stem;
},
{
horizontal = 1;
place = "{-8, 71}";
type = Stem;
},
{
horizontal = 1;
place = "{600, 70}";
type = Stem;
},
{
horizontal = 1;
place = "{599, 70}";
type = Stem;
},
{
horizontal = 1;
place = "{-7, 70}";
type = Stem;
}
);
layerId = UUID0;
paths = (
{
closed = 1;
nodes = (
"279 -87 LINE",
"345 -87 LINE",
"345 746 LINE",
"279 746 LINE"
);
}
);
width = 615;
},
{
associatedMasterId = UUID0;
hints = (
{
place = "{63, 73}";
type = Stem;
},
{
place = "{298, 37}";
type = Stem;
},
{
place = "{516, 75}";
type = Stem;
},
{
horizontal = 1;
place = "{-8, 71}";
type = Stem;
},
{
horizontal = 1;
place = "{600, 70}";
type = Stem;
},
{
horizontal = 1;
place = "{599, 70}";
type = Stem;
},
{
horizontal = 1;
place = "{-7, 70}";
type = Stem;
}
);
layerId = "E724578D-56F5-4076-BB56-BC161D27BF6D";
name = "Apr 19 20, 18:25";
paths = (
{
closed = 1;
nodes = (
"335 -107 LINE",
"335 -8 LINE",
"494 -6 OFFCURVE",
"591 61 OFFCURVE",
"591 183 CURVE SMOOTH",
"591 308 OFFCURVE",
"457 342 OFFCURVE",
"335 371 CURVE",
"335 599 LINE",
"440 593 OFFCURVE",
"489 543 OFFCURVE",
"497 481 CURVE",
"574 481 LINE",
"568 576 OFFCURVE",
"495 662 OFFCURVE",
"335 669 CURVE",
"335 746 LINE",
"298 746 LINE",
"298 670 LINE",
"141 666 OFFCURVE",
"63 592 OFFCURVE",
"63 487 CURVE SMOOTH",
"63 370 OFFCURVE",
"182 335 OFFCURVE",
"298 307 CURVE",
"298 64 LINE",
"200 72 OFFCURVE",
"125 112 OFFCURVE",
"121 198 CURVE",
"43 198 LINE",
"52 85 OFFCURVE",
"124 1 OFFCURVE",
"298 -7 CURVE",
"298 -107 LINE"
);
},
{
closed = 1;
nodes = (
"335 298 LINE",
"431 274 OFFCURVE",
"516 250 OFFCURVE",
"516 180 CURVE SMOOTH",
"516 102 OFFCURVE",
"446 63 OFFCURVE",
"335 63 CURVE"
);
},
{
closed = 1;
nodes = (
"210 402 OFFCURVE",
"136 426 OFFCURVE",
"136 488 CURVE SMOOTH",
"136 531 OFFCURVE",
"160 596 OFFCURVE",
"298 600 CURVE",
"298 380 LINE"
);
}
);
width = 636;
}
);
unicode = 0024;
},
{
glyphname = percent;
lastChange = "2020-06-01 08:04:24 +0000";
layers = (
{
hints = (
{
place = "{42, 61}";
type = Stem;
},
{
place = "{280, 62}";
type = Stem;
},
{
place = "{503, 61}";
type = Stem;
},
{
place = "{741, 62}";
type = Stem;
},
{
horizontal = 1;
place = "{-8, 57}";
type = Stem;
},
{
horizontal = 1;
place = "{288, 57}";
type = Stem;
},
{
horizontal = 1;
place = "{609, 58}";
type = Stem;
},
{
horizontal = 1;
place = "{313, 58}";
type = Stem;
},
{
horizontal = 1;
place = "{670, -20}";
target = down;
type = TopGhost;
}
);
layerId = UUID0;
paths = (
{
closed = 1;
nodes = (
"224 -12 LINE",
"683 670 LINE",
"620 670 LINE",
"161 -12 LINE"
);
},
{
closed = 1;
nodes = (
"284 288 OFFCURVE",
"342 354 OFFCURVE",
"342 477 CURVE SMOOTH",
"342 574 OFFCURVE",
"300 665 OFFCURVE",
"192 667 CURVE SMOOTH",
"99 667 OFFCURVE",
"42 601 OFFCURVE",
"42 477 CURVE SMOOTH",
"42 354 OFFCURVE",
"99 288 OFFCURVE",
"192 288 CURVE SMOOTH"
);
},
{
closed = 1;
nodes = (
"136 345 OFFCURVE",
"103 389 OFFCURVE",
"103 477 CURVE SMOOTH",
"103 565 OFFCURVE",
"136 609 OFFCURVE",
"192 609 CURVE SMOOTH",
"246 609 OFFCURVE",
"280 565 OFFCURVE",
"280 477 CURVE SMOOTH",
"280 416 OFFCURVE",
"259 347 OFFCURVE",
"192 345 CURVE SMOOTH"
);
},
{
closed = 1;
nodes = (
"745 -8 OFFCURVE",
"803 58 OFFCURVE",
"803 181 CURVE SMOOTH",
"803 278 OFFCURVE",
"761 369 OFFCURVE",
"653 371 CURVE SMOOTH",
"560 371 OFFCURVE",
"503 305 OFFCURVE",
"503 181 CURVE SMOOTH",
"503 58 OFFCURVE",
"560 -8 OFFCURVE",
"653 -8 CURVE SMOOTH"
);
},
{
closed = 1;
nodes = (
"597 49 OFFCURVE",
"564 93 OFFCURVE",
"564 181 CURVE SMOOTH",
"564 269 OFFCURVE",
"597 313 OFFCURVE",
"653 313 CURVE SMOOTH",
"707 313 OFFCURVE",
"741 269 OFFCURVE",
"741 181 CURVE SMOOTH",
"741 120 OFFCURVE",
"720 51 OFFCURVE",
"653 49 CURVE SMOOTH"
);
}
);
width = 845;
}
);
unicode = 0025;
},
{
glyphname = ampersand;
lastChange = "2020-06-01 08:04:24 +0000";
layers = (
{
hints = (
{
place = "{37, 75}";
type = Stem;
},
{
place = "{425, 70}";
type = Stem;
},
{
place = "{59, 75}";
type = Stem;
},
{
horizontal = 1;
place = "{-8, 67}";
type = Stem;
},
{
horizontal = 1;
place = "{311, 67}";
type = Stem;
},
{
horizontal = 1;
place = "{602, 68}";
type = Stem;
}
);
layerId = UUID0;
paths = (
{
closed = 1;
nodes = (
"410 -8 OFFCURVE",
"495 71 OFFCURVE",
"495 184 CURVE SMOOTH",
"495 311 LINE",
"560 311 LINE",
"560 378 LINE",
"495 378 LINE",
"495 422 LINE",
"425 422 LINE",
"425 378 LINE",
"264 378 LINE SMOOTH",
"195 378 OFFCURVE",
"134 413 OFFCURVE",
"134 488 CURVE SMOOTH",
"134 551 OFFCURVE",
"178 602 OFFCURVE",
"277 602 CURVE SMOOTH",
"355 602 OFFCURVE",
"400 564 OFFCURVE",
"410 532 CURVE",
"489 532 LINE",
"475 600 OFFCURVE",
"415 670 OFFCURVE",
"279 670 CURVE SMOOTH",
"135 670 OFFCURVE",
"59 592 OFFCURVE",
"59 489 CURVE SMOOTH",
"59 423 OFFCURVE",
"114 364 OFFCURVE",
"159 350 CURVE",
"82 321 OFFCURVE",
"37 261 OFFCURVE",
"37 190 CURVE SMOOTH",
"37 72 OFFCURVE",
"144 -8 OFFCURVE",
"269 -8 CURVE SMOOTH"
);
},
{
closed = 1;
nodes = (
"175 59 OFFCURVE",
"112 120 OFFCURVE",
"112 188 CURVE SMOOTH",
"112 255 OFFCURVE",
"171 311 OFFCURVE",
"255 311 CURVE SMOOTH",
"425 311 LINE",
"425 178 LINE SMOOTH",
"425 116 OFFCURVE",
"374 59 OFFCURVE",
"269 59 CURVE SMOOTH"
);
}
);
width = 580;
}
);
unicode = 0026;
},
{
glyphname = quotesingle;
lastChange = "2020-06-01 08:04:24 +0000";
layers = (
{
hints = (
{
place = "{47, 89}";
type = Stem;
},
{
horizontal = 1;
place = "{662, -20}";
target = down;
type = TopGhost;
},
{
horizontal = 1;
place = "{443, 219}";
type = Stem;
}
);
layerId = UUID0;
paths = (
{
closed = 1;
nodes = (
"117 443 LINE",
"136 662 LINE",
"47 662 LINE",
"66 443 LINE"
);
}
);
width = 183;
}
);
leftKerningGroup = quotesingle;
rightKerningGroup = quotesingle;
unicode = 0027;
},
{
glyphname = parenleft;
lastChange = "2020-06-01 08:04:24 +0000";
layers = (
{
hints = (
{
place = "{35, 76}";
type = Stem;
},
{
horizontal = 1;
place = "{-138, 838}";
type = Stem;
}
);
layerId = UUID0;
paths = (
{
closed = 1;
nodes = (
"231 -138 LINE",
"155 -17 OFFCURVE",
"111 127 OFFCURVE",
"111 281 CURVE SMOOTH",
"111 434 OFFCURVE",
"155 578 OFFCURVE",
"231 700 CURVE",
"163 700 LINE",
"79 570 OFFCURVE",
"35 429 OFFCURVE",
"35 281 CURVE SMOOTH",
"35 131 OFFCURVE",
"79 -8 OFFCURVE",
"163 -138 CURVE"
);
}
);
width = 245;
}
);
unicode = 0028;
},
{
glyphname = parenright;
lastChange = "2020-06-01 08:04:24 +0000";
layers = (
{
hints = (
{
place = "{134, 76}";
type = Stem;
},
{
horizontal = 1;
place = "{-138, 838}";
type = Stem;
}
);
layerId = UUID0;
paths = (
{
closed = 1;
nodes = (
"82 -138 LINE",
"166 -8 OFFCURVE",
"210 131 OFFCURVE",
"210 281 CURVE SMOOTH",
"210 429 OFFCURVE",
"166 570 OFFCURVE",
"82 700 CURVE",
"14 700 LINE",
"90 578 OFFCURVE",
"134 434 OFFCURVE",
"134 281 CURVE SMOOTH",
"134 127 OFFCURVE",
"90 -17 OFFCURVE",
"14 -138 CURVE"
);
}
);
width = 245;
}
);
unicode = 0029;
},
{
glyphname = asterisk;
lastChange = "2020-06-01 08:04:24 +0000";
layers = (
{
hints = (
{
place = "{161, 51}";
type = Stem;
},
{
horizontal = 1;
place = "{662, -20}";
target = down;
type = TopGhost;
}
);
layerId = UUID0;
paths = (
{
closed = 1;
nodes = (
"187 492 LINE",
"241 397 LINE",
"292 434 LINE",
"218 516 LINE",
"325 538 LINE",
"306 598 LINE",
"206 553 LINE",
"218 662 LINE",
"155 662 LINE",
"167 553 LINE",
"67 598 LINE",
"48 538 LINE",
"155 515 LINE",
"81 434 LINE",
"132 397 LINE"
);
}
);
width = 373;
}
);
unicode = 002A;
},
{
glyphname = plus;
lastChange = "2020-06-01 08:04:24 +0000";
layers = (
{
hints = (
{
place = "{242, 65}";
type = Stem;
},
{
horizontal = 1;
place = "{0, 21}";
target = up;
type = BottomGhost;
},
{
horizontal = 1;
place = "{203, 65}";
type = Stem;
}
);
layerId = UUID0;
paths = (
{
closed = 1;
nodes = (
"307 0 LINE",
"307 203 LINE",
"500 203 LINE",
"500 268 LINE",
"307 268 LINE",
"307 471 LINE",
"242 471 LINE",
"242 268 LINE",
"50 268 LINE",
"50 203 LINE",
"242 203 LINE",
"242 0 LINE"
);
}
);
width = 550;
}
);
unicode = 002B;
},
{
glyphname = comma;
lastChange = "2020-06-01 08:04:24 +0000";
layers = (
{
hints = (
{
place = "{11, 156}";
type = Stem;
},
{
horizontal = 1;
place = "{-133, 213}";
type = Stem;
}
);
layerId = UUID0;
paths = (
{
closed = 1;
nodes = (
"79 -111 LINE",
"167 102 LINE",
"69 102 LINE",
"11 -111 LINE"
);
}
);
width = 220;
}
);
leftKerningGroup = period;
rightKerningGroup = period;
unicode = 002C;
},
{
glyphname = hyphen;
lastChange = "2020-06-01 08:04:24 +0000";
layers = (
{
hints = (
{
place = "{53, 250}";
type = Stem;
},
{
horizontal = 1;
place = "{259, 73}";
type = Stem;
}
);
layerId = UUID0;
paths = (
{
closed = 1;
nodes = (
"305 259 LINE",
"305 332 LINE",
"55 332 LINE",
"55 259 LINE"
);
}
);
width = 360;
}
);
leftKerningGroup = hyphen;
rightKerningGroup = hyphen;
unicode = 002D;
},
{
glyphname = period;
lastChange = "2020-06-01 08:04:24 +0000";
layers = (
{
hints = (
{
place = "{53, 97}";
type = Stem;
},
{
horizontal = 1;
place = "{0, 102}";
type = Stem;
}
);
layerId = UUID0;
paths = (
{
closed = 1;
nodes = (
"150 0 LINE",
"150 102 LINE",
"53 102 LINE",
"53 0 LINE"
);
}
);
width = 203;
}
);
leftKerningGroup = period;
rightKerningGroup = period;
unicode = 002E;
},
{
glyphname = slash;
lastChange = "2020-06-01 08:04:24 +0000";
layers = (
{
hints = (
{
place = "{36, 299}";
type = Stem;
},
{
horizontal = 1;
place = "{-32, 712}";
type = Stem;
}
);
layerId = UUID0;
paths = (
{
closed = 1;
nodes = (
"106 -32 LINE",
"335 680 LINE",
"265 680 LINE",
"36 -32 LINE"
);
}
);
width = 371;
}
);
unicode = 002F;
},
{
glyphname = zero;
lastChange = "2020-06-01 08:04:24 +0000";
layers = (
{
hints = (
{
place = "{43, 75}";
type = Stem;
},
{
place = "{432, 75}";
type = Stem;
},
{
horizontal = 1;
place = "{-8, 73}";
type = Stem;
},
{
horizontal = 1;
place = "{597, 73}";
type = Stem;
}
);
layerId = UUID0;
paths = (
{
closed = 1;
nodes = (
"431 -8 OFFCURVE",
"507 110 OFFCURVE",
"507 331 CURVE SMOOTH",
"507 504 OFFCURVE",
"457 667 OFFCURVE",
"275 670 CURVE SMOOTH",
"119 670 OFFCURVE",
"43 552 OFFCURVE",
"43 331 CURVE SMOOTH",
"43 110 OFFCURVE",
"119 -8 OFFCURVE",
"275 -8 CURVE SMOOTH"
);
},
{
closed = 1;
nodes = (
"165 65 OFFCURVE",
"118 154 OFFCURVE",
"118 331 CURVE SMOOTH",
"118 508 OFFCURVE",
"165 597 OFFCURVE",
"275 597 CURVE SMOOTH",
"385 597 OFFCURVE",
"432 508 OFFCURVE",
"432 331 CURVE SMOOTH",
"432 208 OFFCURVE",
"411 68 OFFCURVE",
"275 65 CURVE SMOOTH"
);
}
);
width = 550;
}
);
unicode = 0030;
},
{
glyphname = one;
lastChange = "2020-06-01 08:04:24 +0000";
layers = (
{
hints = (
{
place = "{275, 75}";
type = Stem;
},
{
horizontal = 1;
place = "{0, 21}";
target = up;
type = BottomGhost;
},
{
horizontal = 1;
place = "{590, 72}";
type = Stem;
}
);
layerId = UUID0;
paths = (
{
closed = 1;
nodes = (
"350 0 LINE",
"350 662 LINE",
"135 662 LINE",
"135 590 LINE",
"275 590 LINE",
"275 0 LINE"
);
}
);
width = 550;
}
);
unicode = 0031;
},
{
glyphname = two;
lastChange = "2020-06-01 08:04:24 +0000";
layers = (
{
hints = (
{
place = "{424, 75}";
type = Stem;
},
{
horizontal = 1;
place = "{0, 72}";
type = Stem;
},
{
horizontal = 1;
place = "{597, 73}";
type = Stem;
}
);
layerId = UUID0;
paths = (
{
closed = 1;
nodes = (
"497 0 LINE",
"497 72 LINE",
"141 72 LINE",
"153 189 OFFCURVE",
"499 290 OFFCURVE",
"499 475 CURVE SMOOTH",
"499 585 OFFCURVE",
"416 670 OFFCURVE",
"273 670 CURVE SMOOTH",
"151 670 OFFCURVE",
"54 596 OFFCURVE",
"43 482 CURVE",
"118 482 LINE",
"128 556 OFFCURVE",
"187 597 OFFCURVE",
"275 597 CURVE SMOOTH",
"371 597 OFFCURVE",
"424 550 OFFCURVE",
"424 473 CURVE SMOOTH",
"424 321 OFFCURVE",
"52 237 OFFCURVE",
"52 41 CURVE SMOOTH",
"52 0 LINE"
);
}
);
width = 550;
}
);
unicode = 0032;
},
{
glyphname = three;
lastChange = "2020-06-01 08:04:24 +0000";
layers = (
{
hints = (
{
place = "{427, 75}";
type = Stem;
},
{
place = "{405, 75}";
type = Stem;
},
{
horizontal = 1;
place = "{-8, 73}";
type = Stem;
},
{
horizontal = 1;
place = "{314, 69}";
type = Stem;
},
{
horizontal = 1;
place = "{597, 73}";
type = Stem;
}
);
layerId = UUID0;
paths = (
{
closed = 1;
nodes = (
"402 -8 OFFCURVE",
"502 72 OFFCURVE",
"502 190 CURVE SMOOTH",
"502 261 OFFCURVE",
"457 324 OFFCURVE",
"380 353 CURVE",
"425 367 OFFCURVE",
"480 428 OFFCURVE",
"480 494 CURVE SMOOTH",
"480 597 OFFCURVE",
"401 670 OFFCURVE",
"271 670 CURVE SMOOTH",
"142 670 OFFCURVE",
"68 584 OFFCURVE",
"59 503 CURVE",
"132 503 LINE",
"141 554 OFFCURVE",
"192 597 OFFCURVE",
"273 597 CURVE SMOOTH",
"360 597 OFFCURVE",
"405 554 OFFCURVE",
"405 491 CURVE SMOOTH",
"405 427 OFFCURVE",
"344 383 OFFCURVE",
"275 383 CURVE SMOOTH",
"208 383 LINE",
"208 314 LINE",
"284 314 LINE SMOOTH",
"368 314 OFFCURVE",
"427 255 OFFCURVE",
"427 188 CURVE SMOOTH",
"427 120 OFFCURVE",
"371 65 OFFCURVE",
"277 65 CURVE SMOOTH",
"197 65 OFFCURVE",
"127 113 OFFCURVE",
"117 175 CURVE",
"41 175 LINE",
"51 72 OFFCURVE",
"153 -8 OFFCURVE",
"277 -8 CURVE SMOOTH"
);
}
);
width = 550;
}
);
unicode = 0033;
},
{
glyphname = four;
lastChange = "2020-06-01 08:04:24 +0000";
layers = (
{
hints = (
{
place = "{347, 75}";
type = Stem;
},
{
horizontal = 1;
place = "{0, 21}";
target = up;
type = BottomGhost;
},
{
horizontal = 1;
place = "{169, 67}";
type = Stem;
},
{
horizontal = 1;
place = "{598, 64}";
type = Stem;
}
);
layerId = UUID0;
paths = (
{
closed = 1;
nodes = (
"422 0 LINE",
"422 169 LINE",
"511 169 LINE",
"511 236 LINE",
"422 236 LINE",
"422 662 LINE",
"309 662 LINE",
"31 242 LINE",
"31 169 LINE",
"347 169 LINE",
"347 0 LINE"
);
},
{
closed = 1;
nodes = (
"347 598 LINE",
"347 236 LINE",
"101 236 LINE"
);
}
);
width = 550;
}
);
unicode = 0034;
},
{
glyphname = five;
lastChange = "2020-06-01 08:04:24 +0000";
layers = (
{
hints = (
{
place = "{427, 75}";
type = Stem;
},
{
horizontal = 1;
place = "{-8, 73}";
type = Stem;
},
{
horizontal = 1;
place = "{359, 70}";
type = Stem;
},
{
horizontal = 1;
place = "{590, 72}";
type = Stem;
}
);
layerId = UUID0;
paths = (
{
closed = 1;
nodes = (
"405 -8 OFFCURVE",
"502 90 OFFCURVE",
"502 212 CURVE SMOOTH",
"502 339 OFFCURVE",
"413 429 OFFCURVE",
"279 429 CURVE SMOOTH",
"239 429 OFFCURVE",
"192 417 OFFCURVE",
"162 398 CURVE",
"192 590 LINE",
"469 590 LINE",
"469 662 LINE",
"124 662 LINE",
"79 348 LINE",
"148 306 LINE",
"171 332 OFFCURVE",
"220 359 OFFCURVE",
"279 359 CURVE SMOOTH",
"366 359 OFFCURVE",
"427 300 OFFCURVE",
"427 212 CURVE SMOOTH",
"427 130 OFFCURVE",
"367 65 OFFCURVE",
"277 65 CURVE SMOOTH",
"179 65 OFFCURVE",
"134 117 OFFCURVE",
"119 166 CURVE",
"42 166 LINE",
"56 98 OFFCURVE",
"110 -8 OFFCURVE",
"280 -8 CURVE SMOOTH"
);
}
);
width = 550;
}
);
unicode = 0035;
},
{
glyphname = six;
lastChange = "2020-06-01 08:04:24 +0000";
layers = (
{
hints = (
{
place = "{43, 75}";
type = Stem;
},
{
place = "{441, 75}";
type = Stem;
},
{
horizontal = 1;
place = "{-8, 73}";
type = Stem;
},
{
horizontal = 1;
place = "{351, 71}";
type = Stem;
},
{
horizontal = 1;
place = "{597, 73}";
type = Stem;
}
);
layerId = UUID0;
paths = (
{
closed = 1;
nodes = (
"413 -8 OFFCURVE",
"516 83 OFFCURVE",
"516 207 CURVE SMOOTH",
"516 333 OFFCURVE",
"416 422 OFFCURVE",
"291 422 CURVE SMOOTH",
"217 422 OFFCURVE",
"150 383 OFFCURVE",
"118 328 CURVE",
"118 478 OFFCURVE",
"171 597 OFFCURVE",
"294 597 CURVE SMOOTH",
"369 597 OFFCURVE",
"399 551 OFFCURVE",
"413 508 CURVE",
"497 508 LINE",
"480 587 OFFCURVE",
"421 670 OFFCURVE",
"294 670 CURVE SMOOTH",
"127 670 OFFCURVE",
"43 540 OFFCURVE",
"43 331 CURVE SMOOTH",
"43 114 OFFCURVE",
"127 -8 OFFCURVE",
"288 -8 CURVE SMOOTH"
);
},
{
closed = 1;
nodes = (
"202 65 OFFCURVE",
"135 124 OFFCURVE",
"135 212 CURVE SMOOTH",
"135 294 OFFCURVE",
"204 351 OFFCURVE",
"288 351 CURVE SMOOTH",
"372 351 OFFCURVE",
"441 289 OFFCURVE",
"441 207 CURVE SMOOTH",
"441 124 OFFCURVE",
"372 65 OFFCURVE",
"288 65 CURVE SMOOTH"
);
}
);
width = 550;
}
);
unicode = 0036;
},
{
glyphname = seven;
lastChange = "2020-06-01 08:04:24 +0000";
layers = (
{
hints = (
{
place = "{47, 459}";
type = Stem;
},
{
horizontal = 1;
place = "{0, 21}";
target = up;
type = BottomGhost;
},
{
horizontal = 1;
place = "{590, 72}";
type = Stem;
}
);
layerId = UUID0;
paths = (
{
closed = 1;
nodes = (
"230 0 LINE",
"506 577 LINE",
"506 662 LINE",
"47 662 LINE",
"47 590 LINE",
"429 590 LINE",
"143 0 LINE"
);
}
);
width = 550;
}
);
unicode = 0037;
},
{
glyphname = eight;
lastChange = "2020-06-01 08:04:24 +0000";
layers = (
{
hints = (
{
place = "{38, 75}";
type = Stem;
},
{
place = "{437, 75}";
type = Stem;
},
{
place = "{64, 75}";
type = Stem;
},
{
place = "{411, 75}";
type = Stem;
},
{
horizontal = 1;
place = "{-8, 72}";
type = Stem;
},
{
horizontal = 1;
place = "{327, 69}";
type = Stem;
},
{
horizontal = 1;
place = "{598, 72}";
type = Stem;
}
);
layerId = UUID0;
paths = (
{
closed = 1;
nodes = (
"426 -8 OFFCURVE",
"512 73 OFFCURVE",
"512 190 CURVE SMOOTH",
"512 266 OFFCURVE",
"463 334 OFFCURVE",
"385 364 CURVE",
"429 380 OFFCURVE",
"486 424 OFFCURVE",
"486 503 CURVE SMOOTH",
"486 602 OFFCURVE",
"411 670 OFFCURVE",
"275 670 CURVE SMOOTH",
"139 670 OFFCURVE",
"64 602 OFFCURVE",
"64 503 CURVE SMOOTH",
"64 424 OFFCURVE",
"121 380 OFFCURVE",
"165 364 CURVE",
"87 334 OFFCURVE",
"38 266 OFFCURVE",
"38 190 CURVE SMOOTH",
"38 73 OFFCURVE",
"124 -8 OFFCURVE",
"275 -8 CURVE SMOOTH"
);
},
{
closed = 1;
nodes = (
"213 396 OFFCURVE",
"139 426 OFFCURVE",
"139 499 CURVE SMOOTH",
"139 562 OFFCURVE",
"195 598 OFFCURVE",
"275 598 CURVE SMOOTH",
"355 598 OFFCURVE",
"411 562 OFFCURVE",
"411 499 CURVE SMOOTH",
"411 426 OFFCURVE",
"337 396 OFFCURVE",
"275 396 CURVE SMOOTH"
);
},
{
closed = 1;
nodes = (
"176 64 OFFCURVE",
"113 113 OFFCURVE",
"113 191 CURVE SMOOTH",
"113 277 OFFCURVE",
"186 327 OFFCURVE",
"275 327 CURVE SMOOTH",
"364 327 OFFCURVE",
"437 277 OFFCURVE",
"437 191 CURVE SMOOTH",
"437 113 OFFCURVE",
"374 64 OFFCURVE",
"275 64 CURVE SMOOTH"
);
}
);
width = 550;
}
);
unicode = 0038;
},
{
glyphname = nine;
lastChange = "2020-06-01 08:04:24 +0000";
layers = (
{
hints = (
{
place = "{34, 75}";
type = Stem;
},
{
place = "{432, 75}";
type = Stem;
},
{
horizontal = 1;
place = "{-8, 73}";
type = Stem;
},
{
horizontal = 1;
place = "{240, 71}";
type = Stem;
},
{
horizontal = 1;
place = "{597, 73}";
type = Stem;
}
);
layerId = UUID0;
paths = (
{
closed = 1;
nodes = (
"423 -8 OFFCURVE",
"507 122 OFFCURVE",
"507 331 CURVE SMOOTH",
"507 548 OFFCURVE",
"423 670 OFFCURVE",
"262 670 CURVE SMOOTH",
"137 670 OFFCURVE",
"34 579 OFFCURVE",
"34 455 CURVE SMOOTH",
"34 329 OFFCURVE",
"134 240 OFFCURVE",
"259 240 CURVE SMOOTH",
"333 240 OFFCURVE",
"400 279 OFFCURVE",
"432 334 CURVE",
"432 184 OFFCURVE",
"379 65 OFFCURVE",
"256 65 CURVE SMOOTH",
"181 65 OFFCURVE",
"151 111 OFFCURVE",
"137 154 CURVE",
"53 154 LINE",
"70 75 OFFCURVE",
"129 -8 OFFCURVE",
"256 -8 CURVE SMOOTH"
);
},
{
closed = 1;
nodes = (
"178 311 OFFCURVE",
"109 373 OFFCURVE",
"109 455 CURVE SMOOTH",
"109 538 OFFCURVE",
"178 597 OFFCURVE",
"262 597 CURVE SMOOTH",
"348 597 OFFCURVE",
"415 538 OFFCURVE",
"415 450 CURVE SMOOTH",
"415 368 OFFCURVE",
"346 311 OFFCURVE",
"262 311 CURVE SMOOTH"
);
}
);
width = 550;
}
);
unicode = 0039;
},
{
glyphname = colon;
lastChange = "2020-06-01 08:04:24 +0000";
layers = (
{
hints = (
{
place = "{53, 97}";
type = Stem;
},
{
horizontal = 1;
place = "{0, 102}";
type = Stem;
},
{
horizontal = 1;
place = "{398, 102}";
type = Stem;
}
);
layerId = UUID0;
paths = (
{
closed = 1;
nodes = (
"150 398 LINE",
"150 500 LINE",
"53 500 LINE",
"53 398 LINE"
);
},
{
closed = 1;
nodes = (
"150 0 LINE",
"150 102 LINE",
"53 102 LINE",
"53 0 LINE"
);
}
);
width = 203;
}
);
leftKerningGroup = colon;
rightKerningGroup = colon;
unicode = 003A;
},
{
glyphname = semicolon;
lastChange = "2020-06-01 08:04:24 +0000";
layers = (
{
hints = (
{
place = "{80, 97}";
type = Stem;
},
{
horizontal = 1;
place = "{-133, 213}";
type = Stem;
},
{
horizontal = 1;
place = "{398, 102}";
type = Stem;
}
);
layerId = UUID0;
paths = (
{
closed = 1;
nodes = (
"177 398 LINE",
"177 500 LINE",
"80 500 LINE",
"80 398 LINE"
);
},
{
closed = 1;
nodes = (
"93 -133 LINE",
"181 80 LINE",
"83 80 LINE",
"25 -133 LINE"
);
}
);
width = 245;
}
);
leftKerningGroup = colon;
rightKerningGroup = colon;
unicode = 003B;
},
{
glyphname = less;
lastChange = "2020-06-01 08:04:24 +0000";
layers = (
{
hints = (
{
place = "{26, 481}";
type = Stem;
},
{
horizontal = 1;
place = "{8, 488}";
type = Stem;
}
);
layerId = UUID0;
paths = (
{
closed = 1;
nodes = (
"507 86 LINE",
"102 252 LINE",
"507 418 LINE",
"507 496 LINE",
"26 283 LINE",
"26 220 LINE",
"507 8 LINE"
);
}
);
width = 550;
}
);
unicode = 003C;
},
{
glyphname = equal;
lastChange = "2020-06-01 08:04:24 +0000";
layers = (
{
hints = (
{
place = "{7, 536}";
type = Stem;
},
{
horizontal = 1;
place = "{103, 67}";
type = Stem;
},
{
horizontal = 1;
place = "{301, 67}";
type = Stem;
}
);
layerId = UUID0;
paths = (
{
closed = 1;
nodes = (
"493 301 LINE",
"493 368 LINE",
"57 368 LINE",
"57 301 LINE"
);
},
{
closed = 1;
nodes = (
"493 103 LINE",
"493 170 LINE",
"57 170 LINE",
"57 103 LINE"
);
}
);
width = 550;
}
);
unicode = 003D;
},
{
glyphname = greater;
lastChange = "2020-06-01 08:04:24 +0000";
layers = (
{
hints = (
{
place = "{42, 481}";
type = Stem;
},
{
horizontal = 1;
place = "{8, 488}";
type = Stem;
}
);
layerId = UUID0;
paths = (
{
closed = 1;
nodes = (
"523 220 LINE",
"523 283 LINE",
"42 496 LINE",
"42 418 LINE",
"447 252 LINE",
"42 86 LINE",
"42 8 LINE"
);
}
);
width = 550;
}
);
unicode = 003E;
},
{
glyphname = question;
lastChange = "2020-06-01 08:04:24 +0000";
layers = (
{
hints = (
{
place = "{227, 73}";
type = Stem;
},
{
place = "{394, 71}";
type = Stem;
},
{
place = "{215, 97}";
type = Stem;
},
{
horizontal = 1;
place = "{0, 102}";
type = Stem;
},
{
horizontal = 1;
place = "{601, 69}";
type = Stem;
}
);
layerId = UUID0;
paths = (
{
closed = 1;
nodes = (
"300 183 LINE",
"300 324 OFFCURVE",
"465 333 OFFCURVE",
"465 489 CURVE SMOOTH",
"465 579 OFFCURVE",
"404 670 OFFCURVE",
"260 670 CURVE SMOOTH",
"128 670 OFFCURVE",
"45 576 OFFCURVE",
"39 466 CURVE",
"110 466 LINE",
"116 536 OFFCURVE",
"168 601 OFFCURVE",
"266 601 CURVE SMOOTH",
"364 601 OFFCURVE",
"394 539 OFFCURVE",
"394 489 CURVE SMOOTH",
"394 366 OFFCURVE",
"227 347 OFFCURVE",
"227 183 CURVE"
);
},
{
closed = 1;
nodes = (
"312 0 LINE",
"312 102 LINE",
"215 102 LINE",
"215 0 LINE"
);
}
);
width = 510;
}
);
leftKerningGroup = question;
rightKerningGroup = question;
unicode = 003F;
},
{
glyphname = at;
lastChange = "2020-06-01 08:04:24 +0000";
layers = (
{
hints = (
{
place = "{50, 37}";
type = Stem;
},
{
place = "{216, 60}";
type = Stem;
},
{
place = "{531, 65}";
type = Stem;
},
{
place = "{773, 37}";
type = Stem;
},
{
horizontal = 1;
place = "{-50, 37}";
type = Stem;
},
{
horizontal = 1;
place = "{123, 45}";
type = Stem;
},
{
horizontal = 1;
place = "{479, 53}";
type = Stem;
},
{
horizontal = 1;
place = "{669, 37}";
type = Stem;
},
{
horizontal = 1;
place = "{123, 54}";
type = Stem;
}
);
layerId = UUID0;
paths = (
{
closed = 1;
nodes = (
"477 -100 OFFCURVE",
"564 -75 OFFCURVE",
"634 -19 CURVE",
"612 11 LINE",
"551 -39 OFFCURVE",
"484 -63 OFFCURVE",
"392 -63 CURVE SMOOTH",
"222 -63 OFFCURVE",
"87 67 OFFCURVE",
"87 239 CURVE SMOOTH",
"87 444 OFFCURVE",
"267 619 OFFCURVE",
"468 619 CURVE SMOOTH",
"638 619 OFFCURVE",
"773 487 OFFCURVE",
"773 314 CURVE SMOOTH",
"773 178 OFFCURVE",
"723 118 OFFCURVE",
"649 118 CURVE SMOOTH",
"602 118 OFFCURVE",
"596 152 OFFCURVE",
"596 171 CURVE SMOOTH",
"596 179 OFFCURVE",
"597 184 OFFCURVE",
"597 184 CURVE",
"644 476 LINE",
"584 476 LINE",
"574 412 LINE",
"551 455 OFFCURVE",
"509 482 OFFCURVE",
"443 482 CURVE SMOOTH",
"316 482 OFFCURVE",
"216 384 OFFCURVE",
"216 239 CURVE SMOOTH",
"216 145 OFFCURVE",
"273 73 OFFCURVE",
"386 73 CURVE SMOOTH",
"451 73 OFFCURVE",
"496 100 OFFCURVE",
"531 143 CURVE",
"531 143 OFFCURVE",
"534 73 OFFCURVE",
"624 73 CURVE SMOOTH",
"718 73 OFFCURVE",
"810 148 OFFCURVE",
"810 318 CURVE SMOOTH",
"810 509 OFFCURVE",
"650 656 OFFCURVE",
"468 656 CURVE SMOOTH",
"243 656 OFFCURVE",
"50 458 OFFCURVE",
"50 239 CURVE SMOOTH",
"50 55 OFFCURVE",
"192 -100 OFFCURVE",
"392 -100 CURVE SMOOTH"
);
},
{
closed = 1;
nodes = (
"317 127 OFFCURVE",
"276 177 OFFCURVE",
"276 245 CURVE SMOOTH",
"276 356 OFFCURVE",
"345 429 OFFCURVE",
"443 429 CURVE SMOOTH",
"519 429 OFFCURVE",
"558 375 OFFCURVE",
"558 308 CURVE SMOOTH",
"558 214 OFFCURVE",
"500 127 OFFCURVE",
"402 127 CURVE SMOOTH"
);
}
);
width = 852;
}
);
unicode = 0040;
},
{
glyphname = A;
lastChange = "2020-06-14 08:59:21 +0000";
layers = (
{
anchors = (
{
name = bottom;
position = "{331, 0}";
},
{
name = ogonek;
position = "{669, 0}";
},
{
name = top;
position = "{331, 662}";
}
);
hints = (
{
place = "{3, 656}";
type = Stem;
},
{
horizontal = 1;
place = "{0, 21}";
target = up;
type = BottomGhost;
},
{
horizontal = 1;
place = "{192, 69}";
type = Stem;
},
{
horizontal = 1;
place = "{662, -20}";
target = down;
type = TopGhost;
},
{
horizontal = 1;
place = "{584, 78}";
type = Stem;
}
);
layerId = UUID0;
paths = (
{
closed = 1;
nodes = (
"86 0 LINE",
"167 192 LINE",
"495 192 LINE",
"576 0 LINE",
"659 0 LINE",
"378 662 LINE",
"284 662 LINE",
"3 0 LINE"
);
},
{
closed = 1;
nodes = (
"331 584 LINE",
"466 261 LINE",
"196 261 LINE"
);
}
);
width = 662;
}
);
leftKerningGroup = A;
rightKerningGroup = A;
unicode = 0041;
},
{
glyphname = B;
lastChange = "2020-06-01 08:04:24 +0000";
layers = (
{
anchors = (
{
name = bottom;
position = "{331, 0}";
},
{
name = top;
position = "{331, 662}";
}
);
hints = (
{
place = "{81, 75}";
type = Stem;
},
{
place = "{546, 75}";
type = Stem;
},
{
place = "{512, 75}";
type = Stem;
},
{
horizontal = 1;
place = "{0, 71}";
type = Stem;
},
{
horizontal = 1;
place = "{298, 68}";
type = Stem;
},
{
horizontal = 1;
place = "{591, 71}";
type = Stem;
}
);
layerId = UUID0;
paths = (
{
closed = 1;
nodes = (
"395 0 LINE SMOOTH",
"546 0 OFFCURVE",
"621 75 OFFCURVE",
"621 174 CURVE SMOOTH",
"621 273 OFFCURVE",
"554 320 OFFCURVE",
"498 338 CURVE",
"545 359 OFFCURVE",
"587 402 OFFCURVE",
"587 487 CURVE SMOOTH",
"587 567 OFFCURVE",
"534 662 OFFCURVE",
"378 662 CURVE SMOOTH",
"81 662 LINE",
"81 0 LINE"
);
},
{
closed = 1;
nodes = (
"156 591 LINE",
"386 591 LINE SMOOTH",
"477 591 OFFCURVE",
"512 536 OFFCURVE",
"512 481 CURVE SMOOTH",
"512 400 OFFCURVE",
"447 366 OFFCURVE",
"378 366 CURVE SMOOTH",
"156 366 LINE"
);
},
{
closed = 1;
nodes = (
"156 298 LINE",
"395 298 LINE SMOOTH",
"500 298 OFFCURVE",
"546 242 OFFCURVE",
"546 180 CURVE SMOOTH",
"546 111 OFFCURVE",
"494 71 OFFCURVE",
"403 71 CURVE SMOOTH",
"156 71 LINE"
);
}
);
width = 662;
}
);
leftKerningGroup = I;
rightKerningGroup = B;
unicode = 0042;
},
{
glyphname = C;
lastChange = "2020-06-09 13:37:27 +0000";
layers = (
{
anchors = (
{
name = bottom;
position = "{345, 0}";
},
{
name = top;
position = "{345, 662}";
}
);
hints = (
{
place = "{39, 75}";
type = Stem;
},
{
horizontal = 1;
place = "{-8, 73}";
type = Stem;
},
{
horizontal = 1;
place = "{597, 73}";
type = Stem;
}
);
layerId = UUID0;
paths = (
{
closed = 1;
nodes = (
"509 -8 OFFCURVE",
"617 77 OFFCURVE",
"659 198 CURVE",
"580 198 LINE",
"546 117 OFFCURVE",
"474 65 OFFCURVE",
"365 65 CURVE SMOOTH",
"204 65 OFFCURVE",
"114 182 OFFCURVE",
"114 331 CURVE SMOOTH",
"114 480 OFFCURVE",
"204 597 OFFCURVE",
"365 597 CURVE SMOOTH",
"474 597 OFFCURVE",
"546 545 OFFCURVE",
"580 464 CURVE",
"659 464 LINE",
"617 585 OFFCURVE",
"509 670 OFFCURVE",
"359 670 CURVE SMOOTH",
"160 670 OFFCURVE",
"39 519 OFFCURVE",
"39 331 CURVE SMOOTH",
"39 143 OFFCURVE",
"160 -8 OFFCURVE",
"359 -8 CURVE SMOOTH"
);
}
);
width = 690;
}
);
leftKerningGroup = O;
leftMetricsKey = O;
rightKerningGroup = C;
unicode = 0043;
},
{
glyphname = D;
lastChange = "2020-06-09 13:38:19 +0000";
layers = (
{
anchors = (
{
name = bottom;
position = "{340, 0}";
},
{
name = center;
position = "{352, 331}";
},
{
name = top;
position = "{352, 662}";
}
);
hints = (
{
place = "{81, 75}";
type = Stem;
},
{
place = "{589, 75}";
type = Stem;
},
{
horizontal = 1;
place = "{0, 71}";
type = Stem;
},
{
horizontal = 1;
place = "{591, 71}";
type = Stem;
}
);
layerId = UUID0;
paths = (
{
closed = 1;
nodes = (
"360 0 LINE SMOOTH",
"518 0 OFFCURVE",
"664 124 OFFCURVE",
"664 331 CURVE SMOOTH",
"664 538 OFFCURVE",
"518 662 OFFCURVE",
"360 662 CURVE SMOOTH",
"81 662 LINE",
"81 0 LINE"
);
},
{
closed = 1;
nodes = (
"156 591 LINE",
"357 591 LINE SMOOTH",
"498 591 OFFCURVE",
"589 473 OFFCURVE",
"589 331 CURVE SMOOTH",
"589 191 OFFCURVE",
"499 71 OFFCURVE",
"357 71 CURVE SMOOTH",
"156 71 LINE"
);
}
);
width = 703;
}
);
leftKerningGroup = I;
rightKerningGroup = O;
rightMetricsKey = O;
unicode = 0044;
},
{
glyphname = E;
lastChange = "2020-06-14 09:09:25 +0000";
layers = (
{
anchors = (
{
name = bottom;
position = "{344, 0}";
},
{
name = ogonek;
position = "{578, 2}";
},
{
name = top;
position = "{334, 662}";
},
{
name = topleft;
position = "{20, 662}";
}
);
hints = (
{
place = "{81, 75}";
type = Stem;
},
{
horizontal = 1;
place = "{0, 72}";
type = Stem;
},
{
horizontal = 1;
place = "{295, 73}";
type = Stem;
},
{
horizontal = 1;
place = "{590, 72}";
type = Stem;
}
);
layerId = UUID0;
paths = (
{
closed = 1;
nodes = (
"568 0 LINE",
"568 72 LINE",
"156 72 LINE",
"156 295 LINE",
"524 295 LINE",
"524 368 LINE",
"156 368 LINE",
"156 590 LINE",
"568 590 LINE",
"568 662 LINE",
"81 662 LINE",
"81 0 LINE"
);
}
);
width = 608;
}
);
leftKerningGroup = I;
rightKerningGroup = E;
unicode = 0045;
},
{
glyphname = F;
lastChange = "2020-06-01 08:04:25 +0000";
layers = (
{
anchors = (
{
name = bottom;
position = "{292, 0}";
},
{
name = top;
position = "{292, 662}";
}
);
hints = (
{
place = "{81, 75}";
type = Stem;
},
{
horizontal = 1;
place = "{0, 21}";
target = up;
type = BottomGhost;
},
{
horizontal = 1;
place = "{287, 73}";
type = Stem;
},
{
horizontal = 1;
place = "{590, 72}";
type = Stem;
}
);
layerId = UUID0;
paths = (
{
closed = 1;
nodes = (
"156 0 LINE",
"156 287 LINE",
"515 287 LINE",
"515 360 LINE",
"156 360 LINE",
"156 590 LINE",
"559 590 LINE",
"559 662 LINE",
"81 662 LINE",
"81 0 LINE"
);
}
);
width = 583;
}
);
leftKerningGroup = I;
rightKerningGroup = F;
unicode = 0046;
},
{
glyphname = G;
lastChange = "2020-06-14 09:36:06 +0000";
layers = (
{
anchors = (
{
name = bottom;
position = "{362, 0}";
},
{
name = top;
position = "{362, 662}";
}
);
hints = (
{
place = "{39, 75}";
type = Stem;
},
{
place = "{603, 69}";
type = Stem;
},
{
horizontal = 1;
place = "{-8, 73}";
type = Stem;
},
{
horizontal = 1;
place = "{284, 68}";
type = Stem;
},
{
horizontal = 1;
place = "{597, 73}";
type = Stem;
},
{
horizontal = 1;
place = "{0, 21}";
target = up;
type = BottomGhost;
}
);
layerId = UUID0;
paths = (
{
closed = 1;
nodes = (
"483 -8 OFFCURVE",
"561 53 OFFCURVE",
"603 117 CURVE",
"603 0 LINE",
"672 0 LINE",
"672 352 LINE",
"361 352 LINE",
"361 284 LINE",
"603 284 LINE",
"603 146 OFFCURVE",
"489 65 OFFCURVE",
"369 65 CURVE SMOOTH",
"208 65 OFFCURVE",
"114 182 OFFCURVE",
"114 331 CURVE SMOOTH",
"114 480 OFFCURVE",
"210 597 OFFCURVE",
"371 597 CURVE SMOOTH",
"472 597 OFFCURVE",
"544 553 OFFCURVE",
"584 482 CURVE",
"666 482 LINE",
"617 593 OFFCURVE",
"507 670 OFFCURVE",
"365 670 CURVE SMOOTH",
"166 670 OFFCURVE",
"39 519 OFFCURVE",
"39 331 CURVE SMOOTH",
"39 143 OFFCURVE",
"161 -8 OFFCURVE",
"363 -8 CURVE SMOOTH"
);
}
);
width = 723;
}
);
leftKerningGroup = O;
leftMetricsKey = O;
rightKerningGroup = G;
unicode = 0047;
},
{
glyphname = H;
lastChange = "2020-06-01 08:04:25 +0000";
layers = (
{
anchors = (
{
name = bottom;
position = "{349, 0}";
},
{
name = center;
position = "{349, 504}";
},
{
name = top;
position = "{349, 662}";
},
{
name = topleft;
position = "{20, 662}";
}
);
hints = (
{
place = "{81, 75}";
type = Stem;
},
{
place = "{541, 75}";
type = Stem;
},
{
horizontal = 1;
place = "{0, 21}";
target = up;
type = BottomGhost;
},
{
horizontal = 1;
place = "{295, 73}";
type = Stem;
},
{
horizontal = 1;
place = "{662, -20}";
target = down;
type = TopGhost;
}
);
layerId = UUID0;
paths = (
{
closed = 1;
nodes = (
"156 0 LINE",
"156 295 LINE",
"541 295 LINE",
"541 0 LINE",
"616 0 LINE",
"616 662 LINE",
"541 662 LINE",
"541 368 LINE",
"156 368 LINE",
"156 662 LINE",
"81 662 LINE",
"81 0 LINE"
);
}
);
width = 697;
}
);
leftKerningGroup = I;
rightKerningGroup = I;
unicode = 0048;
},
{
glyphname = I;
lastChange = "2020-06-14 09:56:05 +0000";
layers = (
{
anchors = (
{
name = bottom;
position = "{119, 0}";
},
{
name = ogonek;
position = "{166, 2}";
},
{
name = top;
position = "{119, 662}";
},
{
name = topleft;
position = "{20, 662}";
}
);
hints = (
{
place = "{81, 75}";
type = Stem;
},
{
horizontal = 1;
place = "{0, 21}";
target = up;
type = BottomGhost;
},
{
horizontal = 1;
place = "{662, -20}";
target = down;
type = TopGhost;
}
);
layerId = UUID0;
paths = (
{
closed = 1;
nodes = (
"156 0 LINE",
"156 662 LINE",
"81 662 LINE",
"81 0 LINE"
);
}
);
width = 237;
}
);
leftKerningGroup = I;
rightKerningGroup = I;
unicode = 0049;
},
{
glyphname = J;
lastChange = "2020-06-01 08:04:25 +0000";
layers = (
{
anchors = (
{
name = bottom;
position = "{264, 0}";
},
{
name = top;
position = "{413, 662}";
}
);
hints = (
{
place = "{377, 75}";
type = Stem;
},
{
horizontal = 1;
place = "{-8, 73}";
type = Stem;
},
{
horizontal = 1;
place = "{662, -20}";
target = down;
type = TopGhost;
}
);
layerId = UUID0;
paths = (
{
closed = 1;
nodes = (
"396 -8 OFFCURVE",
"452 103 OFFCURVE",
"452 219 CURVE SMOOTH",
"452 662 LINE",
"377 662 LINE",
"377 222 LINE SMOOTH",
"377 154 OFFCURVE",
"360 65 OFFCURVE",
"240 65 CURVE SMOOTH",
"146 65 OFFCURVE",
"101 125 OFFCURVE",
"93 177 CURVE",
"15 177 LINE",
"24 87 OFFCURVE",
"93 -8 OFFCURVE",
"236 -8 CURVE SMOOTH"
);
}
);
width = 527;
}
);
leftKerningGroup = J;
rightKerningGroup = J;
unicode = 004A;
},
{
glyphname = K;
lastChange = "2020-06-01 08:04:25 +0000";
layers = (
{
anchors = (
{
name = bottom;
position = "{321, 0}";
},
{
name = top;
position = "{321, 662}";
}
);
hints = (
{
place = "{81, 75}";
type = Stem;
},
{
horizontal = 1;
place = "{0, 21}";
target = up;
type = BottomGhost;
},
{
horizontal = 1;
place = "{662, -20}";
target = down;
type = TopGhost;
}
);
layerId = UUID0;
paths = (
{
closed = 1;
nodes = (
"156 0 LINE",
"156 217 LINE",
"293 345 LINE",
"552 0 LINE",
"646 0 LINE",
"348 396 LINE",
"630 662 LINE",
"524 662 LINE",
"156 317 LINE",
"156 662 LINE",
"81 662 LINE",
"81 0 LINE"
);
}
);
width = 641;
}
);
leftKerningGroup = I;
rightKerningGroup = K;
unicode = 004B;
},
{
glyphname = L;
lastChange = "2020-06-01 08:04:25 +0000";
layers = (
{
anchors = (
{
name = bottom;
position = "{287, 0}";
},
{
name = center;
position = "{267, 331}";
},
{
name = top;
position = "{119, 662}";
},
{
name = topright;
position = "{406, 464}";
}
);
hints = (
{
place = "{81, 75}";
type = Stem;
},
{
horizontal = 1;
place = "{0, 72}";
type = Stem;
},
{
horizontal = 1;
place = "{662, -20}";
target = down;
type = TopGhost;
}
);
layerId = UUID0;
paths = (
{
closed = 1;
nodes = (
"517 0 LINE",
"517 72 LINE",
"156 72 LINE",
"156 662 LINE",
"81 662 LINE",
"81 0 LINE"
);
}
);
width = 533;
}
);
leftKerningGroup = I;
rightKerningGroup = L;
unicode = 004C;
},
{
glyphname = M;
lastChange = "2020-06-01 08:04:25 +0000";
layers = (
{
anchors = (
{
name = bottom;
position = "{403, 0}";
},
{
name = top;
position = "{403, 662}";
}
);
hints = (
{
place = "{81, 75}";
type = Stem;
},
{
place = "{650, 75}";
type = Stem;
},
{
horizontal = 1;
place = "{0, 21}";
target = up;
type = BottomGhost;
},
{
horizontal = 1;
place = "{662, -20}";
target = down;
type = TopGhost;
},
{
horizontal = 1;
place = "{548, 114}";
type = Stem;
}
);
layerId = UUID0;
paths = (
{
closed = 1;
nodes = (
"156 0 LINE",
"156 548 LINE",
"405 233 LINE",
"650 548 LINE",
"650 0 LINE",
"725 0 LINE",
"725 662 LINE",
"638 662 LINE",
"405 348 LINE",
"168 662 LINE",
"81 662 LINE",
"81 0 LINE"
);
}
);
width = 806;
}
);
leftKerningGroup = I;
rightKerningGroup = I;
unicode = 004D;
},
{
glyphname = N;
lastChange = "2020-06-01 08:04:25 +0000";
layers = (
{
anchors = (
{
name = bottom;
position = "{367, 0}";
},
{
name = top;
position = "{367, 662}";
}
);
hints = (
{
place = "{81, 75}";
type = Stem;
},
{
place = "{577, 75}";
type = Stem;
},
{
horizontal = 1;
place = "{0, 21}";
target = up;
type = BottomGhost;
},
{
horizontal = 1;
place = "{662, -20}";
target = down;
type = TopGhost;
},
{
horizontal = 1;
place = "{0, 105}";
type = Stem;
},
{
horizontal = 1;
place = "{559, 103}";
type = Stem;
}
);
layerId = UUID0;
paths = (
{
closed = 1;
nodes = (
"156 0 LINE",
"156 559 LINE",
"565 0 LINE",
"652 0 LINE",
"652 662 LINE",
"577 662 LINE",
"577 105 LINE",
"168 662 LINE",
"81 662 LINE",
"81 0 LINE"
);
}
);
width = 733;
}
);
leftKerningGroup = I;
rightKerningGroup = I;
unicode = 004E;
},
{
glyphname = O;
lastChange = "2020-06-01 08:04:25 +0000";
layers = (
{
anchors = (
{
name = bottom;
position = "{375, 0}";
},
{
name = center;
position = "{375, 331}";
},
{
name = ogonek;
position = "{455, 0}";
},
{
name = top;
position = "{375, 662}";
},
{
name = topleft;
position = "{20, 662}";
},
{
name = topright;
position = "{534, 662}";
}
);
hints = (
{
place = "{39, 75}";
type = Stem;
},
{
place = "{636, 75}";
type = Stem;
},
{
horizontal = 1;
place = "{-8, 73}";
type = Stem;
},
{
horizontal = 1;
place = "{597, 73}";
type = Stem;
}
);
layerId = UUID0;
paths = (
{
closed = 1;
nodes = (
"576 -8 OFFCURVE",
"711 143 OFFCURVE",
"711 331 CURVE SMOOTH",
"711 519 OFFCURVE",
"576 670 OFFCURVE",
"375 670 CURVE SMOOTH",
"174 670 OFFCURVE",
"39 519 OFFCURVE",
"39 331 CURVE SMOOTH",
"39 143 OFFCURVE",
"174 -8 OFFCURVE",
"375 -8 CURVE SMOOTH"
);
},
{
closed = 1;
nodes = (
"214 65 OFFCURVE",
"114 182 OFFCURVE",
"114 331 CURVE SMOOTH",
"114 480 OFFCURVE",
"214 597 OFFCURVE",
"375 597 CURVE SMOOTH",
"536 597 OFFCURVE",
"636 480 OFFCURVE",
"636 331 CURVE SMOOTH",
"636 182 OFFCURVE",
"536 65 OFFCURVE",
"375 65 CURVE SMOOTH"
);
}
);
width = 750;
}
);
leftKerningGroup = O;
rightKerningGroup = O;
unicode = 004F;
},
{
glyphname = P;
lastChange = "2020-06-09 10:50:49 +0000";
layers = (
{
anchors = (
{
name = bottom;
position = "{314, 0}";
},
{
name = top;
position = "{314, 662}";
}
);
hints = (
{
place = "{81, 75}";
type = Stem;
},
{
place = "{532, 75}";
type = Stem;
},
{
horizontal = 1;
place = "{0, 21}";
target = up;
type = BottomGhost;
},
{
horizontal = 1;
place = "{236, 70}";
type = Stem;
},
{
horizontal = 1;
place = "{591, 71}";
type = Stem;
}
);
layerId = UUID0;
paths = (
{
closed = 1;
nodes = (
"156 0 LINE",
"156 236 LINE",
"379 236 LINE SMOOTH",
"520 236 OFFCURVE",
"607 318 OFFCURVE",
"607 449 CURVE SMOOTH",
"607 579 OFFCURVE",
"520 662 OFFCURVE",
"379 662 CURVE SMOOTH",
"81 662 LINE",
"81 0 LINE"
);
},
{
closed = 1;
nodes = (
"156 591 LINE",
"374 591 LINE SMOOTH",
"478 591 OFFCURVE",
"532 537 OFFCURVE",
"532 449 CURVE SMOOTH",
"532 360 OFFCURVE",
"478 306 OFFCURVE",
"374 306 CURVE SMOOTH",
"156 306 LINE"
);
}
);
width = 628;
}
);
leftKerningGroup = I;
rightKerningGroup = P;
unicode = 0050;
},
{
glyphname = Q;
lastChange = "2020-06-01 08:04:25 +0000";
layers = (
{
anchors = (
{
name = bottom;
position = "{375, 0}";
},
{
name = top;
position = "{375, 662}";
}
);
hints = (
{
place = "{39, 75}";
type = Stem;
},
{
place = "{636, 75}";
type = Stem;
},
{
horizontal = 1;
place = "{-157, 64}";
type = Stem;
},
{
horizontal = 1;
place = "{-2, 67}";
type = Stem;
},
{
horizontal = 1;
place = "{597, 73}";
type = Stem;
}
);
layerId = UUID0;
paths = (
{
closed = 1;
nodes = (
"660 -157 OFFCURVE",
"711 -139 OFFCURVE",
"758 -102 CURVE",
"718 -48 LINE",
"683 -76 OFFCURVE",
"645 -93 OFFCURVE",
"597 -93 CURVE SMOOTH",
"505 -93 OFFCURVE",
"457 -39 OFFCURVE",
"437 -2 CURVE",
"601 25 OFFCURVE",
"711 163 OFFCURVE",
"711 331 CURVE SMOOTH",
"711 519 OFFCURVE",
"576 670 OFFCURVE",
"375 670 CURVE SMOOTH",
"174 670 OFFCURVE",
"39 519 OFFCURVE",
"39 331 CURVE SMOOTH",
"39 147 OFFCURVE",
"168 0 OFFCURVE",
"361 -7 CURVE",
"404 -96 OFFCURVE",
"497 -157 OFFCURVE",
"596 -157 CURVE SMOOTH"
);
},
{
closed = 1;
nodes = (
"214 65 OFFCURVE",
"114 182 OFFCURVE",
"114 331 CURVE SMOOTH",
"114 480 OFFCURVE",
"214 597 OFFCURVE",
"375 597 CURVE SMOOTH",
"536 597 OFFCURVE",
"636 480 OFFCURVE",
"636 331 CURVE SMOOTH",
"636 182 OFFCURVE",
"536 65 OFFCURVE",
"375 65 CURVE SMOOTH"
);
}
);
width = 750;
}
);
leftKerningGroup = O;
rightKerningGroup = O;
unicode = 0051;
},
{
glyphname = R;
lastChange = "2020-06-01 08:04:25 +0000";
layers = (
{
anchors = (
{
name = bottom;
position = "{335, 0}";
},
{
name = top;
position = "{335, 662}";
}
);
hints = (
{
place = "{81, 75}";
type = Stem;
},
{
place = "{546, 75}";
type = Stem;
},
{
horizontal = 1;
place = "{0, 21}";
target = up;
type = BottomGhost;
},
{
horizontal = 1;
place = "{254, 71}";
type = Stem;
},
{
horizontal = 1;
place = "{591, 71}";
type = Stem;
}
);
layerId = UUID0;
paths = (
{
closed = 1;
nodes = (
"156 0 LINE",
"156 254 LINE",
"386 254 LINE",
"546 0 LINE",
"635 0 LINE",
"461 267 LINE",
"535 284 OFFCURVE",
"621 327 OFFCURVE",
"621 455 CURVE SMOOTH",
"621 581 OFFCURVE",
"534 662 OFFCURVE",
"398 662 CURVE SMOOTH",
"81 662 LINE",
"81 0 LINE"
);
},
{
closed = 1;
nodes = (
"156 591 LINE",
"389 591 LINE SMOOTH",
"483 591 OFFCURVE",
"546 539 OFFCURVE",
"546 455 CURVE SMOOTH",
"546 352 OFFCURVE",
"456 325 OFFCURVE",
"385 325 CURVE SMOOTH",
"156 325 LINE"
);
}
);
width = 669;
}
);
leftKerningGroup = I;
rightKerningGroup = R;
unicode = 0052;
},
{
glyphname = S;
lastChange = "2020-06-01 08:04:25 +0000";
layers = (
{
anchors = (
{
name = bottom;
position = "{308, 0}";
},
{
name = top;
position = "{308, 662}";
}
);
hints = (
{
place = "{52, 73}";
type = Stem;
},
{
place = "{505, 75}";
type = Stem;
},
{
horizontal = 1;
place = "{-8, 71}";
type = Stem;
},
{
horizontal = 1;
place = "{298, 75}";
type = Stem;
},
{
horizontal = 1;
place = "{600, 70}";
type = Stem;
}
);
layerId = UUID0;
paths = (
{
closed = 1;
nodes = (
"481 -8 OFFCURVE",
"580 60 OFFCURVE",
"580 183 CURVE SMOOTH",
"580 414 OFFCURVE",
"125 334 OFFCURVE",
"125 488 CURVE SMOOTH",
"125 532 OFFCURVE",
"151 600 OFFCURVE",
"301 600 CURVE SMOOTH",
"422 600 OFFCURVE",
"478 547 OFFCURVE",
"486 481 CURVE",
"563 481 LINE",
"557 580 OFFCURVE",
"477 670 OFFCURVE",
"301 670 CURVE SMOOTH",
"135 670 OFFCURVE",
"52 595 OFFCURVE",
"52 487 CURVE SMOOTH",
"52 260 OFFCURVE",
"505 342 OFFCURVE",
"505 180 CURVE SMOOTH",
"505 102 OFFCURVE",
"435 63 OFFCURVE",
"323 63 CURVE SMOOTH",
"208 63 OFFCURVE",
"115 102 OFFCURVE",
"110 198 CURVE",
"32 198 LINE",
"42 79 OFFCURVE",
"122 -8 OFFCURVE",
"318 -8 CURVE SMOOTH"
);
}
);
width = 615;
}
);
leftKerningGroup = S;
rightKerningGroup = S;
unicode = 0053;
},
{
glyphname = T;
lastChange = "2020-06-09 10:59:10 +0000";
layers = (
{
anchors = (
{
name = bottom;
position = "{283, 0}";
},
{
name = center;
position = "{283, 331}";
},
{
name = top;
position = "{283, 662}";
}
);
hints = (
{
place = "{245, 75}";
type = Stem;
},
{
horizontal = 1;
place = "{0, 21}";
target = up;
type = BottomGhost;
},
{
horizontal = 1;
place = "{590, 72}";
type = Stem;
}
);
layerId = UUID0;
paths = (
{
closed = 1;
nodes = (
"320 0 LINE",
"320 591 LINE",
"551 591 LINE",
"551 662 LINE",
"14 662 LINE",
"14 591 LINE",
"245 591 LINE",
"245 0 LINE"
);
}
);
width = 565;
}
);
leftKerningGroup = T;
rightKerningGroup = T;
unicode = 0054;
},
{
glyphname = U;
lastChange = "2020-06-01 08:04:25 +0000";
layers = (
{
anchors = (
{
name = bottom;
position = "{355, 0}";
},
{
name = ogonek;
position = "{434, 10}";
},
{
name = top;
position = "{355, 662}";
},
{
name = topright;
position = "{689, 662}";
}
);
hints = (
{
place = "{73, 75}";
type = Stem;
},
{
place = "{561, 75}";
type = Stem;
},
{
horizontal = 1;
place = "{-8, 73}";
type = Stem;
},
{
horizontal = 1;
place = "{662, -20}";
target = down;
type = TopGhost;
}
);
layerId = UUID0;
paths = (
{
closed = 1;
nodes = (
"520 -8 OFFCURVE",
"636 110 OFFCURVE",
"636 285 CURVE SMOOTH",
"636 662 LINE",
"561 662 LINE",
"561 283 LINE SMOOTH",
"561 129 OFFCURVE",
"459 65 OFFCURVE",
"354 65 CURVE SMOOTH",
"249 65 OFFCURVE",
"148 129 OFFCURVE",
"148 283 CURVE SMOOTH",
"148 662 LINE",
"73 662 LINE",
"73 285 LINE SMOOTH",
"73 109 OFFCURVE",
"189 -8 OFFCURVE",
"354 -8 CURVE SMOOTH"
);
}
);
width = 709;
}
);
leftKerningGroup = U;
rightKerningGroup = U;
unicode = 0055;
},
{
glyphname = V;
lastChange = "2020-06-01 08:04:25 +0000";
layers = (
{
anchors = (
{
name = bottom;
position = "{314, 0}";
},
{
name = top;
position = "{314, 662}";
}
);
hints = (
{
place = "{3, 622}";
type = Stem;
},
{
horizontal = 1;
place = "{0, 21}";
target = up;
type = BottomGhost;
},
{
horizontal = 1;
place = "{662, -20}";
target = down;
type = TopGhost;
},
{
horizontal = 1;
place = "{0, 85}";
type = Stem;
}
);
layerId = UUID0;
paths = (
{
closed = 1;
nodes = (
"357 0 LINE",
"625 662 LINE",
"543 662 LINE",
"314 85 LINE",
"85 662 LINE",
"3 662 LINE",
"271 0 LINE"
);
}
);
width = 628;
}
);
leftKerningGroup = V;
rightKerningGroup = V;
unicode = 0056;
},
{
glyphname = W;
lastChange = "2020-06-09 13:42:12 +0000";
layers = (
{
anchors = (
{
name = bottom;
position = "{479, 0}";
},
{
name = top;
position = "{479, 662}";
}
);
hints = (
{
place = "{9, 940}";
type = Stem;
},
{
horizontal = 1;
place = "{0, 21}";
target = up;
type = BottomGhost;
},
{
horizontal = 1;
place = "{556, 106}";
type = Stem;
},
{
horizontal = 1;
place = "{0, 106}";
type = Stem;
},
{
horizontal = 1;
place = "{662, -20}";
target = down;
type = TopGhost;
}
);
layerId = UUID0;
paths = (
{
closed = 1;
nodes = (
"300 0 LINE",
"479 556 LINE",
"658 0 LINE",
"743 0 LINE",
"949 662 LINE",
"870 662 LINE",
"700 106 LINE",
"522 662 LINE",
"436 662 LINE",
"258 106 LINE",
"88 662 LINE",
"9 662 LINE",
"215 0 LINE"
);
}
);
width = 958;
}
);
leftKerningGroup = V;
rightKerningGroup = V;
unicode = 0057;
},
{
glyphname = X;
lastChange = "2020-06-09 13:57:29 +0000";
layers = (
{
anchors = (
{
name = bottom;
position = "{307, 0}";
},
{
name = top;
position = "{307, 662}";
}
);
hints = (
{
place = "{-3, 619}";
type = Stem;
},
{
horizontal = 1;
place = "{0, 21}";
target = up;
type = BottomGhost;
},
{
horizontal = 1;
place = "{662, -20}";
target = down;
type = TopGhost;
}
);
layerId = UUID0;
paths = (
{
closed = 1;
nodes = (
"92 0 LINE",
"306 284 LINE",
"521 0 LINE",
"616 0 LINE",
"352 342 LINE",
"598 662 LINE",
"503 662 LINE",
"306 402 LINE",
"110 662 LINE",
"15 662 LINE",
"261 342 LINE",
"-3 0 LINE"
);
}
);
width = 613;
}
);
leftKerningGroup = X;
rightKerningGroup = X;
unicode = 0058;
},
{
glyphname = Y;
lastChange = "2020-06-01 08:04:25 +0000";
layers = (
{
anchors = (
{
name = bottom;
position = "{319, 0}";
},
{
name = top;
position = "{319, 662}";
},
{
name = topleft;
position = "{24, 662}";
}
);
hints = (
{
place = "{277, 75}";
type = Stem;
},
{
horizontal = 1;
place = "{0, 21}";
target = up;
type = BottomGhost;
},
{
horizontal = 1;
place = "{662, -20}";
target = down;
type = TopGhost;
}
);
layerId = UUID0;
paths = (
{
closed = 1;
nodes = (
"356 0 LINE",
"356 262 LINE",
"633 662 LINE",
"542 662 LINE",
"318 340 LINE",
"94 662 LINE",
"3 662 LINE",
"281 262 LINE",
"281 0 LINE"
);
}
);
width = 636;
}
);
leftKerningGroup = Y;
rightKerningGroup = Y;
unicode = 0059;
},
{
glyphname = Z;
lastChange = "2020-06-01 08:04:25 +0000";
layers = (
{
anchors = (
{
name = bottom;
position = "{292, 0}";
},
{
name = center;
position = "{292, 331}";
},
{
name = top;
position = "{292, 662}";
}
);
hints = (
{
place = "{29, 524}";
type = Stem;
},
{
horizontal = 1;
place = "{0, 70}";
type = Stem;
},
{
horizontal = 1;
place = "{592, 70}";
type = Stem;
}
);
layerId = UUID0;
paths = (
{
closed = 1;
nodes = (
"553 0 LINE",
"553 70 LINE",
"121 70 LINE",
"553 590 LINE",
"553 662 LINE",
"35 662 LINE",
"35 592 LINE",
"461 592 LINE",
"29 71 LINE",
"29 0 LINE"
);
}
);
width = 584;
}
);
leftKerningGroup = Z;
rightKerningGroup = Z;
unicode = 005A;
},
{
glyphname = bracketleft;
lastChange = "2020-06-01 08:04:25 +0000";
layers = (
{
hints = (
{
place = "{66, 66}";
type = Stem;
},
{
horizontal = 1;
place = "{-133, 62}";
type = Stem;
},
{
horizontal = 1;
place = "{617, 62}";
type = Stem;
}
);
layerId = UUID0;
paths = (
{
closed = 1;
nodes = (
"253 -133 LINE",
"253 -71 LINE",
"132 -71 LINE",
"132 617 LINE",
"253 617 LINE",
"253 679 LINE",
"66 679 LINE",
"66 -133 LINE"
);
}
);
width = 280;
}
);
unicode = 005B;
},
{
glyphname = backslash;
lastChange = "2020-06-01 08:04:25 +0000";
layers = (
{
hints = (
{
place = "{36, 299}";
type = Stem;
},
{
horizontal = 1;
place = "{-32, 712}";
type = Stem;
}
);
layerId = UUID0;
paths = (
{
closed = 1;
nodes = (
"335 -32 LINE",
"106 680 LINE",
"36 680 LINE",
"265 -32 LINE"
);
}
);
width = 371;
}
);
unicode = 005C;
},
{
glyphname = bracketright;
lastChange = "2020-06-01 08:04:25 +0000";
layers = (
{
hints = (
{
place = "{148, 66}";
type = Stem;
},
{
horizontal = 1;
place = "{-133, 62}";
type = Stem;
},
{
horizontal = 1;
place = "{617, 62}";
type = Stem;
}
);
layerId = UUID0;
paths = (
{
closed = 1;
nodes = (
"214 -133 LINE",
"214 679 LINE",
"27 679 LINE",
"27 617 LINE",
"148 617 LINE",
"148 -71 LINE",
"27 -71 LINE",
"27 -133 LINE"
);
}
);
width = 280;
}
);
unicode = 005D;
},
{
glyphname = asciicircum;
lastChange = "2020-06-09 13:30:08 +0000";
layers = (
{
hints = (
{
place = "{75, 359}";
type = Stem;
},
{
horizontal = 1;
place = "{668, -20}";
target = down;
type = TopGhost;
}
);
layerId = UUID0;
paths = (
{
closed = 1;
nodes = (
"145 355 LINE",
"255 570 LINE",
"364 355 LINE",
"434 355 LINE",
"285 668 LINE",
"224 668 LINE",
"75 355 LINE"
);
}
);
width = 509;
}
);
unicode = 005E;
},
{
glyphname = underscore;
lastChange = "2020-06-01 08:04:25 +0000";
layers = (
{
hints = (
{
place = "{50, 500}";
type = Stem;
},
{
horizontal = 1;
place = "{-128, 55}";
type = Stem;
}
);
layerId = UUID0;
paths = (
{
closed = 1;
nodes = (
"550 -128 LINE",
"550 -73 LINE",
"50 -73 LINE",
"50 -128 LINE"
);
}
);
width = 600;
}
);
unicode = 005F;
},
{
glyphname = grave;
lastChange = "2020-06-01 08:04:25 +0000";
layers = (
{
hints = (
{
place = "{93, 168}";
type = Stem;
},
{
horizontal = 1;
place = "{570, 105}";
type = Stem;
}
);
layerId = UUID0;
paths = (
{
closed = 1;
nodes = (
"261 570 LINE",
"200 675 LINE",
"93 675 LINE",
"200 570 LINE"
);
}
);
width = 340;
}
);
unicode = 0060;
},
{
glyphname = a;
lastChange = "2020-06-17 14:55:39 +0000";
layers = (
{
anchors = (
{
name = bottom;
position = "{298, 0}";
},
{
name = ogonek;
position = "{540, 0}";
},
{
name = top;
position = "{298, 500}";
}
);
hints = (
{
place = "{34, 75}";
type = Stem;
},
{
place = "{455, 75}";
type = Stem;
},
{
horizontal = 1;
place = "{-8, 68}";
type = Stem;
},
{
horizontal = 1;
place = "{440, 68}";
type = Stem;
},
{
horizontal = 1;
place = "{0, 21}";
target = up;
type = BottomGhost;
},
{
horizontal = 1;
place = "{500, -20}";
target = down;
type = TopGhost;
}
);
layerId = UUID0;
paths = (
{
closed = 1;
nodes = (
"359 -8 OFFCURVE",
"418 26 OFFCURVE",
"455 80 CURVE",
"455 0 LINE",
"530 0 LINE",
"530 500 LINE",
"455 500 LINE",
"455 419 LINE",
"418 473 OFFCURVE",
"359 508 OFFCURVE",
"276 508 CURVE SMOOTH",
"130 508 OFFCURVE",
"34 393 OFFCURVE",
"34 250 CURVE SMOOTH",
"34 107 OFFCURVE",
"130 -8 OFFCURVE",
"276 -8 CURVE SMOOTH"
);
},
{
closed = 1;
nodes = (
"175 60 OFFCURVE",
"109 147 OFFCURVE",
"109 250 CURVE SMOOTH",
"109 353 OFFCURVE",
"175 440 OFFCURVE",
"286 440 CURVE SMOOTH",
"397 440 OFFCURVE",
"459 353 OFFCURVE",
"459 250 CURVE SMOOTH",
"459 147 OFFCURVE",
"397 60 OFFCURVE",
"286 60 CURVE SMOOTH"
);
}
);
width = 595;
}
);
leftKerningGroup = o;
leftMetricsKey = o;
rightKerningGroup = a;
unicode = 0061;
},
{
glyphname = b;
lastChange = "2020-06-09 13:30:32 +0000";
layers = (
{
anchors = (
{
name = bottom;
position = "{297, 0}";
},
{
name = top;
position = "{312, 500}";
}
);
hints = (
{
place = "{65, 75}";
type = Stem;
},
{
place = "{486, 75}";
type = Stem;
},
{
horizontal = 1;
place = "{-8, 68}";
type = Stem;
},
{
horizontal = 1;
place = "{440, 68}";
type = Stem;
},
{
horizontal = 1;
place = "{0, 21}";
target = up;
type = BottomGhost;
}
);
layerId = UUID0;
paths = (
{
closed = 1;
nodes = (
"465 -8 OFFCURVE",
"561 107 OFFCURVE",
"561 250 CURVE SMOOTH",
"561 393 OFFCURVE",
"465 508 OFFCURVE",
"319 508 CURVE SMOOTH",
"236 508 OFFCURVE",
"177 473 OFFCURVE",
"140 419 CURVE",
"140 700 LINE",
"65 700 LINE",
"65 0 LINE",
"140 0 LINE",
"140 80 LINE",
"177 26 OFFCURVE",
"236 -8 OFFCURVE",
"319 -8 CURVE SMOOTH"
);
},
{
closed = 1;
nodes = (
"198 60 OFFCURVE",
"136 147 OFFCURVE",
"136 250 CURVE SMOOTH",
"136 353 OFFCURVE",
"198 440 OFFCURVE",
"309 440 CURVE SMOOTH",
"420 440 OFFCURVE",
"486 353 OFFCURVE",
"486 250 CURVE SMOOTH",
"486 147 OFFCURVE",
"420 60 OFFCURVE",
"309 60 CURVE SMOOTH"
);
}
);
width = 595;
}
);
leftKerningGroup = h;
rightKerningGroup = o;
rightMetricsKey = o;
unicode = 0062;
},
{
glyphname = c;
lastChange = "2020-06-09 13:40:22 +0000";
layers = (
{
anchors = (
{
name = bottom;
position = "{272, 0}";
},
{
name = top;
position = "{272, 500}";
}
);
hints = (
{
place = "{34, 75}";
type = Stem;
},
{
horizontal = 1;
place = "{-8, 68}";
type = Stem;
},
{
horizontal = 1;
place = "{440, 68}";
type = Stem;
}
);
layerId = UUID0;
paths = (
{
closed = 1;
nodes = (
"398 -8 OFFCURVE",
"487 60 OFFCURVE",
"516 157 CURVE",
"435 157 LINE",
"412 100 OFFCURVE",
"361 60 OFFCURVE",
"290 60 CURVE SMOOTH",
"179 60 OFFCURVE",
"109 147 OFFCURVE",
"109 250 CURVE SMOOTH",
"109 353 OFFCURVE",
"179 440 OFFCURVE",
"290 440 CURVE SMOOTH",
"361 440 OFFCURVE",
"412 400 OFFCURVE",
"435 343 CURVE",
"516 343 LINE",
"487 440 OFFCURVE",
"398 508 OFFCURVE",
"280 508 CURVE SMOOTH",
"130 508 OFFCURVE",
"34 393 OFFCURVE",
"34 250 CURVE SMOOTH",
"34 107 OFFCURVE",
"130 -8 OFFCURVE",
"280 -8 CURVE SMOOTH"
);
}
);
width = 544;
}
);
leftKerningGroup = o;
leftMetricsKey = o;
rightKerningGroup = c;
unicode = 0063;
},
{
glyphname = d;
lastChange = "2020-06-09 14:50:32 +0000";
layers = (
{
anchors = (
{
name = bottom;
position = "{298, 0}";
},
{
name = center;
position = "{298, 250}";
},
{
name = top;
position = "{282, 500}";
},
{
name = topright;
position = "{575, 500}";
}
);
hints = (
{
place = "{34, 75}";
type = Stem;
},
{
place = "{455, 75}";
type = Stem;
},
{
horizontal = 1;
place = "{-8, 68}";
type = Stem;
},
{
horizontal = 1;
place = "{440, 68}";
type = Stem;
},
{
horizontal = 1;
place = "{0, 21}";
target = up;
type = BottomGhost;
}
);
layerId = UUID0;
paths = (
{
closed = 1;
nodes = (
"359 -8 OFFCURVE",
"418 26 OFFCURVE",
"455 80 CURVE",
"455 0 LINE",
"530 0 LINE",
"530 700 LINE",
"455 700 LINE",
"455 419 LINE",
"418 473 OFFCURVE",
"359 508 OFFCURVE",
"276 508 CURVE SMOOTH",
"130 508 OFFCURVE",
"34 393 OFFCURVE",
"34 250 CURVE SMOOTH",
"34 107 OFFCURVE",
"130 -8 OFFCURVE",
"276 -8 CURVE SMOOTH"
);
},
{
closed = 1;
nodes = (
"175 60 OFFCURVE",
"109 147 OFFCURVE",
"109 250 CURVE SMOOTH",
"109 353 OFFCURVE",
"175 440 OFFCURVE",
"286 440 CURVE SMOOTH",
"397 440 OFFCURVE",
"459 353 OFFCURVE",
"459 250 CURVE SMOOTH",
"459 147 OFFCURVE",
"397 60 OFFCURVE",
"286 60 CURVE SMOOTH"
);
}
);
width = 595;
}
);
leftKerningGroup = o;
rightKerningGroup = l;
rightMetricsKey = l;
unicode = 0064;
},
{
glyphname = e;
lastChange = "2020-06-09 14:39:08 +0000";
layers = (
{
anchors = (
{
name = bottom;
position = "{279, 0}";
},
{
name = ogonek;
position = "{399, 0}";
},
{
name = top;
position = "{279, 500}";
}
);
hints = (
{
place = "{34, 77}";
type = Stem;
},
{
horizontal = 1;
place = "{-8, 68}";
type = Stem;
},
{
horizontal = 1;
place = "{220, 70}";
type = Stem;
},
{
horizontal = 1;
place = "{440, 68}";
type = Stem;
}
);
layerId = UUID0;
paths = (
{
closed = 1;
nodes = (
"406 -8 OFFCURVE",
"480 54 OFFCURVE",
"515 144 CURVE",
"433 144 LINE",
"406 94 OFFCURVE",
"358 60 OFFCURVE",
"288 60 CURVE SMOOTH",
"187 60 OFFCURVE",
"122 131 OFFCURVE",
"111 220 CURVE",
"530 220 LINE",
"530 250 LINE SMOOTH",
"530 393 OFFCURVE",
"435 508 OFFCURVE",
"282 508 CURVE SMOOTH",
"129 508 OFFCURVE",
"34 393 OFFCURVE",
"34 250 CURVE SMOOTH",
"34 107 OFFCURVE",
"134 -8 OFFCURVE",
"287 -8 CURVE SMOOTH"
);
},
{
closed = 1;
nodes = (
"126 375 OFFCURVE",
"186 440 OFFCURVE",
"282 440 CURVE SMOOTH",
"378 440 OFFCURVE",
"438 375 OFFCURVE",
"452 290 CURVE",
"112 290 LINE"
);
}
);
width = 557;
}
);
leftKerningGroup = o;
leftMetricsKey = o;
rightKerningGroup = e;
unicode = 0065;
},
{
glyphname = f;
lastChange = "2020-06-18 21:37:41 +0000";
layers = (
{
anchors = (
{
name = bottom;
position = "{154, 0}";
},
{
name = top;
position = "{154, 700}";
}
);
hints = (
{
place = "{99, 75}";
type = Stem;
},
{
horizontal = 1;
place = "{0, 21}";
target = up;
type = BottomGhost;
},
{
horizontal = 1;
place = "{434, 66}";
type = Stem;
},
{
horizontal = 1;
place = "{637, 71}";
type = Stem;
}
);
layerId = UUID0;
paths = (
{
closed = 1;
nodes = (
"174 0 LINE",
"174 434 LINE",
"290 434 LINE",
"290 500 LINE",
"174 500 LINE",
"174 538 LINE SMOOTH",
"174 607 OFFCURVE",
"210 637 OFFCURVE",
"280 637 CURVE SMOOTH",
"290 637 LINE",
"290 708 LINE",
"284 708 LINE SMOOTH",
"169 708 OFFCURVE",
"99 653 OFFCURVE",
"99 544 CURVE SMOOTH",
"99 500 LINE",
"13 500 LINE",
"13 434 LINE",
"99 434 LINE",
"99 0 LINE"
);
}
);
width = 307;
}
);
leftKerningGroup = f;
rightKerningGroup = f;
unicode = 0066;
},
{
glyphname = g;
lastChange = "2020-06-09 14:41:14 +0000";
layers = (
{
anchors = (
{
name = bottom;
position = "{298, -198}";
},
{
name = top;
position = "{298, 500}";
}
);
hints = (
{
place = "{34, 75}";
type = Stem;
},
{
place = "{455, 75}";
type = Stem;
},
{
horizontal = 1;
place = "{-206, 68}";
type = Stem;
},
{
horizontal = 1;
place = "{0, 68}";
type = Stem;
},
{
horizontal = 1;
place = "{500, -20}";
target = down;
type = TopGhost;
},
{
horizontal = 1;
place = "{440, 68}";
type = Stem;
}
);
layerId = UUID0;
paths = (
{
closed = 1;
nodes = (
"444 -206 OFFCURVE",
"530 -128 OFFCURVE",
"530 15 CURVE SMOOTH",
"530 500 LINE",
"455 500 LINE",
"455 420 LINE",
"418 474 OFFCURVE",
"359 508 OFFCURVE",
"276 508 CURVE SMOOTH",
"130 508 OFFCURVE",
"34 397 OFFCURVE",
"34 254 CURVE SMOOTH",
"34 111 OFFCURVE",
"130 0 OFFCURVE",
"276 0 CURVE SMOOTH",
"359 0 OFFCURVE",
"418 35 OFFCURVE",
"455 89 CURVE",
"455 20 LINE SMOOTH",
"455 -83 OFFCURVE",
"405 -138 OFFCURVE",
"290 -138 CURVE SMOOTH",
"214 -138 OFFCURVE",
"164 -109 OFFCURVE",
"144 -60 CURVE",
"61 -60 LINE",
"89 -147 OFFCURVE",
"168 -206 OFFCURVE",
"294 -206 CURVE SMOOTH"
);
},
{
closed = 1;
nodes = (
"175 68 OFFCURVE",
"109 151 OFFCURVE",
"109 254 CURVE SMOOTH",
"109 357 OFFCURVE",
"175 440 OFFCURVE",
"286 440 CURVE SMOOTH",
"395 440 OFFCURVE",
"459 357 OFFCURVE",
"459 254 CURVE SMOOTH",
"459 151 OFFCURVE",
"395 68 OFFCURVE",
"286 68 CURVE SMOOTH"
);
}
);
width = 595;
}
);
leftKerningGroup = o;
leftMetricsKey = o;
rightKerningGroup = a;
rightMetricsKey = a;
unicode = 0067;
},
{
glyphname = h;
lastChange = "2020-06-09 14:49:24 +0000";
layers = (
{
anchors = (
{
name = bottom;
position = "{283, 0}";
},
{
name = center;
position = "{112, 574}";
},
{
name = top;
position = "{102, 700}";
}
);
hints = (
{
place = "{65, 75}";
type = Stem;
},
{
place = "{431, 75}";
type = Stem;
},
{
horizontal = 1;
place = "{0, 21}";
target = up;
type = BottomGhost;
},
{
horizontal = 1;
place = "{440, 68}";
type = Stem;
}
);
layerId = UUID0;
paths = (
{
closed = 1;
nodes = (
"140 0 LINE",
"140 288 LINE SMOOTH",
"140 378 OFFCURVE",
"208 440 OFFCURVE",
"291 440 CURVE SMOOTH",
"373 440 OFFCURVE",
"431 380 OFFCURVE",
"431 289 CURVE SMOOTH",
"431 0 LINE",
"506 0 LINE",
"506 291 LINE SMOOTH",
"506 433 OFFCURVE",
"409 508 OFFCURVE",
"306 508 CURVE SMOOTH",
"225 508 OFFCURVE",
"176 470 OFFCURVE",
"140 422 CURVE",
"140 700 LINE",
"65 700 LINE",
"65 0 LINE"
);
}
);
width = 566;
}
);
leftKerningGroup = h;
rightKerningGroup = n;
unicode = 0068;
},
{
glyphname = i;
lastChange = "2020-06-09 14:41:31 +0000";
layers = (
{
anchors = (
{
name = bottom;
position = "{103, 0}";
}
);
hints = (
{
place = "{65, 75}";
type = Stem;
},
{
place = "{62, 81}";
type = Stem;
},
{
horizontal = 1;
place = "{0, 21}";
target = up;
type = BottomGhost;
},
{
horizontal = 1;
place = "{500, -20}";
target = down;
type = TopGhost;
},
{
horizontal = 1;
place = "{584, 98}";
type = Stem;
}
);
layerId = UUID0;
paths = (
{
closed = 1;
nodes = (
"143 584 LINE",
"143 682 LINE",
"62 682 LINE",
"62 584 LINE"
);
},
{
closed = 1;
nodes = (
"140 0 LINE",
"140 500 LINE",
"65 500 LINE",
"65 0 LINE"
);
}
);
width = 205;
}
);
leftKerningGroup = i;
rightKerningGroup = i;
unicode = 0069;
},
{
glyphname = j;
lastChange = "2020-06-01 08:04:25 +0000";
layers = (
{
hints = (
{
place = "{65, 75}";
type = Stem;
},
{
place = "{62, 81}";
type = Stem;
},
{
horizontal = 1;
place = "{-198, 21}";
target = up;
type = BottomGhost;
},
{
horizontal = 1;
place = "{500, -20}";
target = down;
type = TopGhost;
},
{
horizontal = 1;
place = "{584, 98}";
type = Stem;
}
);
layerId = UUID0;
paths = (
{
closed = 1;
nodes = (
"143 584 LINE",
"143 682 LINE",
"62 682 LINE",
"62 584 LINE"
);
},
{
closed = 1;
nodes = (
"140 -198 LINE",
"140 500 LINE",
"65 500 LINE",
"65 -198 LINE"
);
}
);
width = 205;
}
);
leftKerningGroup = i;
rightKerningGroup = i;
unicode = 006A;
},
{
glyphname = k;
lastChange = "2020-06-01 08:04:25 +0000";
layers = (
{
anchors = (
{
name = bottom;
position = "{251, 0}";
},
{
name = top;
position = "{105, 700}";
}
);
hints = (
{
place = "{65, 75}";
type = Stem;
},
{
horizontal = 1;
place = "{0, 21}";
target = up;
type = BottomGhost;
},
{
horizontal = 1;
place = "{500, -20}";
target = down;
type = TopGhost;
}
);
layerId = UUID0;
paths = (
{
closed = 1;
nodes = (
"140 0 LINE",
"140 158 LINE",
"234 251 LINE",
"409 0 LINE",
"501 0 LINE",
"285 303 LINE",
"486 500 LINE",
"381 500 LINE",
"140 252 LINE",
"140 700 LINE",
"65 700 LINE",
"65 0 LINE"
);
}
);
width = 502;
}
);
leftKerningGroup = h;
rightKerningGroup = k;
unicode = 006B;
},
{
glyphname = l;
lastChange = "2020-06-14 09:39:45 +0000";
layers = (
{
anchors = (
{
name = bottom;
position = "{103, 0}";
},
{
name = center;
position = "{103, 350}";
},
{
name = top;
position = "{103, 700}";
},
{
name = topright;
position = "{185, 499}";
}
);
hints = (
{
place = "{65, 75}";
type = Stem;
},
{
horizontal = 1;
place = "{0, 21}";
target = up;
type = BottomGhost;
}
);
layerId = UUID0;
paths = (
{
closed = 1;
nodes = (
"140 0 LINE",
"140 700 LINE",
"65 700 LINE",
"65 0 LINE"
);
}
);
width = 205;
}
);
leftKerningGroup = h;
rightKerningGroup = l;
unicode = 006C;
},
{
glyphname = m;
lastChange = "2020-06-09 14:45:22 +0000";
layers = (
{
anchors = (
{
name = bottom;
position = "{434, 0}";
},
{
name = top;
position = "{434, 500}";
}
);
hints = (
{
place = "{65, 75}";
type = Stem;
},
{
place = "{399, 75}";
type = Stem;
},
{
place = "{733, 75}";
type = Stem;
},
{
horizontal = 1;
place = "{0, 21}";
target = up;
type = BottomGhost;
},
{
horizontal = 1;
place = "{440, 68}";
type = Stem;
},
{
horizontal = 1;
place = "{500, -20}";
target = down;
type = TopGhost;
}
);
layerId = UUID0;
paths = (
{
closed = 1;
nodes = (
"140 0 LINE",
"140 299 LINE SMOOTH",
"140 388 OFFCURVE",
"201 440 OFFCURVE",
"275 440 CURVE SMOOTH",
"345 440 OFFCURVE",
"399 384 OFFCURVE",
"399 300 CURVE SMOOTH",
"399 0 LINE",
"474 0 LINE",
"474 299 LINE SMOOTH",
"474 388 OFFCURVE",
"535 440 OFFCURVE",
"609 440 CURVE SMOOTH",
"679 440 OFFCURVE",
"733 384 OFFCURVE",
"733 300 CURVE SMOOTH",
"733 0 LINE",
"808 0 LINE",
"808 302 LINE SMOOTH",
"808 428 OFFCURVE",
"719 508 OFFCURVE",
"623 508 CURVE SMOOTH",
"524 508 OFFCURVE",
"471 441 OFFCURVE",
"451 407 CURVE",
"419 471 OFFCURVE",
"358 508 OFFCURVE",
"292 508 CURVE SMOOTH",
"211 508 OFFCURVE",
"163 464 OFFCURVE",
"140 424 CURVE",
"140 500 LINE",
"65 500 LINE",
"65 0 LINE"
);
}
);
width = 868;
}
);
leftKerningGroup = n;
leftMetricsKey = n;
rightKerningGroup = n;
rightMetricsKey = n;
unicode = 006D;
},
{
glyphname = n;
lastChange = "2020-06-01 08:04:25 +0000";
layers = (
{
anchors = (
{
name = bottom;
position = "{283, 0}";
},
{
name = top;
position = "{283, 500}";
}
);
hints = (
{
place = "{65, 75}";
type = Stem;
},
{
place = "{431, 75}";
type = Stem;
},
{
horizontal = 1;
place = "{0, 21}";
target = up;
type = BottomGhost;
},
{
horizontal = 1;
place = "{500, -20}";
target = down;
type = TopGhost;
},
{
horizontal = 1;
place = "{440, 68}";
type = Stem;
}
);
layerId = UUID0;
paths = (
{
closed = 1;
nodes = (
"140 0 LINE",
"140 288 LINE SMOOTH",
"140 378 OFFCURVE",
"208 440 OFFCURVE",
"291 440 CURVE SMOOTH",
"373 440 OFFCURVE",
"431 380 OFFCURVE",
"431 289 CURVE SMOOTH",
"431 0 LINE",
"506 0 LINE",
"506 291 LINE SMOOTH",
"506 433 OFFCURVE",
"409 508 OFFCURVE",
"306 508 CURVE SMOOTH",
"225 508 OFFCURVE",
"176 470 OFFCURVE",
"140 422 CURVE",
"140 500 LINE",
"65 500 LINE",
"65 0 LINE"
);
}
);
width = 566;
}
);
leftKerningGroup = n;
rightKerningGroup = n;
unicode = 006E;
},
{
glyphname = o;
lastChange = "2020-06-09 15:26:04 +0000";
layers = (
{
anchors = (
{
name = bottom;
position = "{282, 0}";
},
{
name = center;
position = "{282, 250}";
},
{
name = ogonek;
position = "{368, 0}";
},
{
name = top;
position = "{282, 500}";
},
{
name = topright;
position = "{544, 500}";
}
);
hints = (
{
place = "{34, 75}";
type = Stem;
},
{
place = "{455, 75}";
type = Stem;
},
{
horizontal = 1;
place = "{-8, 68}";
type = Stem;
},
{
horizontal = 1;
place = "{440, 68}";
type = Stem;
}
);
layerId = UUID0;
paths = (
{
closed = 1;
nodes = (
"435 -8 OFFCURVE",
"530 107 OFFCURVE",
"530 250 CURVE SMOOTH",
"530 393 OFFCURVE",
"435 508 OFFCURVE",
"282 508 CURVE SMOOTH",
"129 508 OFFCURVE",
"34 393 OFFCURVE",
"34 250 CURVE SMOOTH",
"34 107 OFFCURVE",
"129 -8 OFFCURVE",
"282 -8 CURVE SMOOTH"
);
},
{
closed = 1;
nodes = (
"171 60 OFFCURVE",
"109 147 OFFCURVE",
"109 250 CURVE SMOOTH",
"109 353 OFFCURVE",
"171 440 OFFCURVE",
"282 440 CURVE SMOOTH",
"393 440 OFFCURVE",
"455 353 OFFCURVE",
"455 250 CURVE SMOOTH",
"455 147 OFFCURVE",
"393 60 OFFCURVE",
"282 60 CURVE SMOOTH"
);
}
);
width = 564;
}
);
leftKerningGroup = o;
rightKerningGroup = o;
unicode = 006F;
},
{
glyphname = p;
lastChange = "2020-06-09 14:45:45 +0000";
layers = (
{
anchors = (
{
name = bottom;
position = "{297, 0}";
},
{
name = top;
position = "{297, 500}";
}
);
hints = (
{
place = "{65, 75}";
type = Stem;
},
{
place = "{486, 75}";
type = Stem;
},
{
horizontal = 1;
place = "{-198, 21}";
target = up;
type = BottomGhost;
},
{
horizontal = 1;
place = "{-8, 68}";
type = Stem;
},
{
horizontal = 1;
place = "{440, 68}";
type = Stem;
},
{
horizontal = 1;
place = "{500, -20}";
target = down;
type = TopGhost;
}
);
layerId = UUID0;
paths = (
{
closed = 1;
nodes = (
"140 -198 LINE",
"140 81 LINE",
"177 27 OFFCURVE",
"236 -8 OFFCURVE",
"319 -8 CURVE SMOOTH",
"465 -8 OFFCURVE",
"561 107 OFFCURVE",
"561 250 CURVE SMOOTH",
"561 393 OFFCURVE",
"465 508 OFFCURVE",
"319 508 CURVE SMOOTH",
"236 508 OFFCURVE",
"177 474 OFFCURVE",
"140 420 CURVE",
"140 500 LINE",
"65 500 LINE",
"65 -198 LINE"
);
},
{
closed = 1;
nodes = (
"198 60 OFFCURVE",
"136 147 OFFCURVE",
"136 250 CURVE SMOOTH",
"136 353 OFFCURVE",
"198 440 OFFCURVE",
"309 440 CURVE SMOOTH",
"420 440 OFFCURVE",
"486 353 OFFCURVE",
"486 250 CURVE SMOOTH",
"486 147 OFFCURVE",
"420 60 OFFCURVE",
"309 60 CURVE SMOOTH"
);
}
);
width = 595;
}
);
leftKerningGroup = n;
rightKerningGroup = o;
rightMetricsKey = o;
unicode = 0070;
},
{
glyphname = q;
lastChange = "2020-06-09 13:34:59 +0000";
layers = (
{
anchors = (
{
name = bottom;
position = "{298, 0}";
},
{
name = top;
position = "{298, 500}";
}
);
hints = (
{
place = "{34, 75}";
type = Stem;
},
{
place = "{455, 75}";
type = Stem;
},
{
horizontal = 1;
place = "{-198, 21}";
target = up;
type = BottomGhost;
},
{
horizontal = 1;
place = "{-8, 68}";
type = Stem;
},
{
horizontal = 1;
place = "{440, 68}";
type = Stem;
},
{
horizontal = 1;
place = "{500, -20}";
target = down;
type = TopGhost;
}
);
layerId = UUID0;
paths = (
{
closed = 1;
nodes = (
"530 -198 LINE",
"530 500 LINE",
"455 500 LINE",
"455 420 LINE",
"418 474 OFFCURVE",
"359 508 OFFCURVE",
"276 508 CURVE SMOOTH",
"130 508 OFFCURVE",
"34 393 OFFCURVE",
"34 250 CURVE SMOOTH",
"34 107 OFFCURVE",
"130 -8 OFFCURVE",
"276 -8 CURVE SMOOTH",
"359 -8 OFFCURVE",
"418 27 OFFCURVE",
"455 81 CURVE",
"455 -198 LINE"
);
},
{
closed = 1;
nodes = (
"175 60 OFFCURVE",
"109 147 OFFCURVE",
"109 250 CURVE SMOOTH",
"109 353 OFFCURVE",
"175 440 OFFCURVE",
"286 440 CURVE SMOOTH",
"397 440 OFFCURVE",
"459 353 OFFCURVE",
"459 250 CURVE SMOOTH",
"459 147 OFFCURVE",
"397 60 OFFCURVE",
"286 60 CURVE SMOOTH"
);
}
);
width = 595;
}
);
leftKerningGroup = o;
leftMetricsKey = o;
rightKerningGroup = a;
rightMetricsKey = a;
unicode = 0071;
},
{
glyphname = r;
lastChange = "2020-06-01 08:04:25 +0000";
layers = (
{
anchors = (
{
name = bottom;
position = "{103, 0}";
},
{
name = top;
position = "{173, 500}";
}
);
hints = (
{
place = "{65, 75}";
type = Stem;
},
{
horizontal = 1;
place = "{0, 21}";
target = up;
type = BottomGhost;
},
{
horizontal = 1;
place = "{433, 75}";
type = Stem;
},
{
horizontal = 1;
place = "{500, -20}";
target = down;
type = TopGhost;
}
);
layerId = UUID0;
paths = (
{
closed = 1;
nodes = (
"140 0 LINE",
"140 220 LINE SMOOTH",
"140 330 OFFCURVE",
"208 433 OFFCURVE",
"320 433 CURVE SMOOTH",
"329 433 LINE",
"329 508 LINE",
"324 508 LINE SMOOTH",
"200 508 OFFCURVE",
"150 411 OFFCURVE",
"140 377 CURVE",
"140 500 LINE",
"65 500 LINE",
"65 0 LINE"
);
}
);
width = 345;
}
);
leftKerningGroup = n;
rightKerningGroup = r;
unicode = 0072;
},
{
glyphname = s;
lastChange = "2020-06-09 14:46:04 +0000";
layers = (
{
anchors = (
{
name = bottom;
position = "{241, 0}";
},
{
name = top;
position = "{241, 500}";
}
);
hints = (
{
place = "{43, 75}";
type = Stem;
},
{
place = "{376, 75}";
type = Stem;
},
{
horizontal = 1;
place = "{-8, 64}";
type = Stem;
},
{
horizontal = 1;
place = "{225, 60}";
type = Stem;
},
{
horizontal = 1;
place = "{444, 64}";
type = Stem;
}
);
layerId = UUID0;
paths = (
{
closed = 1;
nodes = (
"371 -8 OFFCURVE",
"451 45 OFFCURVE",
"451 142 CURVE SMOOTH",
"451 330 OFFCURVE",
"118 252 OFFCURVE",
"118 372 CURVE SMOOTH",
"118 421 OFFCURVE",
"159 444 OFFCURVE",
"237 444 CURVE SMOOTH",
"321 444 OFFCURVE",
"353 409 OFFCURVE",
"359 366 CURVE",
"435 366 LINE",
"426 439 OFFCURVE",
"371 508 OFFCURVE",
"239 508 CURVE SMOOTH",
"110 508 OFFCURVE",
"43 455 OFFCURVE",
"43 365 CURVE SMOOTH",
"43 182 OFFCURVE",
"376 260 OFFCURVE",
"376 135 CURVE SMOOTH",
"376 67 OFFCURVE",
"289 56 OFFCURVE",
"248 56 CURVE SMOOTH",
"151 56 OFFCURVE",
"113 106 OFFCURVE",
"108 157 CURVE",
"30 157 LINE",
"35 69 OFFCURVE",
"108 -8 OFFCURVE",
"247 -8 CURVE SMOOTH"
);
}
);
width = 482;
}
);
leftKerningGroup = s;
rightKerningGroup = s;
unicode = 0073;
},
{
glyphname = t;
lastChange = "2020-06-09 14:46:18 +0000";
layers = (
{
anchors = (
{
name = bottom;
position = "{156, 0}";
},
{
name = center;
position = "{163, 250}";
},
{
name = top;
position = "{157, 679}";
},
{
name = topright;
position = "{306, 500}";
}
);
hints = (
{
place = "{119, 75}";
type = Stem;
},
{
horizontal = 1;
place = "{0, 21}";
target = up;
type = BottomGhost;
},
{
horizontal = 1;
place = "{434, 66}";
type = Stem;
}
);
layerId = UUID0;
paths = (
{
closed = 1;
nodes = (
"194 0 LINE",
"194 434 LINE",
"309 434 LINE",
"309 500 LINE",
"194 500 LINE",
"194 679 LINE",
"119 679 LINE",
"119 500 LINE",
"17 500 LINE",
"17 434 LINE",
"119 434 LINE",
"119 0 LINE"
);
}
);
width = 326;
}
);
leftKerningGroup = t;
rightKerningGroup = t;
unicode = 0074;
},
{
glyphname = u;
lastChange = "2020-06-14 09:08:41 +0000";
layers = (
{
anchors = (
{
name = bottom;
position = "{283, 0}";
},
{
name = ogonek;
position = "{491, 0}";
},
{
name = top;
position = "{283, 500}";
},
{
name = topright;
position = "{658, 493}";
}
);
hints = (
{
place = "{60, 75}";
type = Stem;
},
{
place = "{426, 75}";
type = Stem;
},
{
horizontal = 1;
place = "{0, 21}";
target = up;
type = BottomGhost;
},
{
horizontal = 1;
place = "{500, -20}";
target = down;
type = TopGhost;
},
{
horizontal = 1;
place = "{-8, 68}";
type = Stem;
}
);
layerId = UUID0;
paths = (
{
closed = 1;
nodes = (
"341 -8 OFFCURVE",
"390 30 OFFCURVE",
"426 78 CURVE",
"426 0 LINE",
"501 0 LINE",
"501 500 LINE",
"426 500 LINE",
"426 212 LINE SMOOTH",
"426 122 OFFCURVE",
"358 60 OFFCURVE",
"275 60 CURVE SMOOTH",
"193 60 OFFCURVE",
"135 120 OFFCURVE",
"135 211 CURVE SMOOTH",
"135 500 LINE",
"60 500 LINE",
"60 209 LINE SMOOTH",
"60 67 OFFCURVE",
"157 -8 OFFCURVE",
"260 -8 CURVE SMOOTH"
);
}
);
width = 566;
}
);
leftKerningGroup = u;
rightKerningGroup = a;
unicode = 0075;
},
{
glyphname = v;
lastChange = "2020-06-09 14:47:05 +0000";
layers = (
{
anchors = (
{
name = bottom;
position = "{245, 0}";
},
{
name = top;
position = "{245, 500}";
}
);
hints = (
{
place = "{5, 479}";
type = Stem;
},
{
horizontal = 1;
place = "{0, 21}";
target = up;
type = BottomGhost;
},
{
horizontal = 1;
place = "{500, -20}";
target = down;
type = TopGhost;
},
{
horizontal = 1;
place = "{0, 80}";
type = Stem;
}
);
layerId = UUID0;
paths = (
{
closed = 1;
nodes = (
"289 0 LINE",
"484 500 LINE",
"402 500 LINE",
"245 80 LINE",
"87 500 LINE",
"5 500 LINE",
"201 0 LINE"
);
}
);
width = 489;
}
);
leftKerningGroup = v;
rightKerningGroup = v;
unicode = 0076;
},
{
glyphname = w;
lastChange = "2020-06-09 13:41:50 +0000";
layers = (
{
anchors = (
{
name = bottom;
position = "{373, 0}";
},
{
name = top;
position = "{373, 500}";
}
);
hints = (
{
place = "{9, 736}";
type = Stem;
},
{
horizontal = 1;
place = "{0, 21}";
target = up;
type = BottomGhost;
},
{
horizontal = 1;
place = "{500, -20}";
target = down;
type = TopGhost;
},
{
horizontal = 1;
place = "{0, 93}";
type = Stem;
},
{
horizontal = 1;
place = "{399, 101}";
type = Stem;
}
);
layerId = UUID0;
paths = (
{
closed = 1;
nodes = (
"248 0 LINE",
"373 399 LINE",
"498 0 LINE",
"584 0 LINE",
"741 500 LINE",
"661 500 LINE",
"541 93 LINE",
"414 500 LINE",
"332 500 LINE",
"205 93 LINE",
"85 500 LINE",
"5 500 LINE",
"162 0 LINE"
);
}
);
width = 746;
}
);
leftKerningGroup = v;
leftMetricsKey = v;
rightKerningGroup = v;
rightMetricsKey = v;
unicode = 0077;
},
{
glyphname = x;
lastChange = "2020-06-09 14:46:55 +0000";
layers = (
{
anchors = (
{
name = bottom;
position = "{241, 0}";
},
{
name = top;
position = "{241, 500}";
}
);
hints = (
{
place = "{4, 474}";
type = Stem;
},
{
horizontal = 1;
place = "{0, 21}";
target = up;
type = BottomGhost;
},
{
horizontal = 1;
place = "{500, -20}";
target = down;
type = TopGhost;
}
);
layerId = UUID0;
paths = (
{
closed = 1;
nodes = (
"99 0 LINE",
"241 204 LINE",
"382 0 LINE",
"478 0 LINE",
"284 258 LINE",
"465 500 LINE",
"369 500 LINE",
"241 311 LINE",
"112 500 LINE",
"16 500 LINE",
"197 258 LINE",
"4 0 LINE"
);
}
);
width = 482;
}
);
leftKerningGroup = x;
rightKerningGroup = x;
unicode = 0078;
},
{
glyphname = y;
lastChange = "2020-06-09 14:47:18 +0000";
layers = (
{
anchors = (
{
name = bottom;
position = "{249, 0}";
},
{
name = top;
position = "{249, 500}";
}
);
hints = (
{
place = "{4, 490}";
type = Stem;
},
{
horizontal = 1;
place = "{-198, 21}";
target = up;
type = BottomGhost;
},
{
horizontal = 1;
place = "{500, -20}";
target = down;
type = TopGhost;
}
);
layerId = UUID0;
paths = (
{
closed = 1;
nodes = (
"198 -198 LINE",
"494 500 LINE",
"412 500 LINE",
"248 90 LINE",
"87 500 LINE",
"4 500 LINE",
"208 7 LINE",
"117 -198 LINE"
);
}
);
width = 497;
}
);
leftKerningGroup = y;
rightKerningGroup = y;
unicode = 0079;
},
{
glyphname = z;
lastChange = "2020-06-09 14:47:41 +0000";
layers = (
{
anchors = (
{
name = bottom;
position = "{229, 0}";
},
{
name = center;
position = "{229, 250}";
},
{
name = top;
position = "{229, 500}";
}
);
hints = (
{
place = "{31, 394}";
type = Stem;
},
{
horizontal = 1;
place = "{0, 70}";
type = Stem;
},
{
horizontal = 1;
place = "{431, 69}";
type = Stem;
}
);
layerId = UUID0;
paths = (
{
closed = 1;
nodes = (
"425 0 LINE",
"425 70 LINE",
"125 70 LINE",
"425 430 LINE",
"425 500 LINE",
"35 500 LINE",
"35 431 LINE",
"330 431 LINE",
"31 71 LINE",
"31 0 LINE"
);
}
);
width = 458;
}
);
leftKerningGroup = z;
rightKerningGroup = z;
unicode = 007A;
},
{
glyphname = braceleft;
lastChange = "2020-06-01 08:04:26 +0000";
layers = (
{
hints = (
{
place = "{100, 66}";
type = Stem;
},
{
horizontal = 1;
place = "{-133, 54}";
type = Stem;
},
{
horizontal = 1;
place = "{250, 46}";
type = Stem;
},
{
horizontal = 1;
place = "{625, 54}";
type = Stem;
}
);
layerId = UUID0;
paths = (
{
closed = 1;
nodes = (
"269 -79 LINE",
"189 -78 OFFCURVE",
"166 -58 OFFCURVE",
"166 12 CURVE SMOOTH",
"166 144 LINE SMOOTH",
"166 219 OFFCURVE",
"133 255 OFFCURVE",
"96 273 CURVE",
"133 291 OFFCURVE",
"166 327 OFFCURVE",
"166 402 CURVE SMOOTH",
"166 534 LINE SMOOTH",
"166 604 OFFCURVE",
"189 624 OFFCURVE",
"269 625 CURVE",
"269 679 LINE",
"174 679 OFFCURVE",
"100 670 OFFCURVE",
"100 535 CURVE SMOOTH",
"100 391 LINE SMOOTH",
"100 325 OFFCURVE",
"52 296 OFFCURVE",
"21 296 CURVE",
"21 250 LINE",
"52 250 OFFCURVE",
"100 221 OFFCURVE",
"100 155 CURVE SMOOTH",
"100 11 LINE SMOOTH",
"100 -124 OFFCURVE",
"174 -133 OFFCURVE",
"269 -133 CURVE"
);
}
);
width = 294;
}
);
unicode = 007B;
},
{
glyphname = bar;
lastChange = "2020-06-01 08:04:26 +0000";
layers = (
{
hints = (
{
place = "{65, 61}";
type = Stem;
},
{
horizontal = 1;
place = "{-179, 927}";
type = Stem;
}
);
layerId = UUID0;
paths = (
{
closed = 1;
nodes = (
"126 -179 LINE",
"126 748 LINE",
"65 748 LINE",
"65 -179 LINE"
);
}
);
width = 191;
}
);
unicode = 007C;
},
{
glyphname = braceright;
lastChange = "2020-06-01 08:04:26 +0000";
layers = (
{
hints = (
{
place = "{128, 66}";
type = Stem;
},
{
horizontal = 1;
place = "{-133, 54}";
type = Stem;
},
{
horizontal = 1;
place = "{250, 46}";
type = Stem;
},
{
horizontal = 1;
place = "{625, 54}";
type = Stem;
}
);
layerId = UUID0;
paths = (
{
closed = 1;
nodes = (
"120 -133 OFFCURVE",
"194 -124 OFFCURVE",
"194 11 CURVE SMOOTH",
"194 155 LINE SMOOTH",
"194 221 OFFCURVE",
"242 250 OFFCURVE",
"273 250 CURVE",
"273 296 LINE",
"242 296 OFFCURVE",
"194 325 OFFCURVE",
"194 391 CURVE SMOOTH",
"194 535 LINE SMOOTH",
"194 670 OFFCURVE",
"120 679 OFFCURVE",
"25 679 CURVE",
"25 625 LINE",
"105 624 OFFCURVE",
"128 604 OFFCURVE",
"128 534 CURVE SMOOTH",
"128 402 LINE SMOOTH",
"128 327 OFFCURVE",
"161 291 OFFCURVE",
"198 273 CURVE",
"161 255 OFFCURVE",
"128 219 OFFCURVE",
"128 144 CURVE SMOOTH",
"128 12 LINE SMOOTH",
"128 -58 OFFCURVE",
"105 -78 OFFCURVE",
"25 -79 CURVE",
"25 -133 LINE"
);
}
);
width = 294;
}
);
unicode = 007D;
},
{
glyphname = asciitilde;
lastChange = "2020-06-01 08:04:26 +0000";
layers = (
{
hints = (
{
place = "{48, 430}";
type = Stem;
},
{
horizontal = 1;
place = "{226, 62}";
type = Stem;
},
{
horizontal = 1;
place = "{286, 63}";
type = Stem;
}
);
layerId = UUID0;
paths = (
{
closed = 1;
nodes = (
"79 215 LINE",
"85 232 OFFCURVE",
"93 286 OFFCURVE",
"155 286 CURVE SMOOTH",
"201 286 OFFCURVE",
"297 226 OFFCURVE",
"367 226 CURVE SMOOTH",
"454 226 OFFCURVE",
"471 311 OFFCURVE",
"478 360 CURVE",
"446 360 LINE",
"441 343 OFFCURVE",
"431 288 OFFCURVE",
"371 288 CURVE SMOOTH",
"325 288 OFFCURVE",
"229 349 OFFCURVE",
"160 349 CURVE SMOOTH",
"72 349 OFFCURVE",
"54 264 OFFCURVE",
"48 215 CURVE"
);
}
);
width = 524;
}
);
unicode = 007E;
},
{
glyphname = cent;
lastChange = "2020-06-01 08:04:26 +0000";
layers = (
{
hints = (
{
place = "{48, 75}";
type = Stem;
},
{
place = "{280, 36}";
type = Stem;
},
{
horizontal = 1;
place = "{-7, 67}";
type = Stem;
},
{
horizontal = 1;
place = "{440, 67}";
type = Stem;
}
);
layerId = UUID0;
paths = (
{
closed = 1;
nodes = (
"316 -101 LINE",
"316 -7 LINE",
"423 1 OFFCURVE",
"503 66 OFFCURVE",
"530 157 CURVE",
"449 157 LINE",
"427 103 OFFCURVE",
"381 65 OFFCURVE",
"316 60 CURVE",
"316 440 LINE",
"381 435 OFFCURVE",
"427 397 OFFCURVE",
"449 343 CURVE",
"530 343 LINE",
"503 434 OFFCURVE",
"423 499 OFFCURVE",
"316 507 CURVE",
"316 595 LINE",
"280 595 LINE",
"280 508 LINE",
"138 501 OFFCURVE",
"48 388 OFFCURVE",
"48 250 CURVE SMOOTH",
"48 112 OFFCURVE",
"138 -1 OFFCURVE",
"280 -8 CURVE",
"280 -101 LINE"
);
},
{
closed = 1;
nodes = (
"183 73 OFFCURVE",
"123 155 OFFCURVE",
"123 250 CURVE SMOOTH",
"123 345 OFFCURVE",
"183 427 OFFCURVE",
"280 439 CURVE",
"280 61 LINE"
);
}
);
width = 574;
}
);
unicode = 00A2;
},
{
glyphname = sterling;
lastChange = "2020-06-01 08:04:26 +0000";
layers = (
{
hints = (
{
place = "{128, 73}";
type = Stem;
},
{
horizontal = 1;
place = "{0, 70}";
type = Stem;
},
{
horizontal = 1;
place = "{319, 58}";
type = Stem;
},
{
horizontal = 1;
place = "{599, 71}";
type = Stem;
}
);
layerId = UUID0;
paths = (
{
closed = 1;
nodes = (
"504 0 LINE",
"504 70 LINE",
"201 70 LINE",
"201 319 LINE",
"349 319 LINE",
"349 377 LINE",
"201 377 LINE",
"201 446 LINE SMOOTH",
"201 514 OFFCURVE",
"215 599 OFFCURVE",
"336 599 CURVE SMOOTH",
"411 599 OFFCURVE",
"446 560 OFFCURVE",
"460 518 CURVE",
"531 518 LINE",
"514 597 OFFCURVE",
"459 670 OFFCURVE",
"333 670 CURVE SMOOTH",
"182 670 OFFCURVE",
"128 565 OFFCURVE",
"128 449 CURVE SMOOTH",
"128 377 LINE",
"57 377 LINE",
"57 319 LINE",
"128 319 LINE",
"128 70 LINE",
"48 61 LINE",
"48 0 LINE"
);
}
);
width = 575;
}
);
unicode = 00A3;
},
{
glyphname = currency;
lastChange = "2020-06-01 08:04:26 +0000";
layers = (
{
hints = (
{
place = "{71, 61}";
type = Stem;
},
{
place = "{436, 60}";
type = Stem;
},
{
horizontal = 1;
place = "{111, 61}";
type = Stem;
},
{
horizontal = 1;
place = "{476, 60}";
type = Stem;
}
);
layerId = UUID0;
paths = (
{
closed = 1;
nodes = (
"157 153 LINE",
"193 126 OFFCURVE",
"236 111 OFFCURVE",
"284 111 CURVE SMOOTH",
"331 111 OFFCURVE",
"375 126 OFFCURVE",
"410 153 CURVE",
"475 88 LINE",
"519 133 LINE",
"455 197 LINE",
"481 233 OFFCURVE",
"496 276 OFFCURVE",
"496 324 CURVE SMOOTH",
"496 371 OFFCURVE",
"481 415 OFFCURVE",
"455 450 CURVE",
"519 515 LINE",
"475 560 LINE",
"410 495 LINE",
"375 521 OFFCURVE",
"331 536 OFFCURVE",
"284 536 CURVE SMOOTH",
"236 536 OFFCURVE",
"193 521 OFFCURVE",
"157 495 CURVE",
"93 560 LINE",
"48 515 LINE",
"112 450 LINE",
"86 415 OFFCURVE",
"71 371 OFFCURVE",
"71 324 CURVE SMOOTH",
"71 276 OFFCURVE",
"86 233 OFFCURVE",
"112 197 CURVE",
"48 133 LINE",
"93 88 LINE"
);
},
{
closed = 1;
nodes = (
"200 172 OFFCURVE",
"132 240 OFFCURVE",
"132 324 CURVE SMOOTH",
"132 408 OFFCURVE",
"200 476 OFFCURVE",
"284 476 CURVE SMOOTH",
"368 476 OFFCURVE",
"436 408 OFFCURVE",
"436 324 CURVE SMOOTH",
"436 240 OFFCURVE",
"368 172 OFFCURVE",
"284 172 CURVE SMOOTH"
);
}
);
width = 567;
}
);
unicode = 00A4;
},
{
glyphname = yen;
lastChange = "2020-06-01 08:04:26 +0000";
layers = (
{
hints = (
{
place = "{291, 75}";
type = Stem;
},
{
horizontal = 1;
place = "{125, 65}";
type = Stem;
},
{
horizontal = 1;
place = "{289, 65}";
type = Stem;
},
{
horizontal = 1;
place = "{662, -20}";
target = down;
type = TopGhost;
},
{
horizontal = 1;
place = "{0, 190}";
type = Stem;
}
);
layerId = UUID0;
paths = (
{
closed = 1;
nodes = (
"366 0 LINE",
"366 125 LINE",
"559 125 LINE",
"559 190 LINE",
"366 190 LINE",
"366 262 LINE",
"383 289 LINE",
"559 289 LINE",
"559 354 LINE",
"424 354 LINE",
"620 662 LINE",
"529 662 LINE",
"328 340 LINE",
"128 662 LINE",
"37 662 LINE",
"232 354 LINE",
"98 354 LINE",
"98 289 LINE",
"274 289 LINE",
"291 262 LINE",
"291 190 LINE",
"98 190 LINE",
"98 125 LINE",
"291 125 LINE",
"291 0 LINE"
);
}
);
width = 657;
}
);
unicode = 00A5;
},
{
glyphname = section;
lastChange = "2020-06-01 08:04:26 +0000";
layers = (
{
hints = (
{
place = "{47, 73}";
type = Stem;
},
{
place = "{362, 73}";
type = Stem;
},
{
place = "{86, 73}";
type = Stem;
},
{
place = "{401, 73}";
type = Stem;
},
{
horizontal = 1;
place = "{-178, 67}";
type = Stem;
},
{
horizontal = 1;
place = "{602, 67}";
type = Stem;
}
);
layerId = UUID0;
paths = (
{
closed = 1;
nodes = (
"322 -178 OFFCURVE",
"435 -150 OFFCURVE",
"435 -25 CURVE SMOOTH",
"435 15 OFFCURVE",
"420 47 OFFCURVE",
"396 74 CURVE",
"446 94 OFFCURVE",
"474 132 OFFCURVE",
"474 193 CURVE SMOOTH",
"474 352 OFFCURVE",
"159 398 OFFCURVE",
"159 524 CURVE SMOOTH",
"159 575 OFFCURVE",
"203 602 OFFCURVE",
"264 602 CURVE SMOOTH",
"338 602 OFFCURVE",
"383 556 OFFCURVE",
"391 510 CURVE",
"460 510 LINE",
"452 596 OFFCURVE",
"377 669 OFFCURVE",
"267 669 CURVE SMOOTH",
"195 669 OFFCURVE",
"86 641 OFFCURVE",
"86 516 CURVE SMOOTH",
"86 476 OFFCURVE",
"101 444 OFFCURVE",
"124 416 CURVE",
"75 396 OFFCURVE",
"47 358 OFFCURVE",
"47 298 CURVE SMOOTH",
"47 139 OFFCURVE",
"362 93 OFFCURVE",
"362 -33 CURVE SMOOTH",
"362 -84 OFFCURVE",
"314 -111 OFFCURVE",
"253 -111 CURVE SMOOTH",
"179 -111 OFFCURVE",
"130 -65 OFFCURVE",
"122 -19 CURVE",
"53 -19 LINE",
"61 -105 OFFCURVE",
"140 -178 OFFCURVE",
"250 -178 CURVE SMOOTH"
);
},
{
closed = 1;
nodes = (
"267 183 OFFCURVE",
"120 222 OFFCURVE",
"120 316 CURVE SMOOTH",
"120 348 OFFCURVE",
"135 369 OFFCURVE",
"161 382 CURVE",
"254 308 OFFCURVE",
"401 268 OFFCURVE",
"401 175 CURVE SMOOTH",
"401 142 OFFCURVE",
"385 121 OFFCURVE",
"360 109 CURVE"
);
}
);
width = 519;
}
);
unicode = 00A7;
},
{
glyphname = dieresis;
lastChange = "2020-06-01 08:04:26 +0000";
layers = (
{
hints = (
{
place = "{74, 89}";
type = Stem;
},
{
place = "{231, 89}";
type = Stem;
},
{
horizontal = 1;
place = "{579, 83}";
type = Stem;
}
);
layerId = UUID0;
paths = (
{
closed = 1;
nodes = (
"89 579 LINE",
"89 662 LINE",
"0 662 LINE",
"0 579 LINE"
);
},
{
closed = 1;
nodes = (
"246 579 LINE",
"246 662 LINE",
"157 662 LINE",
"157 579 LINE"
);
}
);
width = 246;
}
);
unicode = 00A8;
},
{
glyphname = copyright;
lastChange = "2020-06-01 08:04:26 +0000";
layers = (
{
hints = (
{
place = "{47, 49}";
type = Stem;
},
{
place = "{202, 68}";
type = Stem;
},
{
place = "{683, 49}";
type = Stem;
},
{
horizontal = 1;
place = "{-13, 49}";
type = Stem;
},
{
horizontal = 1;
place = "{133, 64}";
type = Stem;
},
{
horizontal = 1;
place = "{461, 63}";
type = Stem;
},
{
horizontal = 1;
place = "{623, 49}";
type = Stem;
}
);
layerId = UUID0;
paths = (
{
closed = 1;
nodes = (
"578 -13 OFFCURVE",
"732 140 OFFCURVE",
"732 329 CURVE SMOOTH",
"732 519 OFFCURVE",
"578 672 OFFCURVE",
"389 672 CURVE SMOOTH",
"200 672 OFFCURVE",
"47 519 OFFCURVE",
"47 329 CURVE SMOOTH",
"47 140 OFFCURVE",
"200 -13 OFFCURVE",
"389 -13 CURVE SMOOTH"
);
},
{
closed = 1;
nodes = (
"227 36 OFFCURVE",
"96 168 OFFCURVE",
"96 329 CURVE SMOOTH",
"96 491 OFFCURVE",
"227 623 OFFCURVE",
"389 623 CURVE SMOOTH",
"551 623 OFFCURVE",
"683 491 OFFCURVE",
"683 329 CURVE SMOOTH",
"683 168 OFFCURVE",
"551 36 OFFCURVE",
"389 36 CURVE SMOOTH"
);
},
{
closed = 1;
nodes = (
"480 133 OFFCURVE",
"554 179 OFFCURVE",
"569 276 CURVE",
"502 276 LINE",
"493 227 OFFCURVE",
"452 197 OFFCURVE",
"394 197 CURVE SMOOTH",
"317 197 OFFCURVE",
"270 251 OFFCURVE",
"270 329 CURVE SMOOTH",
"270 407 OFFCURVE",
"317 461 OFFCURVE",
"394 461 CURVE SMOOTH",
"452 461 OFFCURVE",
"493 431 OFFCURVE",
"502 382 CURVE",
"569 382 LINE",
"554 478 OFFCURVE",
"480 524 OFFCURVE",
"389 524 CURVE SMOOTH",
"273 524 OFFCURVE",
"202 442 OFFCURVE",
"202 329 CURVE SMOOTH",
"202 216 OFFCURVE",
"273 133 OFFCURVE",
"389 133 CURVE SMOOTH"
);
}
);
width = 779;
}
);
unicode = 00A9;
},
{
glyphname = ordfeminine;
lastChange = "2020-06-01 08:04:26 +0000";
layers = (
{
hints = (
{
place = "{37, 52}";
type = Stem;
},
{
place = "{262, 52}";
type = Stem;
},
{
horizontal = 1;
place = "{392, 48}";
type = Stem;
},
{
horizontal = 1;
place = "{618, 48}";
type = Stem;
},
{
horizontal = 1;
place = "{662, -20}";
target = down;
type = TopGhost;
}
);
layerId = UUID0;
paths = (
{
closed = 1;
nodes = (
"211 392 OFFCURVE",
"242 410 OFFCURVE",
"262 439 CURVE",
"262 396 LINE",
"314 396 LINE",
"314 662 LINE",
"262 662 LINE",
"262 619 LINE",
"242 647 OFFCURVE",
"211 666 OFFCURVE",
"167 666 CURVE SMOOTH",
"87 666 OFFCURVE",
"37 605 OFFCURVE",
"37 529 CURVE SMOOTH",
"37 453 OFFCURVE",
"87 392 OFFCURVE",
"167 392 CURVE SMOOTH"
);
},
{
closed = 1;
nodes = (
"119 440 OFFCURVE",
"89 477 OFFCURVE",
"89 529 CURVE SMOOTH",
"89 580 OFFCURVE",
"119 618 OFFCURVE",
"177 618 CURVE SMOOTH",
"230 618 OFFCURVE",
"263 580 OFFCURVE",
"263 529 CURVE SMOOTH",
"263 478 OFFCURVE",
"230 440 OFFCURVE",
"177 440 CURVE SMOOTH"
);
}
);
width = 371;
}
);
unicode = 00AA;
},
{
glyphname = logicalnot;
lastChange = "2020-06-01 08:04:26 +0000";
layers = (
{
hints = (
{
place = "{457, 72}";
type = Stem;
},
{
horizontal = 1;
place = "{321, 68}";
type = Stem;
}
);
layerId = UUID0;
paths = (
{
closed = 1;
nodes = (
"529 186 LINE",
"529 389 LINE",
"62 389 LINE",
"62 321 LINE",
"457 321 LINE",
"457 186 LINE"
);
}
);
width = 593;
}
);
unicode = 00AC;
},
{
glyphname = registered;
lastChange = "2020-06-01 08:04:26 +0000";
layers = (
{
hints = (
{
place = "{47, 49}";
type = Stem;
},
{
place = "{240, 70}";
type = Stem;
},
{
place = "{489, 69}";
type = Stem;
},
{
place = "{683, 49}";
type = Stem;
},
{
place = "{484, 69}";
type = Stem;
},
{
horizontal = 1;
place = "{-13, 49}";
type = Stem;
},
{
horizontal = 1;
place = "{278, 60}";
type = Stem;
},
{
horizontal = 1;
place = "{461, 59}";
type = Stem;
},
{
horizontal = 1;
place = "{623, 49}";
type = Stem;
}
);
layerId = UUID0;
paths = (
{
closed = 1;
nodes = (
"578 -13 OFFCURVE",
"732 140 OFFCURVE",
"732 329 CURVE SMOOTH",
"732 519 OFFCURVE",
"578 672 OFFCURVE",
"389 672 CURVE SMOOTH",
"200 672 OFFCURVE",
"47 519 OFFCURVE",
"47 329 CURVE SMOOTH",
"47 140 OFFCURVE",
"200 -13 OFFCURVE",
"389 -13 CURVE SMOOTH"
);
},
{
closed = 1;
nodes = (
"227 36 OFFCURVE",
"96 168 OFFCURVE",
"96 329 CURVE SMOOTH",
"96 491 OFFCURVE",
"227 623 OFFCURVE",
"389 623 CURVE SMOOTH",
"551 623 OFFCURVE",
"683 491 OFFCURVE",
"683 329 CURVE SMOOTH",
"683 168 OFFCURVE",
"551 36 OFFCURVE",
"389 36 CURVE SMOOTH"
);
},
{
closed = 1;
nodes = (
"310 138 LINE",
"310 278 LINE",
"407 278 LINE SMOOTH",
"482 278 OFFCURVE",
"484 213 OFFCURVE",
"484 176 CURVE SMOOTH",
"484 138 LINE",
"553 138 LINE",
"553 185 LINE SMOOTH",
"553 224 OFFCURVE",
"540 293 OFFCURVE",
"483 309 CURVE",
"530 324 OFFCURVE",
"558 362 OFFCURVE",
"558 407 CURVE SMOOTH",
"558 474 OFFCURVE",
"510 520 OFFCURVE",
"402 520 CURVE SMOOTH",
"240 520 LINE",
"240 138 LINE"
);
},
{
closed = 1;
nodes = (
"310 461 LINE",
"395 461 LINE SMOOTH",
"466 461 OFFCURVE",
"489 437 OFFCURVE",
"489 400 CURVE SMOOTH",
"489 360 OFFCURVE",
"452 338 OFFCURVE",
"397 338 CURVE SMOOTH",
"310 338 LINE"
);
}
);
width = 779;
}
);
unicode = 00AE;
},
{
glyphname = degree;
lastChange = "2020-06-01 08:04:26 +0000";
layers = (
{
hints = (
{
place = "{36, 57}";
type = Stem;
},
{
place = "{240, 57}";
type = Stem;
},
{
horizontal = 1;
place = "{406, 57}";
type = Stem;
},
{
horizontal = 1;
place = "{610, 57}";
type = Stem;
}
);
layerId = UUID0;
paths = (
{
closed = 1;
nodes = (
"238 406 OFFCURVE",
"297 464 OFFCURVE",
"297 536 CURVE SMOOTH",
"297 608 OFFCURVE",
"238 667 OFFCURVE",
"166 667 CURVE SMOOTH",
"94 667 OFFCURVE",
"36 608 OFFCURVE",
"36 536 CURVE SMOOTH",
"36 464 OFFCURVE",
"94 406 OFFCURVE",
"166 406 CURVE SMOOTH"
);
},
{
closed = 1;
nodes = (
"126 463 OFFCURVE",
"93 496 OFFCURVE",
"93 536 CURVE SMOOTH",
"93 577 OFFCURVE",
"126 610 OFFCURVE",
"166 610 CURVE SMOOTH",
"207 610 OFFCURVE",
"240 577 OFFCURVE",
"240 536 CURVE SMOOTH",
"240 496 OFFCURVE",
"207 463 OFFCURVE",
"166 463 CURVE SMOOTH"
);
}
);
width = 333;
}
);
unicode = 00B0;
},
{
glyphname = plusminus;
lastChange = "2020-06-01 08:04:26 +0000";
layers = (
{
hints = (
{
place = "{242, 65}";
type = Stem;
},
{
horizontal = 1;
place = "{276, 65}";
type = Stem;
}
);
layerId = UUID0;
paths = (
{
closed = 1;
nodes = (
"307 122 LINE",
"307 276 LINE",
"500 276 LINE",
"500 341 LINE",
"307 341 LINE",
"307 495 LINE",
"242 495 LINE",
"242 341 LINE",
"50 341 LINE",
"50 276 LINE",
"242 276 LINE",
"242 122 LINE"
);
},
{
closed = 1;
nodes = (
"500 0 LINE",
"500 62 LINE",
"50 62 LINE",
"50 0 LINE"
);
}
);
width = 550;
}
);
unicode = 00B1;
},
{
glyphname = twosuperior;
lastChange = "2020-05-29 11:09:19 +0000";
layers = (
{
background = {
paths = (
{
closed = 1;
nodes = (
"301 300 LINE",
"301 352 LINE",
"116 352 LINE",
"149 410 OFFCURVE",
"301 446 OFFCURVE",
"301 556 CURVE SMOOTH",
"301 618 OFFCURVE",
"255 665 OFFCURVE",
"175 665 CURVE SMOOTH",
"108 665 OFFCURVE",
"55 614 OFFCURVE",
"46 548 CURVE",
"102 548 LINE",
"109 584 OFFCURVE",
"138 612 OFFCURVE",
"179 612 CURVE SMOOTH",
"218 612 OFFCURVE",
"246 591 OFFCURVE",
"246 555 CURVE SMOOTH",
"246 473 OFFCURVE",
"52 435 OFFCURVE",
"52 329 CURVE SMOOTH",
"52 300 LINE"
);
}
);
};
components = (
{
name = two.sups;
}
);
hints = (
{
place = "{52, 64}";
type = Stem;
},
{
place = "{246, 55}";
type = Stem;
},
{
horizontal = 1;
place = "{300, 52}";
type = Stem;
},
{
horizontal = 1;
place = "{612, 53}";
type = Stem;
}
);
layerId = UUID0;
width = 357;
}
);
unicode = 00B2;
},
{
glyphname = threesuperior;
lastChange = "2020-05-29 11:09:19 +0000";
layers = (
{
background = {
paths = (
{
closed = 1;
nodes = (
"233 296 OFFCURVE",
"295 334 OFFCURVE",
"295 400 CURVE SMOOTH",
"295 446 OFFCURVE",
"275 474 OFFCURVE",
"233 492 CURVE",
"256 503 OFFCURVE",
"284 526 OFFCURVE",
"284 574 CURVE SMOOTH",
"284 633 OFFCURVE",
"233 666 OFFCURVE",
"167 666 CURVE SMOOTH",
"95 666 OFFCURVE",
"53 613 OFFCURVE",
"47 563 CURVE",
"101 563 LINE",
"106 590 OFFCURVE",
"130 614 OFFCURVE",
"168 614 CURVE SMOOTH",
"208 614 OFFCURVE",
"229 592 OFFCURVE",
"229 564 CURVE SMOOTH",
"229 535 OFFCURVE",
"201 514 OFFCURVE",
"169 514 CURVE SMOOTH",
"126 514 LINE",
"126 467 LINE",
"173 467 LINE SMOOTH",
"218 467 OFFCURVE",
"240 437 OFFCURVE",
"240 406 CURVE SMOOTH",
"240 375 OFFCURVE",
"214 347 OFFCURVE",
"170 347 CURVE SMOOTH",
"132 347 OFFCURVE",
"99 375 OFFCURVE",
"93 407 CURVE",
"38 407 LINE",
"44 344 OFFCURVE",
"101 296 OFFCURVE",
"170 296 CURVE SMOOTH"
);
}
);
};
components = (
{
name = three.sups;
}
);
hints = (
{
place = "{240, 55}";
type = Stem;
},
{
place = "{229, 55}";
type = Stem;
},
{
horizontal = 1;
place = "{296, 51}";
type = Stem;
},
{
horizontal = 1;
place = "{467, 47}";
type = Stem;
},
{
horizontal = 1;
place = "{614, 52}";
type = Stem;
}
);
layerId = UUID0;
width = 366;
}
);
unicode = 00B3;
},
{
glyphname = acute;
lastChange = "2020-06-01 08:04:26 +0000";
layers = (
{
hints = (
{
place = "{86, 168}";
type = Stem;
},
{
horizontal = 1;
place = "{570, 105}";
type = Stem;
}
);
layerId = UUID0;
paths = (
{
closed = 1;
nodes = (
"147 570 LINE",
"254 675 LINE",
"147 675 LINE",
"86 570 LINE"
);
}
);
width = 349;
}
);
unicode = 00B4;
},
{
glyphname = paragraph;
lastChange = "2020-06-01 08:04:26 +0000";
layers = (
{
hints = (
{
place = "{276, 59}";
type = Stem;
},
{
place = "{407, 59}";
type = Stem;
},
{
horizontal = 1;
place = "{616, 54}";
type = Stem;
}
);
layerId = UUID0;
paths = (
{
closed = 1;
nodes = (
"335 -141 LINE",
"335 616 LINE",
"407 616 LINE",
"407 -141 LINE",
"466 -141 LINE",
"466 616 LINE",
"509 616 LINE",
"509 670 LINE",
"203 670 LINE SMOOTH",
"110 670 OFFCURVE",
"36 595 OFFCURVE",
"36 502 CURVE SMOOTH",
"36 409 OFFCURVE",
"110 335 OFFCURVE",
"203 335 CURVE SMOOTH",
"276 335 LINE",
"276 -141 LINE"
);
}
);
width = 565;
}
);
unicode = 00B6;
},
{
glyphname = periodcentered;
lastChange = "2020-06-01 08:04:26 +0000";
layers = (
{
hints = (
{
place = "{53, 97}";
type = Stem;
},
{
horizontal = 1;
place = "{242, 102}";
type = Stem;
}
);
layerId = UUID0;
paths = (
{
closed = 1;
nodes = (
"150 242 LINE",
"150 344 LINE",
"53 344 LINE",
"53 242 LINE"
);
}
);
width = 203;
}
);
unicode = 00B7;
},
{
glyphname = cedilla;
lastChange = "2020-06-09 10:38:02 +0000";
layers = (
{
hints = (
{
place = "{192, 73}";
type = Stem;
},
{
horizontal = 1;
place = "{-210, 44}";
type = Stem;
},
{
horizontal = 1;
place = "{-97, 45}";
type = Stem;
}
);
layerId = UUID0;
paths = (
{
closed = 1;
nodes = (
"212 -206 OFFCURVE",
"265 -181 OFFCURVE",
"265 -125 CURVE SMOOTH",
"265 -77 OFFCURVE",
"223 -48 OFFCURVE",
"173 -48 CURVE SMOOTH",
"166 -48 OFFCURVE",
"157 -49 OFFCURVE",
"151 -50 CURVE",
"195 27 LINE",
"152 27 LINE",
"83 -81 LINE",
"104 -98 LINE",
"114 -95 OFFCURVE",
"127 -93 OFFCURVE",
"139 -93 CURVE SMOOTH",
"167 -93 OFFCURVE",
"192 -106 OFFCURVE",
"192 -126 CURVE SMOOTH",
"192 -153 OFFCURVE",
"167 -162 OFFCURVE",
"137 -162 CURVE SMOOTH",
"101 -162 OFFCURVE",
"73 -147 OFFCURVE",
"52 -132 CURVE",
"33 -165 LINE",
"58 -186 OFFCURVE",
"100 -206 OFFCURVE",
"151 -206 CURVE SMOOTH"
);
}
);
width = 300;
}
);
unicode = 00B8;
},
{
glyphname = onesuperior;
lastChange = "2020-05-29 11:09:19 +0000";
layers = (
{
background = {
paths = (
{
closed = 1;
nodes = (
"321 301 LINE",
"321 662 LINE",
"193 662 LINE",
"193 610 LINE",
"266 610 LINE",
"266 301 LINE"
);
}
);
};
components = (
{
alignment = -1;
name = one.sups;
}
);
hints = (
{
place = "{99, 55}";
type = Stem;
},
{
horizontal = 1;
place = "{610, 52}";
type = Stem;
}
);
layerId = UUID0;
width = 319;
}
);
leftMetricsKey = "=one-80";
rightMetricsKey = "=one-80";
unicode = 00B9;
},
{
glyphname = ordmasculine;
lastChange = "2020-06-01 08:04:26 +0000";
layers = (
{
hints = (
{
place = "{37, 52}";
type = Stem;
},
{
place = "{253, 52}";
type = Stem;
},
{
horizontal = 1;
place = "{392, 48}";
type = Stem;
},
{
horizontal = 1;
place = "{618, 48}";
type = Stem;
}
);
layerId = UUID0;
paths = (
{
closed = 1;
nodes = (
"252 392 OFFCURVE",
"305 451 OFFCURVE",
"305 529 CURVE SMOOTH",
"305 607 OFFCURVE",
"252 666 OFFCURVE",
"171 666 CURVE SMOOTH",
"90 666 OFFCURVE",
"37 607 OFFCURVE",
"37 529 CURVE SMOOTH",
"37 451 OFFCURVE",
"90 392 OFFCURVE",
"171 392 CURVE SMOOTH"
);
},
{
closed = 1;
nodes = (
"124 452 OFFCURVE",
"100 488 OFFCURVE",
"100 529 CURVE SMOOTH",
"100 570 OFFCURVE",
"124 606 OFFCURVE",
"171 606 CURVE SMOOTH",
"218 606 OFFCURVE",
"242 570 OFFCURVE",
"242 529 CURVE SMOOTH",
"242 486 OFFCURVE",
"215 452 OFFCURVE",
"171 452 CURVE SMOOTH"
);
}
);
width = 342;
}
);
unicode = 00BA;
},
{
glyphname = onequarter;
lastChange = "2020-05-29 11:09:19 +0000";
layers = (
{
background = {
paths = (
{
closed = 1;
nodes = (
"594 0 LINE",
"594 88 LINE",
"640 88 LINE",
"640 137 LINE",
"594 137 LINE",
"594 361 LINE",
"523 361 LINE",
"374 137 LINE",
"374 88 LINE",
"539 88 LINE",
"539 0 LINE"
);
},
{
closed = 1;
nodes = (
"539 301 LINE",
"539 137 LINE",
"430 137 LINE"
);
}
);
};
components = (
{
name = one.numr;
},
{
alignment = -1;
name = fraction;
transform = "{1, 0, 0, 1, 119, 0}";
},
{
alignment = -1;
name = four.dnom;
transform = "{1, 0, 0, 1, 360, -5}";
}
);
hints = (
{
place = "{569, 55}";
type = Stem;
},
{
horizontal = 1;
place = "{88, 49}";
type = Stem;
},
{
horizontal = 1;
place = "{301, 60}";
type = Stem;
},
{
horizontal = 1;
place = "{0, 137}";
type = Stem;
}
);
layerId = UUID0;
width = 729;
}
);
unicode = 00BC;
},
{
glyphname = Aring;
lastChange = "2020-05-29 11:09:19 +0000";
layers = (
{
background = {
paths = (
{
closed = 1;
nodes = (
"279 651 LINE",
"256 667 OFFCURVE",
"241 694 OFFCURVE",
"241 724 CURVE SMOOTH",
"241 774 OFFCURVE",
"281 814 OFFCURVE",
"330 814 CURVE SMOOTH",
"381 814 OFFCURVE",
"421 774 OFFCURVE",
"421 724 CURVE SMOOTH",
"421 694 OFFCURVE",
"406 667 OFFCURVE",
"382 651 CURVE",
"659 0 LINE",
"576 0 LINE",
"495 192 LINE",
"167 192 LINE",
"86 0 LINE",
"3 0 LINE"
);
},
{
closed = 1;
nodes = (
"466 261 LINE",
"331 584 LINE",
"196 261 LINE"
);
},
{
closed = 1;
nodes = (
"355 680 OFFCURVE",
"375 700 OFFCURVE",
"375 724 CURVE SMOOTH",
"375 749 OFFCURVE",
"355 769 OFFCURVE",
"330 769 CURVE SMOOTH",
"307 769 OFFCURVE",
"287 749 OFFCURVE",
"287 724 CURVE SMOOTH",
"287 700 OFFCURVE",
"307 680 OFFCURVE",
"330 680 CURVE SMOOTH"
);
}
);
};
components = (
{
name = A;
},
{
name = ringcomb.case;
transform = "{1, 0, 0, 1, 241, 0}";
}
);
hints = (
{
place = "{241, 46}";
type = Stem;
},
{
place = "{375, 46}";
type = Stem;
},
{
horizontal = 1;
place = "{0, 21}";
target = up;
type = BottomGhost;
},
{
horizontal = 1;
place = "{192, 69}";
type = Stem;
},
{
horizontal = 1;
place = "{769, 45}";
type = Stem;
}
);
layerId = UUID0;
width = 662;
}
);
leftKerningGroup = A;
rightKerningGroup = A;
unicode = 00C5;
},
{
glyphname = AE;
lastChange = "2020-06-01 08:04:26 +0000";
layers = (
{
anchors = (
{
name = bottom;
position = "{511, 0}";
},
{
name = top;
position = "{711, 662}";
}
);
hints = (
{
place = "{521, 75}";
type = Stem;
},
{
horizontal = 1;
place = "{0, 72}";
type = Stem;
},
{
horizontal = 1;
place = "{185, 69}";
type = Stem;
},
{
horizontal = 1;
place = "{295, 73}";
type = Stem;
},
{
horizontal = 1;
place = "{590, 72}";
type = Stem;
}
);
layerId = UUID0;
paths = (
{
closed = 1;
nodes = (
"87 0 LINE",
"212 185 LINE",
"521 185 LINE",
"521 0 LINE",
"983 0 LINE",
"983 72 LINE",
"596 72 LINE",
"596 295 LINE",
"939 295 LINE",
"939 368 LINE",
"596 368 LINE",
"596 590 LINE",
"983 590 LINE",
"983 662 LINE",
"450 662 LINE",
"-3 0 LINE"
);
},
{
closed = 1;
nodes = (
"487 590 LINE",
"521 590 LINE",
"521 254 LINE",
"259 254 LINE"
);
}
);
width = 1022;
}
);
leftKerningGroup = A;
rightKerningGroup = E;
unicode = 00C6;
},
{
glyphname = Ccedilla;
lastChange = "2020-06-17 16:43:11 +0000";
layers = (
{
anchors = (
{
name = bottom;
position = "{345, 0}";
},
{
name = top;
position = "{345, 662}";
}
);
background = {
paths = (
{
closed = 1;
nodes = (
"410 -210 OFFCURVE",
"463 -185 OFFCURVE",
"463 -129 CURVE SMOOTH",
"463 -81 OFFCURVE",
"421 -52 OFFCURVE",
"371 -52 CURVE SMOOTH",
"364 -52 OFFCURVE",
"355 -53 OFFCURVE",
"349 -54 CURVE",
"375 -8 LINE",
"517 -2 OFFCURVE",
"618 81 OFFCURVE",
"659 198 CURVE",
"580 198 LINE",
"546 117 OFFCURVE",
"474 65 OFFCURVE",
"365 65 CURVE SMOOTH",
"204 65 OFFCURVE",
"114 182 OFFCURVE",
"114 331 CURVE SMOOTH",
"114 480 OFFCURVE",
"204 597 OFFCURVE",
"365 597 CURVE SMOOTH",
"474 597 OFFCURVE",
"546 545 OFFCURVE",
"580 464 CURVE",
"659 464 LINE",
"617 585 OFFCURVE",
"509 670 OFFCURVE",
"359 670 CURVE SMOOTH",
"160 670 OFFCURVE",
"39 519 OFFCURVE",
"39 331 CURVE SMOOTH",
"39 152 OFFCURVE",
"148 6 OFFCURVE",
"331 -7 CURVE",
"281 -85 LINE",
"302 -102 LINE",
"312 -99 OFFCURVE",
"325 -97 OFFCURVE",
"337 -97 CURVE SMOOTH",
"365 -97 OFFCURVE",
"390 -110 OFFCURVE",
"390 -130 CURVE SMOOTH",
"390 -157 OFFCURVE",
"365 -166 OFFCURVE",
"335 -166 CURVE SMOOTH",
"299 -166 OFFCURVE",
"271 -151 OFFCURVE",
"250 -136 CURVE",
"231 -169 LINE",
"256 -190 OFFCURVE",
"298 -210 OFFCURVE",
"349 -210 CURVE SMOOTH"
);
}
);
};
hints = (
{
place = "{39, 75}";
type = Stem;
},
{
place = "{390, 73}";
type = Stem;
},
{
horizontal = 1;
place = "{-210, 44}";
type = Stem;
},
{
horizontal = 1;
place = "{-97, 45}";
type = Stem;
},
{
horizontal = 1;
place = "{-7, 72}";
type = Stem;
},
{
horizontal = 1;
place = "{597, 73}";
type = Stem;
},
{
place = "{39, 75}";
type = Stem;
},
{
horizontal = 1;
place = "{-8, 73}";
type = Stem;
},
{
horizontal = 1;
place = "{597, 73}";
type = Stem;
},
{
place = "{389, 73}";
type = Stem;
},
{
horizontal = 1;
place = "{-210, 44}";
type = Stem;
},
{
horizontal = 1;
place = "{-97, 45}";
type = Stem;
}
);
layerId = UUID0;
paths = (
{
closed = 1;
nodes = (
"204 65 OFFCURVE",
"114 182 OFFCURVE",
"114 331 CURVE SMOOTH",
"114 480 OFFCURVE",
"204 597 OFFCURVE",
"365 597 CURVE SMOOTH",
"474 597 OFFCURVE",
"546 545 OFFCURVE",
"580 464 CURVE",
"659 464 LINE",
"617 585 OFFCURVE",
"509 670 OFFCURVE",
"359 670 CURVE SMOOTH",
"160 670 OFFCURVE",
"39 519 OFFCURVE",
"39 331 CURVE SMOOTH",
"39 153 OFFCURVE",
"147 8 OFFCURVE",
"327 -7 CURVE",
"280 -81 LINE",
"301 -98 LINE",
"311 -95 OFFCURVE",
"324 -93 OFFCURVE",
"336 -93 CURVE SMOOTH",
"364 -93 OFFCURVE",
"389 -106 OFFCURVE",
"389 -126 CURVE SMOOTH",
"389 -153 OFFCURVE",
"364 -162 OFFCURVE",
"334 -162 CURVE SMOOTH",
"298 -162 OFFCURVE",
"270 -147 OFFCURVE",
"249 -132 CURVE",
"230 -165 LINE",
"255 -186 OFFCURVE",
"297 -206 OFFCURVE",
"348 -206 CURVE SMOOTH",
"409 -206 OFFCURVE",
"462 -181 OFFCURVE",
"462 -125 CURVE SMOOTH",
"462 -77 OFFCURVE",
"420 -48 OFFCURVE",
"370 -48 CURVE SMOOTH",
"363 -48 OFFCURVE",
"354 -49 OFFCURVE",
"348 -50 CURVE",
"372 -8 LINE",
"515 -3 OFFCURVE",
"618 81 OFFCURVE",
"659 198 CURVE",
"580 198 LINE",
"546 117 OFFCURVE",
"474 65 OFFCURVE",
"365 65 CURVE SMOOTH"
);
}
);
width = 690;
}
);
leftKerningGroup = O;
rightKerningGroup = C;
unicode = 00C7;
},
{
glyphname = Eth;
lastChange = "2020-06-09 13:37:11 +0000";
layers = (
{
background = {
paths = (
{
closed = 1;
nodes = (
"368 0 LINE SMOOTH",
"526 0 OFFCURVE",
"672 124 OFFCURVE",
"672 331 CURVE SMOOTH",
"672 538 OFFCURVE",
"526 662 OFFCURVE",
"368 662 CURVE SMOOTH",
"89 662 LINE",
"89 363 LINE",
"7 363 LINE",
"7 298 LINE",
"89 298 LINE",
"89 0 LINE"
);
},
{
closed = 1;
nodes = (
"164 298 LINE",
"355 298 LINE",
"355 363 LINE",
"164 363 LINE",
"164 591 LINE",
"365 591 LINE SMOOTH",
"506 591 OFFCURVE",
"597 473 OFFCURVE",
"597 331 CURVE SMOOTH",
"597 189 OFFCURVE",
"506 71 OFFCURVE",
"365 71 CURVE SMOOTH",
"164 71 LINE"
);
}
);
};
components = (
{
name = D;
}
);
hints = (
{
place = "{89, 75}";
type = Stem;
},
{
place = "{597, 75}";
type = Stem;
},
{
horizontal = 1;
place = "{0, 71}";
type = Stem;
},
{
horizontal = 1;
place = "{298, 65}";
type = Stem;
},
{
horizontal = 1;
place = "{591, 71}";
type = Stem;
}
);
layerId = UUID0;
paths = (
{
closed = 1;
nodes = (
"7 363 LINE",
"7 298 LINE",
"355 298 LINE",
"355 363 LINE"
);
}
);
width = 703;
}
);
leftKerningGroup = I;
rightKerningGroup = O;
rightMetricsKey = O;
unicode = 00D0;
},
{
glyphname = multiply;
lastChange = "2020-06-01 08:04:26 +0000";
layers = (
{
hints = (
{
place = "{72, 406}";
type = Stem;
},
{
horizontal = 1;
place = "{54, 406}";
type = Stem;
}
);
layerId = UUID0;
paths = (
{
closed = 1;
nodes = (
"275 208 LINE",
"429 54 LINE",
"478 104 LINE",
"325 257 LINE",
"478 411 LINE",
"429 460 LINE",
"275 307 LINE",
"122 460 LINE",
"72 411 LINE",
"226 257 LINE",
"72 104 LINE",
"122 54 LINE"
);
}
);
width = 550;
}
);
unicode = 00D7;
},
{
glyphname = Oslash;
lastChange = "2020-06-01 08:04:26 +0000";
layers = (
{
anchors = (
{
name = bottom;
position = "{375, 0}";
},
{
name = top;
position = "{375, 662}";
}
);
background = {
paths = (
{
closed = 1;
nodes = (
"166 61 LINE",
"222 18 OFFCURVE",
"293 -8 OFFCURVE",
"375 -8 CURVE SMOOTH",
"576 -8 OFFCURVE",
"711 143 OFFCURVE",
"711 331 CURVE SMOOTH",
"711 427 OFFCURVE",
"677 513 OFFCURVE",
"616 574 CURVE",
"684 652 LINE",
"652 680 LINE",
"585 602 LINE",
"529 645 OFFCURVE",
"458 670 OFFCURVE",
"375 670 CURVE SMOOTH",
"174 670 OFFCURVE",
"39 519 OFFCURVE",
"39 331 CURVE SMOOTH",
"39 236 OFFCURVE",
"74 150 OFFCURVE",
"135 88 CURVE",
"67 11 LINE",
"98 -17 LINE"
);
},
{
closed = 1;
nodes = (
"139 191 OFFCURVE",
"114 257 OFFCURVE",
"114 331 CURVE SMOOTH",
"114 480 OFFCURVE",
"214 597 OFFCURVE",
"375 597 CURVE SMOOTH",
"440 597 OFFCURVE",
"494 579 OFFCURVE",
"536 547 CURVE",
"183 144 LINE"
);
},
{
closed = 1;
nodes = (
"311 65 OFFCURVE",
"257 84 OFFCURVE",
"214 116 CURVE",
"568 519 LINE",
"612 471 OFFCURVE",
"636 405 OFFCURVE",
"636 331 CURVE SMOOTH",
"636 182 OFFCURVE",
"536 65 OFFCURVE",
"375 65 CURVE SMOOTH"
);
}
);
};
components = (
{
name = O;
}
);
hints = (
{
place = "{39, 75}";
type = Stem;
},
{
place = "{636, 75}";
type = Stem;
},
{
horizontal = 1;
place = "{-8, 73}";
type = Stem;
},
{
horizontal = 1;
place = "{670, -20}";
target = down;
type = TopGhost;
},
{
horizontal = 1;
place = "{-8, 21}";
target = up;
type = BottomGhost;
},
{
horizontal = 1;
place = "{597, 73}";
type = Stem;
}
);
layerId = UUID0;
paths = (
{
closed = 1;
nodes = (
"196 -40 LINE",
"622 700 LINE",
"548 700 LINE",
"122 -40 LINE"
);
}
);
width = 750;
},
{
anchors = (
{
name = bottom;
position = "{375, 0}";
},
{
name = top;
position = "{375, 662}";
}
);
associatedMasterId = UUID0;
background = {
paths = (
{
closed = 1;
nodes = (
"166 61 LINE",
"222 18 OFFCURVE",
"293 -8 OFFCURVE",
"375 -8 CURVE SMOOTH",
"576 -8 OFFCURVE",
"711 143 OFFCURVE",
"711 331 CURVE SMOOTH",
"711 427 OFFCURVE",
"677 513 OFFCURVE",
"616 574 CURVE",
"684 652 LINE",
"652 680 LINE",
"585 602 LINE",
"529 645 OFFCURVE",
"458 670 OFFCURVE",
"375 670 CURVE SMOOTH",
"174 670 OFFCURVE",
"39 519 OFFCURVE",
"39 331 CURVE SMOOTH",
"39 236 OFFCURVE",
"74 150 OFFCURVE",
"135 88 CURVE",
"67 11 LINE",
"98 -17 LINE"
);
},
{
closed = 1;
nodes = (
"139 191 OFFCURVE",
"114 257 OFFCURVE",
"114 331 CURVE SMOOTH",
"114 480 OFFCURVE",
"214 597 OFFCURVE",
"375 597 CURVE SMOOTH",
"440 597 OFFCURVE",
"494 579 OFFCURVE",
"536 547 CURVE",
"183 144 LINE"
);
},
{
closed = 1;
nodes = (
"311 65 OFFCURVE",
"257 84 OFFCURVE",
"214 116 CURVE",
"568 519 LINE",
"612 471 OFFCURVE",
"636 405 OFFCURVE",
"636 331 CURVE SMOOTH",
"636 182 OFFCURVE",
"536 65 OFFCURVE",
"375 65 CURVE SMOOTH"
);
}
);
};
components = (
{
name = O;
}
);
hints = (
{
place = "{39, 75}";
type = Stem;
},
{
place = "{636, 75}";
type = Stem;
},
{
horizontal = 1;
place = "{-8, 73}";
type = Stem;
},
{
horizontal = 1;
place = "{670, -20}";
target = down;
type = TopGhost;
},
{
horizontal = 1;
place = "{-8, 21}";
target = up;
type = BottomGhost;
},
{
horizontal = 1;
place = "{597, 73}";
type = Stem;
}
);
layerId = "91C754C4-DB8E-4547-856E-55DFAF617438";
name = "May 28 20, 14:51";
paths = (
{
closed = 1;
nodes = (
"692 644 LINE",
"640 690 LINE",
"56 18 LINE",
"108 -28 LINE"
);
}
);
width = 750;
}
);
leftKerningGroup = O;
leftMetricsKey = O;
rightKerningGroup = O;
rightMetricsKey = O;
unicode = 00D8;
},
{
glyphname = Thorn;
lastChange = "2020-06-01 08:04:26 +0000";
layers = (
{
hints = (
{
place = "{81, 75}";
type = Stem;
},
{
place = "{532, 75}";
type = Stem;
},
{
horizontal = 1;
place = "{0, 21}";
target = up;
type = BottomGhost;
},
{
horizontal = 1;
place = "{139, 70}";
type = Stem;
},
{
horizontal = 1;
place = "{494, 71}";
type = Stem;
},
{
horizontal = 1;
place = "{494, 168}";
type = Stem;
}
);
layerId = UUID0;
paths = (
{
closed = 1;
nodes = (
"156 0 LINE",
"156 139 LINE",
"379 139 LINE SMOOTH",
"520 139 OFFCURVE",
"607 221 OFFCURVE",
"607 352 CURVE SMOOTH",
"607 482 OFFCURVE",
"520 565 OFFCURVE",
"379 565 CURVE SMOOTH",
"156 565 LINE",
"156 662 LINE",
"81 662 LINE",
"81 0 LINE"
);
},
{
closed = 1;
nodes = (
"156 494 LINE",
"374 494 LINE SMOOTH",
"478 494 OFFCURVE",
"532 440 OFFCURVE",
"532 352 CURVE SMOOTH",
"532 263 OFFCURVE",
"478 209 OFFCURVE",
"374 209 CURVE SMOOTH",
"156 209 LINE"
);
}
);
width = 628;
}
);
leftKerningGroup = I;
rightKerningGroup = P;
rightMetricsKey = P;
unicode = 00DE;
},
{
glyphname = germandbls;
lastChange = "2020-06-01 08:04:26 +0000";
layers = (
{
hints = (
{
place = "{65, 75}";
type = Stem;
},
{
place = "{447, 76}";
type = Stem;
},
{
place = "{414, 75}";
type = Stem;
},
{
horizontal = 1;
place = "{0, 66}";
type = Stem;
},
{
horizontal = 1;
place = "{304, 55}";
type = Stem;
},
{
horizontal = 1;
place = "{603, 67}";
type = Stem;
}
);
layerId = UUID0;
paths = (
{
closed = 1;
nodes = (
"140 0 LINE",
"140 510 LINE SMOOTH",
"140 613 OFFCURVE",
"198 641 OFFCURVE",
"278 641 CURVE SMOOTH",
"370 641 OFFCURVE",
"414 592 OFFCURVE",
"414 509 CURVE SMOOTH",
"414 427 OFFCURVE",
"343 379 OFFCURVE",
"253 379 CURVE",
"253 324 LINE",
"377 324 OFFCURVE",
"447 268 OFFCURVE",
"447 186 CURVE SMOOTH",
"447 103 OFFCURVE",
"385 66 OFFCURVE",
"294 66 CURVE SMOOTH",
"205 66 LINE",
"205 0 LINE",
"293 0 LINE SMOOTH",
"435 0 OFFCURVE",
"523 63 OFFCURVE",
"523 175 CURVE SMOOTH",
"523 294 OFFCURVE",
"439 343 OFFCURVE",
"381 357 CURVE",
"431 374 OFFCURVE",
"489 415 OFFCURVE",
"489 518 CURVE SMOOTH",
"489 654 OFFCURVE",
"389 708 OFFCURVE",
"279 708 CURVE SMOOTH",
"145 708 OFFCURVE",
"65 635 OFFCURVE",
"65 514 CURVE SMOOTH",
"65 0 LINE"
);
}
);
width = 557;
}
);
leftKerningGroup = I;
rightKerningGroup = S;
unicode = 00DF;
},
{
glyphname = ae;
lastChange = "2020-06-01 08:04:26 +0000";
layers = (
{
anchors = (
{
name = bottom;
position = "{489, 0}";
},
{
name = top;
position = "{489, 500}";
}
);
hints = (
{
place = "{34, 75}";
type = Stem;
},
{
place = "{455, 75}";
type = Stem;
},
{
place = "{459, 72}";
type = Stem;
},
{
horizontal = 1;
place = "{-8, 68}";
type = Stem;
},
{
horizontal = 1;
place = "{220, 70}";
type = Stem;
},
{
horizontal = 1;
place = "{440, 68}";
type = Stem;
},
{
horizontal = 1;
place = "{500, -20}";
target = down;
type = TopGhost;
},
{
horizontal = 1;
place = "{0, 21}";
target = up;
type = BottomGhost;
}
);
layerId = UUID0;
paths = (
{
closed = 1;
nodes = (
"359 -8 OFFCURVE",
"418 26 OFFCURVE",
"455 80 CURVE",
"455 0 LINE",
"530 0 LINE",
"530 71 LINE",
"566 22 OFFCURVE",
"623 -8 OFFCURVE",
"702 -8 CURVE SMOOTH",
"819 -8 OFFCURVE",
"905 60 OFFCURVE",
"937 157 CURVE",
"857 157 LINE",
"831 100 OFFCURVE",
"782 60 OFFCURVE",
"708 60 CURVE SMOOTH",
"605 60 OFFCURVE",
"542 131 OFFCURVE",
"531 220 CURVE",
"950 220 LINE",
"950 250 LINE SMOOTH",
"950 393 OFFCURVE",
"855 508 OFFCURVE",
"702 508 CURVE SMOOTH",
"623 508 OFFCURVE",
"566 477 OFFCURVE",
"530 428 CURVE",
"530 500 LINE",
"455 500 LINE",
"455 419 LINE",
"418 473 OFFCURVE",
"359 508 OFFCURVE",
"276 508 CURVE SMOOTH",
"130 508 OFFCURVE",
"34 393 OFFCURVE",
"34 250 CURVE SMOOTH",
"34 107 OFFCURVE",
"130 -8 OFFCURVE",
"276 -8 CURVE SMOOTH"
);
},
{
closed = 1;
nodes = (
"175 60 OFFCURVE",
"109 147 OFFCURVE",
"109 250 CURVE SMOOTH",
"109 353 OFFCURVE",
"175 440 OFFCURVE",
"286 440 CURVE SMOOTH",
"397 440 OFFCURVE",
"459 353 OFFCURVE",
"459 250 CURVE SMOOTH",
"459 147 OFFCURVE",
"397 60 OFFCURVE",
"286 60 CURVE SMOOTH"
);
},
{
closed = 1;
nodes = (
"546 375 OFFCURVE",
"606 440 OFFCURVE",
"702 440 CURVE SMOOTH",
"798 440 OFFCURVE",
"858 375 OFFCURVE",
"872 290 CURVE",
"532 290 LINE"
);
}
);
width = 977;
}
);
leftKerningGroup = o;
rightKerningGroup = e;
unicode = 00E6;
},
{
glyphname = ccedilla;
lastChange = "2020-06-17 16:43:44 +0000";
layers = (
{
anchors = (
{
name = bottom;
position = "{272, 0}";
},
{
name = top;
position = "{272, 500}";
}
);
hints = (
{
place = "{34, 75}";
type = Stem;
},
{
place = "{314, 73}";
type = Stem;
},
{
horizontal = 1;
place = "{-210, 44}";
type = Stem;
},
{
horizontal = 1;
place = "{-97, 45}";
type = Stem;
},
{
horizontal = 1;
place = "{-6, 66}";
type = Stem;
},
{
horizontal = 1;
place = "{440, 68}";
type = Stem;
},
{
place = "{34, 75}";
type = Stem;
},
{
horizontal = 1;
place = "{-8, 68}";
type = Stem;
},
{
horizontal = 1;
place = "{440, 68}";
type = Stem;
},
{
place = "{316, 73}";
type = Stem;
},
{
horizontal = 1;
place = "{-210, 44}";
type = Stem;
},
{
horizontal = 1;
place = "{-97, 45}";
type = Stem;
}
);
layerId = UUID0;
paths = (
{
closed = 1;
nodes = (
"179 60 OFFCURVE",
"109 147 OFFCURVE",
"109 250 CURVE SMOOTH",
"109 353 OFFCURVE",
"179 440 OFFCURVE",
"290 440 CURVE SMOOTH",
"361 440 OFFCURVE",
"412 400 OFFCURVE",
"435 343 CURVE",
"516 343 LINE",
"487 440 OFFCURVE",
"398 508 OFFCURVE",
"280 508 CURVE SMOOTH",
"130 508 OFFCURVE",
"34 393 OFFCURVE",
"34 250 CURVE SMOOTH",
"34 115 OFFCURVE",
"119 5 OFFCURVE",
"254 -7 CURVE",
"207 -81 LINE",
"228 -98 LINE",
"238 -95 OFFCURVE",
"251 -93 OFFCURVE",
"263 -93 CURVE SMOOTH",
"291 -93 OFFCURVE",
"316 -106 OFFCURVE",
"316 -126 CURVE SMOOTH",
"316 -153 OFFCURVE",
"291 -162 OFFCURVE",
"261 -162 CURVE SMOOTH",
"225 -162 OFFCURVE",
"197 -147 OFFCURVE",
"176 -132 CURVE",
"157 -165 LINE",
"182 -186 OFFCURVE",
"224 -206 OFFCURVE",
"275 -206 CURVE SMOOTH",
"336 -206 OFFCURVE",
"389 -181 OFFCURVE",
"389 -125 CURVE SMOOTH",
"389 -77 OFFCURVE",
"347 -48 OFFCURVE",
"297 -48 CURVE SMOOTH",
"290 -48 OFFCURVE",
"281 -49 OFFCURVE",
"275 -50 CURVE",
"299 -7 LINE",
"408 0 OFFCURVE",
"489 65 OFFCURVE",
"516 157 CURVE",
"435 157 LINE",
"412 100 OFFCURVE",
"361 60 OFFCURVE",
"290 60 CURVE SMOOTH"
);
}
);
width = 544;
}
);
leftKerningGroup = o;
rightKerningGroup = c;
unicode = 00E7;
},
{
glyphname = eth;
lastChange = "2020-06-09 13:43:41 +0000";
layers = (
{
hints = (
{
place = "{34, 75}";
type = Stem;
},
{
place = "{455, 75}";
type = Stem;
},
{
horizontal = 1;
place = "{-8, 67}";
type = Stem;
},
{
horizontal = 1;
place = "{447, 67}";
type = Stem;
},
{
horizontal = 1;
place = "{668, -20}";
target = down;
type = TopGhost;
}
);
layerId = UUID0;
paths = (
{
closed = 1;
nodes = (
"440 -8 OFFCURVE",
"530 128 OFFCURVE",
"530 269 CURVE SMOOTH",
"530 441 OFFCURVE",
"449 540 OFFCURVE",
"342 625 CURVE",
"407 668 LINE",
"375 706 LINE",
"300 656 LINE",
"267 678 OFFCURVE",
"232 698 OFFCURVE",
"196 715 CURVE",
"169 644 LINE",
"191 634 OFFCURVE",
"212 623 OFFCURVE",
"233 611 CURVE",
"190 583 LINE",
"222 545 LINE",
"278 582 LINE",
"323 551 OFFCURVE",
"378 516 OFFCURVE",
"409 455 CURVE",
"375 492 OFFCURVE",
"326 514 OFFCURVE",
"263 514 CURVE SMOOTH",
"122 514 OFFCURVE",
"34 397 OFFCURVE",
"34 253 CURVE SMOOTH",
"34 112 OFFCURVE",
"121 -8 OFFCURVE",
"286 -8 CURVE SMOOTH"
);
},
{
closed = 1;
nodes = (
"171 59 OFFCURVE",
"109 151 OFFCURVE",
"109 253 CURVE SMOOTH",
"109 358 OFFCURVE",
"167 447 OFFCURVE",
"274 447 CURVE SMOOTH",
"385 447 OFFCURVE",
"455 355 OFFCURVE",
"455 253 CURVE SMOOTH",
"455 151 OFFCURVE",
"393 59 OFFCURVE",
"282 59 CURVE SMOOTH"
);
}
);
width = 563;
}
);
leftKerningGroup = o;
rightKerningGroup = o;
unicode = 00F0;
},
{
glyphname = divide;
lastChange = "2020-06-01 08:04:27 +0000";
layers = (
{
hints = (
{
place = "{231, 88}";
type = Stem;
},
{
horizontal = 1;
place = "{17, 93}";
type = Stem;
},
{
horizontal = 1;
place = "{200, 69}";
type = Stem;
},
{
horizontal = 1;
place = "{359, 93}";
type = Stem;
}
);
layerId = UUID0;
paths = (
{
closed = 1;
nodes = (
"319 359 LINE",
"319 452 LINE",
"231 452 LINE",
"231 359 LINE"
);
},
{
closed = 1;
nodes = (
"512 200 LINE",
"512 269 LINE",
"38 269 LINE",
"38 200 LINE"
);
},
{
closed = 1;
nodes = (
"319 17 LINE",
"319 110 LINE",
"231 110 LINE",
"231 17 LINE"
);
}
);
width = 550;
}
);
unicode = 00F7;
},
{
glyphname = oslash;
lastChange = "2020-06-01 08:04:27 +0000";
layers = (
{
anchors = (
{
name = top;
position = "{312, 500}";
}
);
background = {
paths = (
{
closed = 1;
nodes = (
"492 544 LINE",
"44 29 LINE",
"96 -17 LINE",
"532 484 LINE"
);
}
);
};
components = (
{
name = o;
}
);
hints = (
{
place = "{34, 75}";
type = Stem;
},
{
place = "{455, 75}";
type = Stem;
},
{
horizontal = 1;
place = "{-8, 68}";
type = Stem;
},
{
horizontal = 1;
place = "{440, 68}";
type = Stem;
}
);
layerId = UUID0;
paths = (
{
closed = 1;
nodes = (
"170 -16 LINE",
"481 525 LINE",
"407 525 LINE",
"96 -16 LINE"
);
}
);
width = 564;
},
{
anchors = (
{
name = top;
position = "{282, 500}";
}
);
associatedMasterId = UUID0;
background = {
paths = (
{
closed = 1;
nodes = (
"492 544 LINE",
"44 29 LINE",
"96 -17 LINE",
"532 484 LINE"
);
}
);
};
components = (
{
name = o;
}
);
hints = (
{
place = "{34, 75}";
type = Stem;
},
{
place = "{455, 75}";
type = Stem;
},
{
horizontal = 1;
place = "{-8, 68}";
type = Stem;
},
{
horizontal = 1;
place = "{440, 68}";
type = Stem;
}
);
layerId = "068D1C05-8420-4C2B-88FF-E6DDAC46A502";
name = "May 28 20, 12:46";
paths = (
{
closed = 1;
nodes = (
"519 493 LINE",
"493 516 LINE",
"46 6 LINE",
"72 -17 LINE"
);
},
{
closed = 1;
nodes = (
"468 516 LINE",
"44 29 LINE",
"96 -17 LINE",
"520 470 LINE"
);
}
);
width = 564;
},
{
anchors = (
{
name = top;
position = "{282, 500}";
}
);
associatedMasterId = UUID0;
background = {
paths = (
{
closed = 1;
nodes = (
"492 544 LINE",
"44 29 LINE",
"96 -17 LINE",
"532 484 LINE"
);
}
);
};
components = (
{
name = o;
}
);
hints = (
{
place = "{34, 75}";
type = Stem;
},
{
place = "{455, 75}";
type = Stem;
},
{
horizontal = 1;
place = "{-8, 68}";
type = Stem;
},
{
horizontal = 1;
place = "{440, 68}";
type = Stem;
}
);
layerId = "DF26A780-3308-4AD9-A06B-7EBFD48EF95C";
name = "May 28 20, 15:49";
paths = (
{
closed = 1;
nodes = (
"468 516 LINE",
"44 29 LINE",
"96 -17 LINE",
"520 470 LINE"
);
}
);
width = 564;
}
);
leftKerningGroup = o;
leftMetricsKey = o;
rightKerningGroup = o;
rightMetricsKey = o;
unicode = 00F8;
},
{
glyphname = thorn;
lastChange = "2020-06-01 08:04:27 +0000";
layers = (
{
hints = (
{
place = "{65, 75}";
type = Stem;
},
{
place = "{486, 75}";
type = Stem;
},
{
horizontal = 1;
place = "{-198, 21}";
target = up;
type = BottomGhost;
},
{
horizontal = 1;
place = "{-8, 68}";
type = Stem;
},
{
horizontal = 1;
place = "{440, 68}";
type = Stem;
}
);
layerId = UUID0;
paths = (
{
closed = 1;
nodes = (
"140 -198 LINE",
"140 80 LINE",
"177 26 OFFCURVE",
"236 -8 OFFCURVE",
"319 -8 CURVE SMOOTH",
"465 -8 OFFCURVE",
"561 107 OFFCURVE",
"561 250 CURVE SMOOTH",
"561 393 OFFCURVE",
"465 508 OFFCURVE",
"319 508 CURVE SMOOTH",
"236 508 OFFCURVE",
"177 473 OFFCURVE",
"140 419 CURVE",
"140 700 LINE",
"65 700 LINE",
"65 -198 LINE"
);
},
{
closed = 1;
nodes = (
"198 60 OFFCURVE",
"136 147 OFFCURVE",
"136 250 CURVE SMOOTH",
"136 353 OFFCURVE",
"198 440 OFFCURVE",
"309 440 CURVE SMOOTH",
"420 440 OFFCURVE",
"486 353 OFFCURVE",
"486 250 CURVE SMOOTH",
"486 147 OFFCURVE",
"420 60 OFFCURVE",
"309 60 CURVE SMOOTH"
);
}
);
width = 594;
}
);
leftKerningGroup = h;
rightKerningGroup = o;
unicode = 00FE;
},
{
glyphname = OE;
lastChange = "2020-06-01 08:04:27 +0000";
layers = (
{
hints = (
{
place = "{39, 75}";
type = Stem;
},
{
place = "{612, 75}";
type = Stem;
},
{
horizontal = 1;
place = "{0, 72}";
type = Stem;
},
{
horizontal = 1;
place = "{294, 73}";
type = Stem;
},
{
horizontal = 1;
place = "{590, 72}";
type = Stem;
},
{
horizontal = 1;
place = "{-8, 73}";
type = Stem;
},
{
horizontal = 1;
place = "{597, 73}";
type = Stem;
}
);
layerId = UUID0;
paths = (
{
closed = 1;
nodes = (
"475 -8 OFFCURVE",
"558 37 OFFCURVE",
"612 108 CURVE",
"612 0 LINE",
"1104 0 LINE",
"1104 72 LINE",
"687 72 LINE",
"687 294 LINE",
"1060 294 LINE",
"1060 367 LINE",
"687 367 LINE",
"687 590 LINE",
"1104 590 LINE",
"1104 662 LINE",
"612 662 LINE",
"612 553 LINE",
"558 625 OFFCURVE",
"475 670 OFFCURVE",
"365 670 CURVE SMOOTH",
"164 670 OFFCURVE",
"39 519 OFFCURVE",
"39 331 CURVE SMOOTH",
"39 143 OFFCURVE",
"164 -8 OFFCURVE",
"365 -8 CURVE SMOOTH"
);
},
{
closed = 1;
nodes = (
"204 65 OFFCURVE",
"114 182 OFFCURVE",
"114 331 CURVE SMOOTH",
"114 480 OFFCURVE",
"204 597 OFFCURVE",
"365 597 CURVE SMOOTH",
"526 597 OFFCURVE",
"616 480 OFFCURVE",
"616 331 CURVE SMOOTH",
"616 182 OFFCURVE",
"526 65 OFFCURVE",
"365 65 CURVE SMOOTH"
);
}
);
width = 1144;
}
);
leftKerningGroup = O;
leftMetricsKey = O;
rightKerningGroup = E;
rightMetricsKey = E;
unicode = 0152;
},
{
glyphname = oe;
lastChange = "2020-06-01 08:04:27 +0000";
layers = (
{
hints = (
{
place = "{34, 75}";
type = Stem;
},
{
place = "{455, 71}";
type = Stem;
},
{
horizontal = 1;
place = "{-8, 68}";
type = Stem;
},
{
horizontal = 1;
place = "{220, 70}";
type = Stem;
},
{
horizontal = 1;
place = "{440, 68}";
type = Stem;
}
);
layerId = UUID0;
paths = (
{
closed = 1;
nodes = (
"381 -8 OFFCURVE",
"452 40 OFFCURVE",
"489 113 CURVE",
"527 40 OFFCURVE",
"597 -8 OFFCURVE",
"697 -8 CURVE SMOOTH",
"814 -8 OFFCURVE",
"900 60 OFFCURVE",
"932 157 CURVE",
"852 157 LINE",
"826 100 OFFCURVE",
"777 60 OFFCURVE",
"703 60 CURVE SMOOTH",
"600 60 OFFCURVE",
"537 131 OFFCURVE",
"526 220 CURVE",
"945 220 LINE",
"945 250 LINE SMOOTH",
"945 393 OFFCURVE",
"850 508 OFFCURVE",
"697 508 CURVE SMOOTH",
"597 508 OFFCURVE",
"527 459 OFFCURVE",
"489 386 CURVE",
"452 459 OFFCURVE",
"381 508 OFFCURVE",
"282 508 CURVE SMOOTH",
"129 508 OFFCURVE",
"34 393 OFFCURVE",
"34 250 CURVE SMOOTH",
"34 107 OFFCURVE",
"129 -8 OFFCURVE",
"282 -8 CURVE SMOOTH"
);
},
{
closed = 1;
nodes = (
"171 60 OFFCURVE",
"109 147 OFFCURVE",
"109 250 CURVE SMOOTH",
"109 353 OFFCURVE",
"171 440 OFFCURVE",
"282 440 CURVE SMOOTH",
"393 440 OFFCURVE",
"455 353 OFFCURVE",
"455 250 CURVE SMOOTH",
"455 147 OFFCURVE",
"393 60 OFFCURVE",
"282 60 CURVE SMOOTH"
);
},
{
closed = 1;
nodes = (
"541 375 OFFCURVE",
"601 440 OFFCURVE",
"697 440 CURVE SMOOTH",
"793 440 OFFCURVE",
"853 375 OFFCURVE",
"867 290 CURVE",
"527 290 LINE"
);
}
);
width = 972;
}
);
leftKerningGroup = o;
rightKerningGroup = e;
unicode = 0153;
},
{
color = 3;
glyphname = florin;
lastChange = "2020-06-08 16:27:53 +0000";
layers = (
{
components = (
{
name = f;
}
);
hints = (
{
place = "{-73, 437}";
type = Stem;
},
{
horizontal = 1;
place = "{367, 49}";
type = Stem;
},
{
horizontal = 1;
place = "{637, 71}";
type = Stem;
}
);
layerId = UUID0;
paths = (
{
closed = 1;
nodes = (
"154 -206 OFFCURVE",
"174 -127 OFFCURVE",
"174 -62 CURVE SMOOTH",
"174 119 LINE",
"99 119 LINE",
"99 -62 LINE SMOOTH",
"99 -95 OFFCURVE",
"95 -139 OFFCURVE",
"23 -139 CURVE SMOOTH",
"15 -139 OFFCURVE",
"8 -138 OFFCURVE",
"-1 -136 CURVE",
"-1 -204 LINE",
"10 -205 OFFCURVE",
"19 -206 OFFCURVE",
"29 -206 CURVE SMOOTH"
);
}
);
width = 307;
},
{
associatedMasterId = UUID0;
hints = (
{
place = "{-73, 437}";
type = Stem;
},
{
horizontal = 1;
place = "{367, 49}";
type = Stem;
},
{
horizontal = 1;
place = "{637, 71}";
type = Stem;
}
);
layerId = "98869ECF-D15D-4B03-A729-462A4E25E2E8";
name = "Jun 8 20, 18:27";
paths = (
{
closed = 1;
nodes = (
"33 -144 OFFCURVE",
"105 -96 OFFCURVE",
"123 9 CURVE SMOOTH",
"188 367 LINE",
"313 367 LINE",
"313 416 LINE",
"197 416 LINE",
"218 538 LINE SMOOTH",
"231 613 OFFCURVE",
"273 637 OFFCURVE",
"342 637 CURVE SMOOTH",
"352 637 LINE",
"364 708 LINE",
"358 708 LINE SMOOTH",
"244 708 OFFCURVE",
"165 664 OFFCURVE",
"144 544 CURVE SMOOTH",
"122 416 LINE",
"27 416 LINE",
"27 367 LINE",
"113 367 LINE",
"47 3 LINE SMOOTH",
"36 -62 OFFCURVE",
"-10 -86 OFFCURVE",
"-62 -90 CURVE",
"-73 -149 LINE"
);
}
);
width = 332;
}
);
leftKerningGroup = f;
rightKerningGroup = f;
unicode = 0192;
},
{
glyphname = circumflex;
lastChange = "2020-06-01 08:04:27 +0000";
layers = (
{
hints = (
{
place = "{49, 282}";
type = Stem;
},
{
horizontal = 1;
place = "{570, 105}";
type = Stem;
}
);
layerId = UUID0;
paths = (
{
closed = 1;
nodes = (
"131 570 LINE",
"190 624 LINE",
"249 570 LINE",
"331 570 LINE",
"234 675 LINE",
"147 675 LINE",
"49 570 LINE"
);
}
);
width = 384;
}
);
unicode = 02C6;
},
{
glyphname = caron;
lastChange = "2020-06-01 08:04:27 +0000";
layers = (
{
hints = (
{
place = "{49, 282}";
type = Stem;
},
{
horizontal = 1;
place = "{570, 105}";
type = Stem;
}
);
layerId = UUID0;
paths = (
{
closed = 1;
nodes = (
"234 570 LINE",
"331 675 LINE",
"249 675 LINE",
"190 621 LINE",
"131 675 LINE",
"49 675 LINE",
"147 570 LINE"
);
}
);
width = 381;
}
);
unicode = 02C7;
},
{
glyphname = breve;
lastChange = "2020-06-01 08:04:27 +0000";
layers = (
{
hints = (
{
place = "{320, 24}";
type = Stem;
},
{
horizontal = 1;
place = "{567, 59}";
type = Stem;
}
);
layerId = UUID0;
paths = (
{
closed = 1;
nodes = (
"291 567 OFFCURVE",
"344 610 OFFCURVE",
"344 662 CURVE SMOOTH",
"344 673 OFFCURVE",
"342 682 OFFCURVE",
"338 691 CURVE",
"320 691 LINE",
"316 653 OFFCURVE",
"275 626 OFFCURVE",
"226 626 CURVE SMOOTH",
"175 626 OFFCURVE",
"135 653 OFFCURVE",
"131 691 CURVE",
"113 691 LINE",
"110 682 OFFCURVE",
"107 673 OFFCURVE",
"107 662 CURVE SMOOTH",
"107 610 OFFCURVE",
"160 567 OFFCURVE",
"226 567 CURVE SMOOTH"
);
}
);
width = 465;
}
);
unicode = 02D8;
},
{
glyphname = dotaccent;
lastChange = "2020-06-01 08:04:27 +0000";
layers = (
{
hints = (
{
place = "{74, 89}";
type = Stem;
},
{
horizontal = 1;
place = "{579, 83}";
type = Stem;
}
);
layerId = UUID0;
paths = (
{
closed = 1;
nodes = (
"163 579 LINE",
"163 662 LINE",
"74 662 LINE",
"74 579 LINE"
);
}
);
width = 235;
}
);
unicode = 02D9;
},
{
glyphname = ring;
lastChange = "2020-06-01 08:04:27 +0000";
layers = (
{
hints = (
{
place = "{74, 46}";
type = Stem;
},
{
place = "{208, 46}";
type = Stem;
},
{
horizontal = 1;
place = "{556, 45}";
type = Stem;
},
{
horizontal = 1;
place = "{690, 45}";
type = Stem;
}
);
layerId = UUID0;
paths = (
{
closed = 1;
nodes = (
"214 556 OFFCURVE",
"254 596 OFFCURVE",
"254 645 CURVE SMOOTH",
"254 695 OFFCURVE",
"214 735 OFFCURVE",
"163 735 CURVE SMOOTH",
"114 735 OFFCURVE",
"74 695 OFFCURVE",
"74 645 CURVE SMOOTH",
"74 596 OFFCURVE",
"114 556 OFFCURVE",
"163 556 CURVE SMOOTH"
);
},
{
closed = 1;
nodes = (
"140 601 OFFCURVE",
"120 621 OFFCURVE",
"120 645 CURVE SMOOTH",
"120 670 OFFCURVE",
"140 690 OFFCURVE",
"163 690 CURVE SMOOTH",
"188 690 OFFCURVE",
"208 670 OFFCURVE",
"208 645 CURVE SMOOTH",
"208 621 OFFCURVE",
"188 601 OFFCURVE",
"163 601 CURVE SMOOTH"
);
}
);
width = 323;
}
);
unicode = 02DA;
},
{
glyphname = ogonek;
lastChange = "2020-06-09 13:04:06 +0000";
layers = (
{
hints = (
{
place = "{57, 77}";
type = Stem;
},
{
horizontal = 1;
place = "{-193, 54}";
type = Stem;
}
);
layerId = UUID0;
paths = (
{
closed = 1;
nodes = (
"57 -176 OFFCURVE",
"105 -204 OFFCURVE",
"154 -204 CURVE SMOOTH",
"182 -204 OFFCURVE",
"210 -196 OFFCURVE",
"230 -180 CURVE",
"230 -141 LINE",
"220 -148 OFFCURVE",
"207 -152 OFFCURVE",
"194 -152 CURVE SMOOTH",
"164 -152 OFFCURVE",
"134 -134 OFFCURVE",
"134 -102 CURVE SMOOTH",
"134 -52 OFFCURVE",
"199 -17 OFFCURVE",
"229 2 CURVE",
"173 2 LINE",
"126 -20 OFFCURVE",
"57 -53 OFFCURVE",
"57 -121 CURVE SMOOTH"
);
}
);
width = 309;
}
);
unicode = 02DB;
},
{
glyphname = tilde;
lastChange = "2020-06-01 08:04:27 +0000";
layers = (
{
hints = (
{
place = "{71, 313}";
type = Stem;
},
{
horizontal = 1;
place = "{609, 59}";
type = Stem;
},
{
horizontal = 1;
place = "{569, 58}";
type = Stem;
}
);
layerId = UUID0;
paths = (
{
closed = 1;
nodes = (
"352 569 OFFCURVE",
"377 618 OFFCURVE",
"384 667 CURVE",
"352 667 LINE",
"347 650 OFFCURVE",
"332 627 OFFCURVE",
"303 627 CURVE SMOOTH",
"257 627 OFFCURVE",
"232 668 OFFCURVE",
"168 668 CURVE SMOOTH",
"103 668 OFFCURVE",
"77 619 OFFCURVE",
"71 570 CURVE",
"102 570 LINE",
"108 587 OFFCURVE",
"121 609 OFFCURVE",
"152 609 CURVE SMOOTH",
"198 609 OFFCURVE",
"223 569 OFFCURVE",
"288 569 CURVE SMOOTH"
);
}
);
width = 463;
}
);
unicode = 02DC;
},
{
glyphname = macron;
lastChange = "2020-06-01 08:04:27 +0000";
layers = (
{
hints = (
{
place = "{57, 264}";
type = Stem;
},
{
horizontal = 1;
place = "{582, 60}";
type = Stem;
}
);
layerId = UUID0;
paths = (
{
closed = 1;
nodes = (
"321 582 LINE",
"321 642 LINE",
"57 642 LINE",
"57 582 LINE"
);
}
);
width = 382;
}
);
unicode = 00AF;
},
{
glyphname = hungarumlaut;
lastChange = "2020-06-01 08:04:27 +0000";
layers = (
{
hints = (
{
place = "{86, 324}";
type = Stem;
},
{
horizontal = 1;
place = "{570, 105}";
type = Stem;
}
);
layerId = UUID0;
paths = (
{
closed = 1;
nodes = (
"147 570 LINE",
"254 675 LINE",
"147 675 LINE",
"86 570 LINE"
);
},
{
closed = 1;
nodes = (
"303 570 LINE",
"410 675 LINE",
"303 675 LINE",
"242 570 LINE"
);
}
);
width = 523;
}
);
unicode = 02DD;
},
{
glyphname = endash;
lastChange = "2020-06-01 08:04:27 +0000";
layers = (
{
hints = (
{
place = "{55, 500}";
type = Stem;
},
{
horizontal = 1;
place = "{262, 67}";
type = Stem;
}
);
layerId = UUID0;
paths = (
{
closed = 1;
nodes = (
"555 262 LINE",
"555 329 LINE",
"55 329 LINE",
"55 262 LINE"
);
}
);
width = 610;
}
);
leftKerningGroup = hyphen;
rightKerningGroup = hyphen;
unicode = 2013;
},
{
glyphname = emdash;
lastChange = "2020-06-01 08:04:27 +0000";
layers = (
{
hints = (
{
place = "{73, 1000}";
type = Stem;
},
{
horizontal = 1;
place = "{262, 67}";
type = Stem;
}
);
layerId = UUID0;
paths = (
{
closed = 1;
nodes = (
"1055 262 LINE",
"1055 329 LINE",
"55 329 LINE",
"55 262 LINE"
);
}
);
width = 1110;
}
);
leftKerningGroup = hyphen;
rightKerningGroup = hyphen;
unicode = 2014;
},
{
glyphname = quoteleft;
lastChange = "2020-06-01 08:04:27 +0000";
layers = (
{
hints = (
{
place = "{36, 156}";
type = Stem;
},
{
horizontal = 1;
place = "{475, 213}";
type = Stem;
}
);
layerId = UUID0;
paths = (
{
closed = 1;
nodes = (
"134 475 LINE",
"192 688 LINE",
"124 688 LINE",
"36 475 LINE"
);
}
);
width = 218;
}
);
leftKerningGroup = quoteleft;
rightKerningGroup = quoteleft;
unicode = 2018;
},
{
glyphname = dagger;
lastChange = "2020-06-01 08:04:27 +0000";
layers = (
{
hints = (
{
place = "{187, 61}";
type = Stem;
},
{
horizontal = 1;
place = "{439, 61}";
type = Stem;
},
{
horizontal = 1;
place = "{662, -20}";
target = down;
type = TopGhost;
}
);
layerId = UUID0;
paths = (
{
closed = 1;
nodes = (
"248 -131 LINE",
"248 439 LINE",
"397 439 LINE",
"397 500 LINE",
"248 500 LINE",
"248 662 LINE",
"187 662 LINE",
"187 500 LINE",
"38 500 LINE",
"38 439 LINE",
"187 439 LINE",
"187 -131 LINE"
);
}
);
width = 435;
}
);
unicode = 2020;
},
{
glyphname = daggerdbl;
lastChange = "2020-06-09 13:45:50 +0000";
layers = (
{
hints = (
{
place = "{197, 61}";
type = Stem;
},
{
horizontal = 1;
place = "{31, 61}";
type = Stem;
},
{
horizontal = 1;
place = "{439, 61}";
type = Stem;
},
{
horizontal = 1;
place = "{662, -20}";
target = down;
type = TopGhost;
}
);
layerId = UUID0;
paths = (
{
closed = 1;
nodes = (
"248 -131 LINE",
"248 31 LINE",
"397 31 LINE",
"397 92 LINE",
"248 92 LINE",
"248 439 LINE",
"397 439 LINE",
"397 500 LINE",
"248 500 LINE",
"248 662 LINE",
"187 662 LINE",
"187 500 LINE",
"38 500 LINE",
"38 439 LINE",
"187 439 LINE",
"187 92 LINE",
"38 92 LINE",
"38 31 LINE",
"187 31 LINE",
"187 -131 LINE"
);
}
);
width = 435;
}
);
leftMetricsKey = dagger;
rightMetricsKey = dagger;
unicode = 2021;
},
{
glyphname = bullet;
lastChange = "2020-06-01 08:04:27 +0000";
layers = (
{
hints = (
{
place = "{36, 268}";
type = Stem;
},
{
horizontal = 1;
place = "{186, 268}";
type = Stem;
}
);
layerId = UUID0;
paths = (
{
closed = 1;
nodes = (
"244 186 OFFCURVE",
"304 246 OFFCURVE",
"304 320 CURVE SMOOTH",
"304 394 OFFCURVE",
"244 454 OFFCURVE",
"170 454 CURVE SMOOTH",
"96 454 OFFCURVE",
"36 394 OFFCURVE",
"36 320 CURVE SMOOTH",
"36 246 OFFCURVE",
"96 186 OFFCURVE",
"170 186 CURVE SMOOTH"
);
}
);
width = 340;
}
);
unicode = 2022;
},
{
glyphname = ellipsis;
lastChange = "2020-06-09 13:46:06 +0000";
layers = (
{
hints = (
{
place = "{53, 97}";
type = Stem;
},
{
place = "{345, 97}";
type = Stem;
},
{
place = "{637, 97}";
type = Stem;
},
{
horizontal = 1;
place = "{0, 102}";
type = Stem;
}
);
layerId = UUID0;
paths = (
{
closed = 1;
nodes = (
"150 0 LINE",
"150 102 LINE",
"53 102 LINE",
"53 0 LINE"
);
},
{
closed = 1;
nodes = (
"442 0 LINE",
"442 102 LINE",
"345 102 LINE",
"345 0 LINE"
);
},
{
closed = 1;
nodes = (
"734 0 LINE",
"734 102 LINE",
"637 102 LINE",
"637 0 LINE"
);
}
);
width = 787;
}
);
leftKerningGroup = period;
leftMetricsKey = period;
rightKerningGroup = period;
rightMetricsKey = period;
unicode = 2026;
},
{
glyphname = perthousand;
lastChange = "2020-06-01 08:04:27 +0000";
layers = (
{
hints = (
{
place = "{43, 61}";
type = Stem;
},
{
place = "{281, 62}";
type = Stem;
},
{
place = "{504, 61}";
type = Stem;
},
{
place = "{742, 62}";
type = Stem;
},
{
place = "{852, 61}";
type = Stem;
},
{
place = "{1090, 62}";
type = Stem;
},
{
horizontal = 1;
place = "{-8, 57}";
type = Stem;
},
{
horizontal = 1;
place = "{313, 58}";
type = Stem;
},
{
horizontal = 1;
place = "{609, 58}";
type = Stem;
},
{
horizontal = 1;
place = "{288, 57}";
type = Stem;
},
{
horizontal = 1;
place = "{670, -20}";
target = down;
type = TopGhost;
}
);
layerId = UUID0;
paths = (
{
closed = 1;
nodes = (
"225 -12 LINE",
"684 670 LINE",
"621 670 LINE",
"162 -12 LINE"
);
},
{
closed = 1;
nodes = (
"285 288 OFFCURVE",
"343 354 OFFCURVE",
"343 477 CURVE SMOOTH",
"343 574 OFFCURVE",
"301 665 OFFCURVE",
"193 667 CURVE SMOOTH",
"100 667 OFFCURVE",
"43 601 OFFCURVE",
"43 477 CURVE SMOOTH",
"43 354 OFFCURVE",
"100 288 OFFCURVE",
"193 288 CURVE SMOOTH"
);
},
{
closed = 1;
nodes = (
"137 345 OFFCURVE",
"104 389 OFFCURVE",
"104 477 CURVE SMOOTH",
"104 565 OFFCURVE",
"137 609 OFFCURVE",
"193 609 CURVE SMOOTH",
"247 609 OFFCURVE",
"281 565 OFFCURVE",
"281 477 CURVE SMOOTH",
"281 416 OFFCURVE",
"260 347 OFFCURVE",
"193 345 CURVE SMOOTH"
);
},
{
closed = 1;
nodes = (
"746 -8 OFFCURVE",
"804 58 OFFCURVE",
"804 181 CURVE SMOOTH",
"804 278 OFFCURVE",
"762 369 OFFCURVE",
"654 371 CURVE SMOOTH",
"561 371 OFFCURVE",
"504 305 OFFCURVE",
"504 181 CURVE SMOOTH",
"504 58 OFFCURVE",
"561 -8 OFFCURVE",
"654 -8 CURVE SMOOTH"
);
},
{
closed = 1;
nodes = (
"1094 -8 OFFCURVE",
"1152 58 OFFCURVE",
"1152 181 CURVE SMOOTH",
"1152 278 OFFCURVE",
"1110 369 OFFCURVE",
"1002 371 CURVE SMOOTH",
"909 371 OFFCURVE",
"852 305 OFFCURVE",
"852 181 CURVE SMOOTH",
"852 58 OFFCURVE",
"909 -8 OFFCURVE",
"1002 -8 CURVE SMOOTH"
);
},
{
closed = 1;
nodes = (
"598 49 OFFCURVE",
"565 93 OFFCURVE",
"565 181 CURVE SMOOTH",
"565 269 OFFCURVE",
"598 313 OFFCURVE",
"654 313 CURVE SMOOTH",
"708 313 OFFCURVE",
"742 269 OFFCURVE",
"742 181 CURVE SMOOTH",
"742 120 OFFCURVE",
"721 51 OFFCURVE",
"654 49 CURVE SMOOTH"
);
},
{
closed = 1;
nodes = (
"946 49 OFFCURVE",
"913 93 OFFCURVE",
"913 181 CURVE SMOOTH",
"913 269 OFFCURVE",
"946 313 OFFCURVE",
"1002 313 CURVE SMOOTH",
"1056 313 OFFCURVE",
"1090 269 OFFCURVE",
"1090 181 CURVE SMOOTH",
"1090 120 OFFCURVE",
"1069 51 OFFCURVE",
"1002 49 CURVE SMOOTH"
);
}
);
width = 1193;
}
);
unicode = 2030;
},
{
glyphname = guilsinglleft;
lastChange = "2020-06-01 08:04:27 +0000";
layers = (
{
hints = (
{
place = "{39, 219}";
type = Stem;
},
{
horizontal = 1;
place = "{57, 404}";
type = Stem;
}
);
layerId = UUID0;
paths = (
{
closed = 1;
nodes = (
"258 57 LINE",
"121 259 LINE",
"258 461 LINE",
"169 461 LINE",
"39 259 LINE",
"169 57 LINE"
);
}
);
width = 303;
}
);
leftKerningGroup = guilsinglleft;
rightKerningGroup = guilsinglleft;
unicode = 2039;
},
{
glyphname = guilsinglright;
lastChange = "2020-06-01 08:04:27 +0000";
layers = (
{
hints = (
{
place = "{45, 219}";
type = Stem;
},
{
horizontal = 1;
place = "{57, 404}";
type = Stem;
}
);
layerId = UUID0;
paths = (
{
closed = 1;
nodes = (
"134 57 LINE",
"264 259 LINE",
"134 461 LINE",
"45 461 LINE",
"182 259 LINE",
"45 57 LINE"
);
}
);
width = 303;
}
);
leftKerningGroup = guilsinglright;
rightKerningGroup = guilsinglright;
unicode = 203A;
},
{
glyphname = fraction;
lastChange = "2020-06-14 08:56:50 +0000";
layers = (
{
hints = (
{
place = "{-8, 484}";
type = Stem;
},
{
horizontal = 1;
place = "{-14, 688}";
type = Stem;
}
);
layerId = UUID0;
paths = (
{
closed = 1;
nodes = (
"56 -14 LINE",
"476 674 LINE",
"412 674 LINE",
"-8 -14 LINE"
);
}
);
width = 468;
}
);
unicode = 2044;
},
{
glyphname = trademark;
lastChange = "2020-06-01 08:04:27 +0000";
layers = (
{
hints = (
{
place = "{180, 49}";
type = Stem;
},
{
place = "{408, 49}";
type = Stem;
},
{
place = "{691, 49}";
type = Stem;
},
{
horizontal = 1;
place = "{509, -20}";
target = down;
type = TopGhost;
},
{
horizontal = 1;
place = "{615, 47}";
type = Stem;
}
);
layerId = UUID0;
paths = (
{
closed = 1;
nodes = (
"229 313 LINE",
"229 615 LINE",
"348 615 LINE",
"348 662 LINE",
"62 662 LINE",
"62 615 LINE",
"180 615 LINE",
"180 313 LINE"
);
},
{
closed = 1;
nodes = (
"457 313 LINE",
"457 582 LINE",
"575 433 LINE",
"691 582 LINE",
"691 313 LINE",
"740 313 LINE",
"740 662 LINE",
"689 662 LINE",
"575 509 LINE",
"460 662 LINE",
"408 662 LINE",
"408 313 LINE"
);
}
);
width = 815;
}
);
unicode = 2122;
},
{
glyphname = Omega;
lastChange = "2020-06-01 08:04:27 +0000";
layers = (
{
hints = (
{
place = "{45, 70}";
type = Stem;
},
{
place = "{563, 70}";
type = Stem;
},
{
horizontal = 1;
place = "{0, 59}";
type = Stem;
},
{
horizontal = 1;
place = "{599, 71}";
type = Stem;
}
);
layerId = UUID0;
paths = (
{
closed = 1;
nodes = (
"280 0 LINE",
"280 59 LINE",
"185 116 OFFCURVE",
"115 199 OFFCURVE",
"115 343 CURVE SMOOTH",
"115 471 OFFCURVE",
"195 599 OFFCURVE",
"339 599 CURVE SMOOTH",
"483 599 OFFCURVE",
"563 471 OFFCURVE",
"563 343 CURVE SMOOTH",
"563 199 OFFCURVE",
"493 116 OFFCURVE",
"398 59 CURVE",
"398 0 LINE",
"624 0 LINE",
"624 59 LINE",
"480 59 LINE",
"559 116 OFFCURVE",
"633 217 OFFCURVE",
"633 353 CURVE SMOOTH",
"633 524 OFFCURVE",
"515 670 OFFCURVE",
"339 670 CURVE SMOOTH",
"163 670 OFFCURVE",
"45 524 OFFCURVE",
"45 353 CURVE SMOOTH",
"45 217 OFFCURVE",
"119 116 OFFCURVE",
"197 59 CURVE",
"54 59 LINE",
"54 0 LINE"
);
}
);
width = 678;
}
);
unicode = 03A9;
},
{
glyphname = partialdiff;
lastChange = "2020-06-01 08:04:27 +0000";
layers = (
{
hints = (
{
place = "{41, 77}";
type = Stem;
},
{
place = "{478, 72}";
type = Stem;
},
{
horizontal = 1;
place = "{-8, 73}";
type = Stem;
},
{
horizontal = 1;
place = "{351, 71}";
type = Stem;
},
{
horizontal = 1;
place = "{658, 64}";
type = Stem;
}
);
layerId = UUID0;
paths = (
{
closed = 1;
nodes = (
"465 -8 OFFCURVE",
"550 260 OFFCURVE",
"550 440 CURVE SMOOTH",
"550 598 OFFCURVE",
"484 724 OFFCURVE",
"327 722 CURVE SMOOTH",
"245 721 OFFCURVE",
"186 685 OFFCURVE",
"143 638 CURVE",
"184 604 LINE",
"216 636 OFFCURVE",
"257 658 OFFCURVE",
"308 658 CURVE SMOOTH",
"439 658 OFFCURVE",
"478 571 OFFCURVE",
"478 432 CURVE SMOOTH",
"478 416 OFFCURVE",
"475 373 OFFCURVE",
"472 360 CURVE",
"433 395 OFFCURVE",
"390 422 OFFCURVE",
"308 422 CURVE SMOOTH",
"173 422 OFFCURVE",
"41 315 OFFCURVE",
"41 169 CURVE SMOOTH",
"41 65 OFFCURVE",
"123 -8 OFFCURVE",
"235 -8 CURVE SMOOTH"
);
},
{
closed = 1;
nodes = (
"173 65 OFFCURVE",
"118 112 OFFCURVE",
"118 182 CURVE SMOOTH",
"118 280 OFFCURVE",
"212 351 OFFCURVE",
"298 351 CURVE SMOOTH",
"380 351 OFFCURVE",
"423 328 OFFCURVE",
"459 297 CURVE",
"434 172 OFFCURVE",
"360 65 OFFCURVE",
"248 65 CURVE SMOOTH"
);
}
);
width = 603;
}
);
unicode = 2202;
},
{
glyphname = product;
lastChange = "2020-06-01 08:04:27 +0000";
layers = (
{
hints = (
{
place = "{77, 74}";
type = Stem;
},
{
place = "{521, 73}";
type = Stem;
},
{
horizontal = 1;
place = "{682, 66}";
type = Stem;
}
);
layerId = UUID0;
paths = (
{
closed = 1;
nodes = (
"151 -180 LINE",
"151 682 LINE",
"521 682 LINE",
"521 -180 LINE",
"594 -180 LINE",
"594 748 LINE",
"77 748 LINE",
"77 -180 LINE"
);
}
);
width = 671;
}
);
unicode = 220F;
},
{
glyphname = summation;
lastChange = "2020-06-01 08:04:27 +0000";
layers = (
{
hints = (
{
place = "{42, 564}";
type = Stem;
},
{
horizontal = 1;
place = "{-180, 73}";
type = Stem;
},
{
horizontal = 1;
place = "{675, 73}";
type = Stem;
}
);
layerId = UUID0;
paths = (
{
closed = 1;
nodes = (
"606 -180 LINE",
"606 -107 LINE",
"143 -107 LINE",
"478 284 LINE",
"143 675 LINE",
"606 675 LINE",
"606 748 LINE",
"42 748 LINE",
"42 682 LINE",
"375 284 LINE",
"42 -113 LINE",
"42 -180 LINE"
);
}
);
width = 653;
}
);
unicode = 2211;
},
{
glyphname = pi;
lastChange = "2020-06-01 08:04:27 +0000";
layers = (
{
hints = (
{
place = "{116, 74}";
type = Stem;
},
{
place = "{387, 73}";
type = Stem;
},
{
horizontal = 1;
place = "{-7, 54}";
type = Stem;
},
{
horizontal = 1;
place = "{424, 66}";
type = Stem;
},
{
horizontal = 1;
place = "{0, 21}";
target = up;
type = BottomGhost;
}
);
layerId = UUID0;
paths = (
{
closed = 1;
nodes = (
"535 47 LINE",
"490 47 OFFCURVE",
"460 68 OFFCURVE",
"460 119 CURVE SMOOTH",
"460 424 LINE",
"557 424 LINE",
"557 490 LINE",
"19 490 LINE",
"19 424 LINE",
"116 424 LINE",
"116 0 LINE",
"190 0 LINE",
"190 424 LINE",
"387 424 LINE",
"387 129 LINE SMOOTH",
"387 16 OFFCURVE",
"453 -7 OFFCURVE",
"535 -7 CURVE"
);
}
);
width = 578;
}
);
unicode = 03C0;
},
{
glyphname = minus;
lastChange = "2020-06-01 08:04:27 +0000";
layers = (
{
hints = (
{
place = "{50, 450}";
type = Stem;
},
{
horizontal = 1;
place = "{203, 65}";
type = Stem;
}
);
layerId = UUID0;
paths = (
{
closed = 1;
nodes = (
"500 203 LINE",
"500 268 LINE",
"50 268 LINE",
"50 203 LINE"
);
}
);
width = 550;
}
);
unicode = 2212;
},
{
glyphname = radical;
lastChange = "2020-06-01 08:04:27 +0000";
layers = (
{
hints = (
{
place = "{3, 666}";
type = Stem;
},
{
horizontal = 1;
place = "{-163, 903}";
type = Stem;
}
);
layerId = UUID0;
paths = (
{
closed = 1;
nodes = (
"397 -163 LINE",
"669 723 LINE",
"613 740 LINE",
"358 -82 LINE",
"191 294 LINE",
"3 220 LINE",
"25 164 LINE",
"142 209 LINE",
"310 -163 LINE"
);
}
);
width = 672;
}
);
unicode = 221A;
},
{
glyphname = infinity;
lastChange = "2020-06-01 08:04:27 +0000";
layers = (
{
hints = (
{
place = "{46, 62}";
type = Stem;
},
{
place = "{643, 62}";
type = Stem;
},
{
horizontal = 1;
place = "{96, 58}";
type = Stem;
},
{
horizontal = 1;
place = "{356, 58}";
type = Stem;
}
);
layerId = UUID0;
paths = (
{
closed = 1;
nodes = (
"268 96 OFFCURVE",
"332 150 OFFCURVE",
"376 212 CURVE",
"419 150 OFFCURVE",
"483 96 OFFCURVE",
"553 96 CURVE SMOOTH",
"660 96 OFFCURVE",
"705 185 OFFCURVE",
"705 255 CURVE SMOOTH",
"705 325 OFFCURVE",
"660 414 OFFCURVE",
"553 414 CURVE SMOOTH",
"483 414 OFFCURVE",
"419 359 OFFCURVE",
"376 298 CURVE",
"332 359 OFFCURVE",
"268 414 OFFCURVE",
"198 414 CURVE SMOOTH",
"91 414 OFFCURVE",
"46 325 OFFCURVE",
"46 255 CURVE SMOOTH",
"46 185 OFFCURVE",
"91 96 OFFCURVE",
"198 96 CURVE SMOOTH"
);
},
{
closed = 1;
nodes = (
"137 154 OFFCURVE",
"108 209 OFFCURVE",
"108 255 CURVE SMOOTH",
"108 301 OFFCURVE",
"137 356 OFFCURVE",
"204 356 CURVE SMOOTH",
"253 356 OFFCURVE",
"310 308 OFFCURVE",
"347 255 CURVE",
"310 202 OFFCURVE",
"253 154 OFFCURVE",
"204 154 CURVE SMOOTH"
);
},
{
closed = 1;
nodes = (
"498 154 OFFCURVE",
"440 202 OFFCURVE",
"404 255 CURVE",
"440 308 OFFCURVE",
"498 356 OFFCURVE",
"547 356 CURVE SMOOTH",
"614 356 OFFCURVE",
"643 301 OFFCURVE",
"643 255 CURVE SMOOTH",
"643 209 OFFCURVE",
"614 154 OFFCURVE",
"547 154 CURVE SMOOTH"
);
}
);
width = 751;
}
);
unicode = 221E;
},
{
glyphname = integral;
lastChange = "2020-06-01 08:04:27 +0000";
layers = (
{
hints = (
{
place = "{121, 66}";
type = Stem;
},
{
horizontal = 1;
place = "{-178, 54}";
type = Stem;
},
{
horizontal = 1;
place = "{727, 54}";
type = Stem;
}
);
layerId = UUID0;
paths = (
{
closed = 1;
nodes = (
"113 -178 OFFCURVE",
"187 -169 OFFCURVE",
"187 -34 CURVE SMOOTH",
"187 636 LINE SMOOTH",
"187 706 OFFCURVE",
"210 726 OFFCURVE",
"290 727 CURVE",
"290 781 LINE",
"195 781 OFFCURVE",
"121 772 OFFCURVE",
"121 637 CURVE SMOOTH",
"121 -33 LINE SMOOTH",
"121 -103 OFFCURVE",
"98 -123 OFFCURVE",
"18 -124 CURVE",
"18 -178 LINE"
);
}
);
width = 308;
}
);
unicode = 222B;
},
{
glyphname = notequal;
lastChange = "2020-06-01 08:04:27 +0000";
layers = (
{
hints = (
{
place = "{7, 536}";
type = Stem;
},
{
horizontal = 1;
place = "{-1, 21}";
target = up;
type = BottomGhost;
},
{
horizontal = 1;
place = "{103, 67}";
type = Stem;
},
{
horizontal = 1;
place = "{301, 67}";
type = Stem;
},
{
horizontal = 1;
place = "{499, -20}";
target = down;
type = TopGhost;
}
);
layerId = UUID0;
paths = (
{
closed = 1;
nodes = (
"238 103 LINE",
"493 103 LINE",
"493 170 LINE",
"274 170 LINE",
"343 301 LINE",
"493 301 LINE",
"493 368 LINE",
"379 368 LINE",
"434 471 LINE",
"381 499 LINE",
"311 368 LINE",
"57 368 LINE",
"57 301 LINE",
"275 301 LINE",
"206 170 LINE",
"57 170 LINE",
"57 103 LINE",
"170 103 LINE",
"115 -1 LINE",
"168 -29 LINE"
);
}
);
width = 550;
}
);
unicode = 2260;
},
{
glyphname = lessequal;
lastChange = "2020-06-14 09:00:38 +0000";
layers = (
{
hints = (
{
place = "{31, 481}";
type = Stem;
},
{
horizontal = 1;
place = "{-34, 66}";
type = Stem;
}
);
layerId = UUID0;
paths = (
{
closed = 1;
nodes = (
"512 192 LINE",
"117 330 LINE",
"512 468 LINE",
"512 546 LINE",
"31 361 LINE",
"31 298 LINE",
"512 114 LINE"
);
},
{
closed = 1;
nodes = (
"512 0 LINE",
"512 66 LINE",
"31 66 LINE",
"31 0 LINE"
);
}
);
width = 550;
}
);
unicode = 2264;
},
{
glyphname = greaterequal;
lastChange = "2020-06-14 09:00:33 +0000";
layers = (
{
hints = (
{
place = "{37, 481}";
type = Stem;
},
{
horizontal = 1;
place = "{-34, 66}";
type = Stem;
}
);
layerId = UUID0;
paths = (
{
closed = 1;
nodes = (
"518 298 LINE",
"518 361 LINE",
"37 546 LINE",
"37 468 LINE",
"432 330 LINE",
"37 192 LINE",
"37 114 LINE"
);
},
{
closed = 1;
nodes = (
"518 0 LINE",
"518 66 LINE",
"37 66 LINE",
"37 0 LINE"
);
}
);
width = 550;
}
);
unicode = 2265;
},
{
glyphname = lozenge;
lastChange = "2020-06-01 08:04:27 +0000";
layers = (
{
hints = (
{
place = "{36, 546}";
type = Stem;
},
{
horizontal = 1;
place = "{-58, 778}";
type = Stem;
}
);
layerId = UUID0;
paths = (
{
closed = 1;
nodes = (
"348 -58 LINE",
"582 331 LINE",
"348 720 LINE",
"270 720 LINE",
"36 331 LINE",
"270 -58 LINE"
);
},
{
closed = 1;
nodes = (
"118 331 LINE",
"309 648 LINE",
"500 331 LINE",
"309 14 LINE"
);
}
);
width = 618;
}
);
unicode = 25CA;
},
{
glyphname = longs;
lastChange = "2020-06-01 08:04:27 +0000";
layers = (
{
hints = (
{
place = "{99, 75}";
type = Stem;
},
{
horizontal = 1;
place = "{0, 21}";
target = up;
type = BottomGhost;
},
{
horizontal = 1;
place = "{434, 66}";
type = Stem;
},
{
horizontal = 1;
place = "{637, 71}";
type = Stem;
}
);
layerId = UUID0;
paths = (
{
closed = 1;
nodes = (
"174 0 LINE",
"174 538 LINE SMOOTH",
"174 607 OFFCURVE",
"210 637 OFFCURVE",
"280 637 CURVE SMOOTH",
"290 637 LINE",
"290 708 LINE",
"284 708 LINE SMOOTH",
"169 708 OFFCURVE",
"99 653 OFFCURVE",
"99 544 CURVE SMOOTH",
"99 500 LINE",
"13 500 LINE",
"13 434 LINE",
"99 434 LINE",
"99 0 LINE"
);
}
);
width = 239;
}
);
leftKerningGroup = f;
rightKerningGroup = f;
unicode = 017F;
},
{
glyphname = fi;
lastChange = "2020-06-18 21:38:51 +0000";
layers = (
{
anchors = (
{
name = caret_1;
position = "{267, 0}";
}
);
components = (
{
name = i;
transform = "{1, 0, 0, 1, 289, 0}";
}
);
hints = (
{
place = "{99, 75}";
type = Stem;
},
{
place = "{356, 75}";
type = Stem;
},
{
place = "{353, 81}";
type = Stem;
},
{
horizontal = 1;
place = "{0, 21}";
target = up;
type = BottomGhost;
},
{
horizontal = 1;
place = "{434, 66}";
type = Stem;
},
{
horizontal = 1;
place = "{584, 98}";
type = Stem;
},
{
horizontal = 1;
place = "{637, 71}";
type = Stem;
}
);
layerId = UUID0;
paths = (
{
closed = 1;
nodes = (
"174 0 LINE",
"174 434 LINE",
"356 434 LINE",
"431 500 LINE",
"174 500 LINE",
"174 538 LINE SMOOTH",
"174 607 OFFCURVE",
"210 637 OFFCURVE",
"280 637 CURVE SMOOTH",
"290 637 LINE",
"290 708 LINE",
"284 708 LINE SMOOTH",
"169 708 OFFCURVE",
"99 653 OFFCURVE",
"99 544 CURVE SMOOTH",
"99 500 LINE",
"13 500 LINE",
"13 434 LINE",
"99 434 LINE",
"99 0 LINE"
);
}
);
width = 496;
}
);
leftKerningGroup = f;
rightKerningGroup = i;
unicode = FB01;
},
{
glyphname = f_j;
lastChange = "2020-06-18 21:39:05 +0000";
layers = (
{
anchors = (
{
name = caret_1;
position = "{269, 0}";
}
);
hints = (
{
place = "{99, 75}";
type = Stem;
},
{
place = "{357, 75}";
type = Stem;
},
{
place = "{354, 81}";
type = Stem;
},
{
horizontal = 1;
place = "{-198, 21}";
target = up;
type = BottomGhost;
},
{
horizontal = 1;
place = "{0, 21}";
target = up;
type = BottomGhost;
},
{
horizontal = 1;
place = "{434, 66}";
type = Stem;
},
{
horizontal = 1;
place = "{584, 98}";
type = Stem;
},
{
horizontal = 1;
place = "{637, 71}";
type = Stem;
}
);
layerId = UUID0;
paths = (
{
closed = 1;
nodes = (
"432 -198 LINE",
"432 500 LINE",
"174 500 LINE",
"174 538 LINE SMOOTH",
"174 607 OFFCURVE",
"210 637 OFFCURVE",
"280 637 CURVE SMOOTH",
"290 637 LINE",
"290 708 LINE",
"284 708 LINE SMOOTH",
"169 708 OFFCURVE",
"99 653 OFFCURVE",
"99 544 CURVE SMOOTH",
"99 500 LINE",
"13 500 LINE",
"13 434 LINE",
"99 434 LINE",
"99 0 LINE",
"174 0 LINE",
"174 434 LINE",
"357 434 LINE",
"357 -198 LINE"
);
},
{
closed = 1;
nodes = (
"435 584 LINE",
"435 682 LINE",
"354 682 LINE",
"354 584 LINE"
);
}
);
width = 497;
}
);
leftKerningGroup = f;
rightKerningGroup = i;
},
{
glyphname = f_f;
lastChange = "2020-06-18 21:39:13 +0000";
layers = (
{
anchors = (
{
name = caret_1;
position = "{298, 0}";
}
);
hints = (
{
place = "{99, 75}";
type = Stem;
},
{
place = "{396, 75}";
type = Stem;
},
{
horizontal = 1;
place = "{0, 21}";
target = up;
type = BottomGhost;
},
{
horizontal = 1;
place = "{434, 66}";
type = Stem;
},
{
horizontal = 1;
place = "{637, 71}";
type = Stem;
}
);
layerId = UUID0;
paths = (
{
closed = 1;
nodes = (
"174 0 LINE",
"174 434 LINE",
"396 434 LINE",
"396 0 LINE",
"471 0 LINE",
"471 434 LINE",
"587 434 LINE",
"587 500 LINE",
"471 500 LINE",
"471 538 LINE SMOOTH",
"471 607 OFFCURVE",
"507 637 OFFCURVE",
"577 637 CURVE SMOOTH",
"587 637 LINE",
"587 708 LINE",
"581 708 LINE SMOOTH",
"466 708 OFFCURVE",
"396 653 OFFCURVE",
"396 544 CURVE SMOOTH",
"396 500 LINE",
"174 500 LINE",
"174 538 LINE SMOOTH",
"174 607 OFFCURVE",
"210 637 OFFCURVE",
"280 637 CURVE SMOOTH",
"290 637 LINE",
"290 708 LINE",
"284 708 LINE SMOOTH",
"169 708 OFFCURVE",
"99 653 OFFCURVE",
"99 544 CURVE SMOOTH",
"99 500 LINE",
"13 500 LINE",
"13 434 LINE",
"99 434 LINE",
"99 0 LINE"
);
}
);
width = 604;
}
);
leftKerningGroup = f;
rightKerningGroup = f;
},
{
glyphname = f_f_i;
lastChange = "2020-06-18 21:39:20 +0000";
layers = (
{
anchors = (
{
name = caret_1;
position = "{290, 0}";
},
{
name = caret_2;
position = "{562, 0}";
}
);
hints = (
{
place = "{99, 75}";
type = Stem;
},
{
place = "{396, 75}";
type = Stem;
},
{
place = "{653, 75}";
type = Stem;
},
{
place = "{650, 81}";
type = Stem;
},
{
horizontal = 1;
place = "{0, 21}";
target = up;
type = BottomGhost;
},
{
horizontal = 1;
place = "{434, 66}";
type = Stem;
},
{
horizontal = 1;
place = "{637, 71}";
type = Stem;
},
{
horizontal = 1;
place = "{584, 98}";
type = Stem;
}
);
layerId = UUID0;
paths = (
{
closed = 1;
nodes = (
"174 0 LINE",
"174 434 LINE",
"396 434 LINE",
"396 0 LINE",
"471 0 LINE",
"471 434 LINE",
"653 434 LINE",
"653 0 LINE",
"728 0 LINE",
"728 500 LINE",
"471 500 LINE",
"471 538 LINE SMOOTH",
"471 607 OFFCURVE",
"507 637 OFFCURVE",
"577 637 CURVE SMOOTH",
"587 637 LINE",
"587 708 LINE",
"581 708 LINE SMOOTH",
"466 708 OFFCURVE",
"396 653 OFFCURVE",
"396 544 CURVE SMOOTH",
"396 500 LINE",
"174 500 LINE",
"174 538 LINE SMOOTH",
"174 607 OFFCURVE",
"210 637 OFFCURVE",
"280 637 CURVE SMOOTH",
"290 637 LINE",
"290 708 LINE",
"284 708 LINE SMOOTH",
"169 708 OFFCURVE",
"99 653 OFFCURVE",
"99 544 CURVE SMOOTH",
"99 500 LINE",
"13 500 LINE",
"13 434 LINE",
"99 434 LINE",
"99 0 LINE"
);
},
{
closed = 1;
nodes = (
"731 584 LINE",
"731 682 LINE",
"650 682 LINE",
"650 584 LINE"
);
}
);
width = 793;
}
);
leftKerningGroup = f;
rightKerningGroup = i;
},
{
glyphname = f_f_l;
lastChange = "2020-06-18 21:39:30 +0000";
layers = (
{
anchors = (
{
name = caret_1;
position = "{277, 0}";
},
{
name = caret_2;
position = "{559, 0}";
}
);
hints = (
{
place = "{99, 75}";
type = Stem;
},
{
place = "{396, 75}";
type = Stem;
},
{
place = "{653, 75}";
type = Stem;
},
{
horizontal = 1;
place = "{0, 21}";
target = up;
type = BottomGhost;
},
{
horizontal = 1;
place = "{434, 66}";
type = Stem;
},
{
horizontal = 1;
place = "{637, 71}";
type = Stem;
}
);
layerId = UUID0;
paths = (
{
closed = 1;
nodes = (
"174 0 LINE",
"174 434 LINE",
"396 434 LINE",
"396 0 LINE",
"471 0 LINE",
"471 434 LINE",
"587 434 LINE",
"587 500 LINE",
"471 500 LINE",
"471 538 LINE SMOOTH",
"471 607 OFFCURVE",
"507 637 OFFCURVE",
"577 637 CURVE SMOOTH",
"587 637 LINE",
"587 708 LINE",
"581 708 LINE SMOOTH",
"466 708 OFFCURVE",
"396 653 OFFCURVE",
"396 544 CURVE SMOOTH",
"396 500 LINE",
"174 500 LINE",
"174 538 LINE SMOOTH",
"174 607 OFFCURVE",
"210 637 OFFCURVE",
"280 637 CURVE SMOOTH",
"290 637 LINE",
"290 708 LINE",
"284 708 LINE SMOOTH",
"169 708 OFFCURVE",
"99 653 OFFCURVE",
"99 544 CURVE SMOOTH",
"99 500 LINE",
"13 500 LINE",
"13 434 LINE",
"99 434 LINE",
"99 0 LINE"
);
},
{
closed = 1;
nodes = (
"728 0 LINE",
"728 700 LINE",
"653 700 LINE",
"653 0 LINE"
);
}
);
width = 793;
}
);
leftKerningGroup = f;
rightKerningGroup = l;
},
{
glyphname = exclam;
lastChange = "2020-06-01 08:04:27 +0000";
layers = (
{
hints = (
{
place = "{62, 97}";
type = Stem;
},
{
place = "{73, 74}";
type = Stem;
},
{
horizontal = 1;
place = "{0, 102}";
type = Stem;
},
{
horizontal = 1;
place = "{662, -20}";
target = down;
type = TopGhost;
}
);
layerId = UUID0;
paths = (
{
closed = 1;
nodes = (
"138 183 LINE",
"157 662 LINE",
"64 662 LINE",
"83 183 LINE"
);
},
{
closed = 1;
nodes = (
"159 0 LINE",
"159 102 LINE",
"62 102 LINE",
"62 0 LINE"
);
}
);
width = 221;
}
);
unicode = 0021;
},
{
glyphname = "Alpha-latin";
lastChange = "2020-06-08 16:23:53 +0000";
layers = (
{
anchors = (
{
name = bottom;
position = "{335, 0}";
},
{
name = center;
position = "{335, 331}";
},
{
name = ogonek;
position = "{415, 0}";
},
{
name = top;
position = "{335, 662}";
},
{
name = topleft;
position = "{-20, 662}";
},
{
name = topright;
position = "{494, 662}";
}
);
hints = (
{
place = "{39, 75}";
type = Stem;
},
{
place = "{636, 75}";
type = Stem;
},
{
horizontal = 1;
place = "{-8, 73}";
type = Stem;
},
{
horizontal = 1;
place = "{597, 73}";
type = Stem;
}
);
layerId = UUID0;
paths = (
{
closed = 1;
nodes = (
"671 662 LINE",
"596 662 LINE",
"596 557 LINE",
"540 626 OFFCURVE",
"457 670 OFFCURVE",
"355 670 CURVE SMOOTH",
"166 670 OFFCURVE",
"39 519 OFFCURVE",
"39 331 CURVE SMOOTH",
"39 143 OFFCURVE",
"166 -8 OFFCURVE",
"355 -8 CURVE SMOOTH",
"462 -8 OFFCURVE",
"548 39 OFFCURVE",
"603 113 CURVE",
"624 35 OFFCURVE",
"690 -8 OFFCURVE",
"773 -8 CURVE",
"773 61 LINE",
"706 60 OFFCURVE",
"672 103 OFFCURVE",
"671 198 CURVE SMOOTH"
);
},
{
closed = 1;
nodes = (
"206 65 OFFCURVE",
"114 182 OFFCURVE",
"114 331 CURVE SMOOTH",
"114 480 OFFCURVE",
"206 597 OFFCURVE",
"355 597 CURVE SMOOTH",
"504 597 OFFCURVE",
"596 480 OFFCURVE",
"596 331 CURVE SMOOTH",
"596 181 OFFCURVE",
"505 65 OFFCURVE",
"355 65 CURVE SMOOTH"
);
}
);
width = 753;
},
{
associatedMasterId = UUID0;
components = (
{
name = O;
}
);
layerId = "1272B678-A122-4E7E-8DBD-BB6B79255E32";
name = "May 12 20, 13:10";
paths = (
{
closed = 1;
nodes = (
"711 194 LINE",
"711 662 LINE",
"636 662 LINE",
"636 194 LINE"
);
},
{
closed = 1;
nodes = (
"637 194 LINE",
"637 75 OFFCURVE",
"692 -3 OFFCURVE",
"807 -3 CURVE SMOOTH",
"825 -3 OFFCURVE",
"844 -1 OFFCURVE",
"865 3 CURVE",
"865 62 LINE",
"846 57 OFFCURVE",
"828 55 OFFCURVE",
"813 55 CURVE SMOOTH",
"737 55 OFFCURVE",
"711 107 OFFCURVE",
"711 194 CURVE"
);
}
);
width = 905;
},
{
associatedMasterId = UUID0;
components = (
{
name = O;
}
);
layerId = "588C0BF9-01C7-4767-AE12-386B43698998";
name = "May 12 20, 13:13";
paths = (
{
closed = 1;
nodes = (
"711 194 LINE",
"711 662 LINE",
"636 662 LINE",
"636 194 LINE"
);
},
{
closed = 1;
nodes = (
"636 203 LINE",
"636 174 LINE SMOOTH",
"636 58 OFFCURVE",
"711 -3 OFFCURVE",
"813 -3 CURVE SMOOTH",
"830 -3 OFFCURVE",
"849 -2 OFFCURVE",
"868 2 CURVE",
"868 70 LINE",
"852 67 OFFCURVE",
"837 66 OFFCURVE",
"822 66 CURVE SMOOTH",
"753 66 OFFCURVE",
"710 109 OFFCURVE",
"711 203 CURVE"
);
}
);
width = 905;
}
);
leftKerningGroup = O;
leftMetricsKey = O;
unicode = 2C6D;
},
{
glyphname = Astroke;
lastChange = "2020-06-08 16:23:53 +0000";
layers = (
{
anchors = (
{
name = _bottom;
position = "{329, 0}";
}
);
background = {
paths = (
{
closed = 1;
nodes = (
"307 -32 LINE",
"456 680 LINE",
"386 680 LINE",
"237 -32 LINE"
);
}
);
};
components = (
{
name = A;
}
);
layerId = UUID0;
paths = (
{
closed = 1;
nodes = (
"199 -75 LINE",
"540 725 LINE",
"470 725 LINE",
"129 -75 LINE"
);
}
);
width = 662;
},
{
associatedMasterId = UUID0;
background = {
paths = (
{
closed = 1;
nodes = (
"307 -32 LINE",
"456 680 LINE",
"386 680 LINE",
"237 -32 LINE"
);
}
);
};
components = (
{
name = A;
}
);
layerId = "BFA79F0C-7DB8-4A1C-8458-7AF00EDC0F3A";
name = "May 28 20, 14:34";
paths = (
{
closed = 1;
nodes = (
"284 -112 LINE",
"468 760 LINE",
"398 760 LINE",
"214 -112 LINE"
);
}
);
width = 662;
}
);
leftKerningGroup = A;
rightKerningGroup = A;
unicode = 023A;
},
{
glyphname = "Beta-latin";
lastChange = "2020-06-08 16:23:53 +0000";
layers = (
{
components = (
{
name = B;
}
);
layerId = UUID0;
paths = (
{
closed = 1;
nodes = (
"81 69 LINE",
"81 -198 LINE",
"156 -198 LINE",
"156 69 LINE"
);
}
);
width = 662;
},
{
associatedMasterId = UUID0;
components = (
{
name = B;
}
);
layerId = "B4EDB8CF-4B38-4FFA-85AF-F7B676A105E9";
name = "May 18 20, 19:09";
width = 662;
}
);
leftKerningGroup = I;
rightKerningGroup = B;
unicode = A7B4;
},
{
color = 0;
glyphname = Bhook;
lastChange = "2020-06-14 09:37:47 +0000";
layers = (
{
anchors = (
{
name = _top;
position = "{454, 662}";
}
);
components = (
{
alignment = -1;
name = B;
transform = "{1, 0, 0, 1, 123, 0}";
}
);
layerId = UUID0;
paths = (
{
closed = 1;
nodes = (
"204 662 LINE",
"182 662 LINE SMOOTH",
"66 658 OFFCURVE",
"5 590 OFFCURVE",
"5 488 CURVE SMOOTH",
"5 471 OFFCURVE",
"6 452 OFFCURVE",
"10 433 CURVE",
"78 433 LINE",
"75 449 OFFCURVE",
"74 464 OFFCURVE",
"74 479 CURVE SMOOTH",
"74 547 OFFCURVE",
"110 591 OFFCURVE",
"204 591 CURVE"
);
}
);
width = 785;
}
);
leftKerningGroup = Bhook;
rightKerningGroup = B;
unicode = 0181;
},
{
glyphname = Bstroke;
lastChange = "2020-06-08 16:23:53 +0000";
layers = (
{
components = (
{
name = B;
}
);
layerId = UUID0;
paths = (
{
closed = 1;
nodes = (
"16 217 LINE",
"16 152 LINE",
"344 152 LINE",
"344 217 LINE"
);
}
);
width = 662;
}
);
leftKerningGroup = I;
rightKerningGroup = B;
unicode = 0243;
},
{
glyphname = "Chi-latin";
lastChange = "2020-06-09 13:58:41 +0000";
layers = (
{
anchors = (
{
name = bottom;
position = "{348, -198}";
},
{
name = top;
position = "{348, 662}";
}
);
background = {
paths = (
{
closed = 1;
nodes = (
"59 558 OFFCURVE",
"73 590 OFFCURVE",
"106 590 CURVE SMOOTH",
"163 590 OFFCURVE",
"156 574 OFFCURVE",
"451 -55 CURVE SMOOTH",
"490 -138 OFFCURVE",
"528 -207 OFFCURVE",
"608 -207 CURVE SMOOTH",
"667 -207 OFFCURVE",
"710 -169 OFFCURVE",
"729 -101 CURVE",
"674 -72 LINE",
"664 -101 OFFCURVE",
"650 -133 OFFCURVE",
"617 -133 CURVE SMOOTH",
"575 -133 OFFCURVE",
"537 -70 OFFCURVE",
"514 -18 CURVE SMOOTH",
"281 505 LINE SMOOTH",
"243 590 OFFCURVE",
"200 664 OFFCURVE",
"115 664 CURVE SMOOTH",
"55 664 OFFCURVE",
"11 627 OFFCURVE",
"-6 558 CURVE",
"49 529 LINE"
);
}
);
};
hints = (
{
place = "{-3, 804.139}";
type = Stem;
},
{
horizontal = 1;
place = "{-198, 21}";
target = up;
type = BottomGhost;
},
{
horizontal = 1;
place = "{662, -20}";
target = down;
type = TopGhost;
}
);
layerId = UUID0;
paths = (
{
closed = 1;
nodes = (
"665 -104 OFFCURVE",
"650 -135 OFFCURVE",
"616 -135 CURVE SMOOTH",
"567 -135 OFFCURVE",
"567 -123 OFFCURVE",
"392 256 CURVE",
"624 659 LINE",
"536 659 LINE",
"352 340 LINE",
"272 512 LINE SMOOTH",
"233 595 OFFCURVE",
"192 662 OFFCURVE",
"114 662 CURVE SMOOTH",
"58 662 OFFCURVE",
"16 626 OFFCURVE",
"-3 560 CURVE",
"46 533 LINE",
"56 562 OFFCURVE",
"71 593 OFFCURVE",
"105 593 CURVE SMOOTH",
"152 593 OFFCURVE",
"182 529 OFFCURVE",
"206 477 CURVE SMOOTH",
"305 259 LINE",
"43 -195 LINE",
"131 -195 LINE",
"344 174 LINE",
"444 -46 LINE SMOOTH",
"483 -131 OFFCURVE",
"522 -203 OFFCURVE",
"607 -203 CURVE SMOOTH",
"665 -203 OFFCURVE",
"708 -167 OFFCURVE",
"725 -102 CURVE",
"675 -75 LINE"
);
}
);
width = 722;
},
{
associatedMasterId = UUID0;
components = (
{
name = X;
}
);
layerId = "51F86594-F7BD-4717-B7A4-B081810976F2";
name = "May 18 20, 19:14";
width = 613;
},
{
anchors = (
{
name = bottom;
position = "{352, -198}";
},
{
name = top;
position = "{352, 662}";
}
);
associatedMasterId = UUID0;
background = {
paths = (
{
closed = 1;
nodes = (
"63 558 OFFCURVE",
"77 590 OFFCURVE",
"110 590 CURVE SMOOTH",
"167 590 OFFCURVE",
"160 574 OFFCURVE",
"455 -55 CURVE SMOOTH",
"494 -138 OFFCURVE",
"532 -207 OFFCURVE",
"612 -207 CURVE SMOOTH",
"671 -207 OFFCURVE",
"714 -169 OFFCURVE",
"733 -101 CURVE",
"678 -72 LINE",
"668 -101 OFFCURVE",
"654 -133 OFFCURVE",
"621 -133 CURVE SMOOTH",
"579 -133 OFFCURVE",
"541 -70 OFFCURVE",
"518 -18 CURVE SMOOTH",
"285 505 LINE SMOOTH",
"247 590 OFFCURVE",
"204 664 OFFCURVE",
"119 664 CURVE SMOOTH",
"59 664 OFFCURVE",
"15 627 OFFCURVE",
"-2 558 CURVE",
"53 529 LINE"
);
}
);
};
hints = (
{
place = "{-3, 804.139}";
type = Stem;
},
{
horizontal = 1;
place = "{-198, 21}";
target = up;
type = BottomGhost;
},
{
horizontal = 1;
place = "{662, -20}";
target = down;
type = TopGhost;
}
);
layerId = "1E5E7D35-0A51-427D-8CB5-9EF23932A9EE";
name = "May 20 20, 12:32";
paths = (
{
closed = 1;
nodes = (
"42 -198 LINE",
"137 -198 LINE",
"633 662 LINE",
"538 662 LINE"
);
},
{
closed = 1;
nodes = (
"667 -100 OFFCURVE",
"653 -132 OFFCURVE",
"620 -132 CURVE SMOOTH",
"573 -132 OFFCURVE",
"574 -123 OFFCURVE",
"389 278 CURVE SMOOTH",
"358 344 OFFCURVE",
"321 422 OFFCURVE",
"279 513 CURVE SMOOTH",
"240 596 OFFCURVE",
"198 665 OFFCURVE",
"118 665 CURVE SMOOTH",
"59 665 OFFCURVE",
"16 627 OFFCURVE",
"-3 559 CURVE",
"52 529 LINE",
"62 558 OFFCURVE",
"76 590 OFFCURVE",
"109 590 CURVE SMOOTH",
"154 590 OFFCURVE",
"183 528 OFFCURVE",
"207 476 CURVE SMOOTH",
"445 -47 LINE SMOOTH",
"484 -132 OFFCURVE",
"524 -206 OFFCURVE",
"611 -206 CURVE SMOOTH",
"671 -206 OFFCURVE",
"715 -169 OFFCURVE",
"732 -100 CURVE",
"677 -71 LINE"
);
}
);
width = 672;
}
);
leftKerningGroup = X;
leftMetricsKey = X;
rightKerningGroup = X;
rightMetricsKey = X;
unicode = A7B3;
},
{
glyphname = Chook;
lastChange = "2020-06-08 16:23:53 +0000";
layers = (
{
anchors = (
{
name = _top;
position = "{529, 315}";
},
{
name = bottom;
position = "{345, 0}";
},
{
name = top;
position = "{345, 662}";
}
);
hints = (
{
place = "{39, 75}";
type = Stem;
},
{
horizontal = 1;
place = "{-8, 73}";
type = Stem;
},
{
horizontal = 1;
place = "{597, 73}";
type = Stem;
}
);
layerId = UUID0;
paths = (
{
closed = 1;
nodes = (
"509 -8 OFFCURVE",
"617 77 OFFCURVE",
"659 198 CURVE",
"580 198 LINE",
"546 117 OFFCURVE",
"474 65 OFFCURVE",
"365 65 CURVE SMOOTH",
"204 65 OFFCURVE",
"114 182 OFFCURVE",
"114 331 CURVE SMOOTH",
"114 480 OFFCURVE",
"204 597 OFFCURVE",
"365 597 CURVE SMOOTH",
"474 597 OFFCURVE",
"549 545 OFFCURVE",
"583 464 CURVE",
"659 464 LINE",
"617 585 OFFCURVE",
"509 670 OFFCURVE",
"359 670 CURVE SMOOTH",
"160 670 OFFCURVE",
"39 519 OFFCURVE",
"39 331 CURVE SMOOTH",
"39 143 OFFCURVE",
"160 -8 OFFCURVE",
"359 -8 CURVE SMOOTH"
);
},
{
closed = 1;
nodes = (
"604 789 OFFCURVE",
"584 710 OFFCURVE",
"584 645 CURVE SMOOTH",
"584 464 LINE",
"659 464 LINE",
"659 645 LINE SMOOTH",
"659 678 OFFCURVE",
"663 722 OFFCURVE",
"735 722 CURVE SMOOTH",
"743 722 OFFCURVE",
"750 721 OFFCURVE",
"759 719 CURVE",
"759 787 LINE",
"748 788 OFFCURVE",
"739 789 OFFCURVE",
"729 789 CURVE SMOOTH"
);
}
);
width = 690;
},
{
anchors = (
{
name = _top;
position = "{431, 213}";
}
);
associatedMasterId = UUID0;
components = (
{
name = C;
}
);
layerId = "5C4E2A17-8029-4B0B-A92D-A6D3C6306DE9";
name = "May 8 20, 16:52";
paths = (
{
closed = 1;
nodes = (
"502 557 OFFCURVE",
"546 593 OFFCURVE",
"614 593 CURVE SMOOTH",
"629 593 OFFCURVE",
"644 592 OFFCURVE",
"660 589 CURVE",
"660 657 LINE",
"641 661 OFFCURVE",
"622 662 OFFCURVE",
"605 662 CURVE SMOOTH",
"503 662 OFFCURVE",
"435 601 OFFCURVE",
"431 485 CURVE SMOOTH",
"431 463 LINE",
"502 463 LINE"
);
}
);
width = 690;
},
{
anchors = (
{
name = _top;
position = "{529, 187}";
}
);
associatedMasterId = UUID0;
components = (
{
name = C;
}
);
layerId = "4A3BA381-D792-4130-9832-D09E17AF1572";
name = "May 11 20, 12:26";
paths = (
{
closed = 1;
nodes = (
"600 531 OFFCURVE",
"644 567 OFFCURVE",
"712 567 CURVE SMOOTH",
"727 567 OFFCURVE",
"742 566 OFFCURVE",
"758 563 CURVE",
"758 631 LINE",
"739 635 OFFCURVE",
"720 636 OFFCURVE",
"703 636 CURVE SMOOTH",
"601 636 OFFCURVE",
"533 575 OFFCURVE",
"529 459 CURVE SMOOTH",
"529 437 LINE",
"600 437 LINE"
);
}
);
visible = 1;
width = 690;
}
);
leftKerningGroup = O;
leftMetricsKey = C;
rightKerningGroup = C;
unicode = 0187;
},
{
glyphname = Cstroke;
lastChange = "2020-06-08 16:23:53 +0000";
layers = (
{
anchors = (
{
name = _bottom;
position = "{345, 0}";
}
);
components = (
{
name = C;
}
);
layerId = UUID0;
paths = (
{
closed = 1;
nodes = (
"215 -75 LINE",
"556 725 LINE",
"486 725 LINE",
"145 -75 LINE"
);
}
);
width = 690;
},
{
anchors = (
{
name = _bottom;
position = "{331, 0}";
}
);
associatedMasterId = UUID0;
components = (
{
name = C;
}
);
layerId = "9441E252-5FF3-4E04-A78C-10E7418A71E5";
name = "May 28 20, 14:39";
paths = (
{
closed = 1;
nodes = (
"294 -112 LINE",
"478 760 LINE",
"408 760 LINE",
"224 -112 LINE"
);
},
{
closed = 1;
nodes = (
"201 -75 LINE",
"542 725 LINE",
"472 725 LINE",
"131 -75 LINE"
);
}
);
width = 690;
}
);
leftKerningGroup = O;
rightKerningGroup = C;
unicode = 023B;
},
{
color = 0;
glyphname = Dhook;
lastChange = "2020-06-14 09:20:23 +0000";
layers = (
{
anchors = (
{
name = _top;
position = "{454, 662}";
}
);
components = (
{
alignment = -1;
name = D;
transform = "{1, 0, 0, 1, 123, 0}";
}
);
layerId = UUID0;
paths = (
{
closed = 1;
nodes = (
"204 662 LINE",
"182 662 LINE SMOOTH",
"66 658 OFFCURVE",
"5 590 OFFCURVE",
"5 488 CURVE SMOOTH",
"5 471 OFFCURVE",
"6 452 OFFCURVE",
"10 433 CURVE",
"78 433 LINE",
"75 449 OFFCURVE",
"74 464 OFFCURVE",
"74 479 CURVE SMOOTH",
"74 547 OFFCURVE",
"110 591 OFFCURVE",
"204 591 CURVE"
);
}
);
width = 827;
}
);
leftKerningGroup = Bhook;
rightKerningGroup = O;
unicode = 018A;
},
{
glyphname = Ecedilla;
lastChange = "2020-06-17 15:08:52 +0000";
layers = (
{
anchors = (
{
name = bottom;
position = "{344, 0}";
},
{
name = ogonek;
position = "{578, 2}";
},
{
name = top;
position = "{334, 662}";
},
{
name = topleft;
position = "{20, 662}";
}
);
hints = (
{
place = "{81, 75}";
type = Stem;
},
{
horizontal = 1;
place = "{0, 72}";
type = Stem;
},
{
horizontal = 1;
place = "{295, 73}";
type = Stem;
},
{
horizontal = 1;
place = "{590, 72}";
type = Stem;
},
{
place = "{376, 73}";
type = Stem;
},
{
horizontal = 1;
place = "{-211, 44}";
type = Stem;
},
{
horizontal = 1;
place = "{-98, 45}";
type = Stem;
}
);
layerId = UUID0;
paths = (
{
closed = 1;
nodes = (
"568 662 LINE",
"81 662 LINE",
"81 0 LINE",
"319 0 LINE",
"267 -82 LINE",
"288 -99 LINE",
"298 -96 OFFCURVE",
"311 -94 OFFCURVE",
"323 -94 CURVE SMOOTH",
"351 -94 OFFCURVE",
"376 -107 OFFCURVE",
"376 -127 CURVE SMOOTH",
"376 -154 OFFCURVE",
"351 -163 OFFCURVE",
"321 -163 CURVE SMOOTH",
"285 -163 OFFCURVE",
"257 -148 OFFCURVE",
"236 -133 CURVE",
"217 -166 LINE",
"242 -187 OFFCURVE",
"284 -207 OFFCURVE",
"335 -207 CURVE SMOOTH",
"396 -207 OFFCURVE",
"449 -182 OFFCURVE",
"449 -126 CURVE SMOOTH",
"449 -78 OFFCURVE",
"407 -49 OFFCURVE",
"357 -49 CURVE SMOOTH",
"350 -49 OFFCURVE",
"341 -50 OFFCURVE",
"335 -51 CURVE",
"364 0 LINE",
"568 0 LINE",
"568 72 LINE",
"156 72 LINE",
"156 295 LINE",
"524 295 LINE",
"524 368 LINE",
"156 368 LINE",
"156 590 LINE",
"568 590 LINE"
);
}
);
width = 608;
}
);
leftKerningGroup = I;
rightKerningGroup = E;
unicode = 0228;
},
{
glyphname = Eopen;
lastChange = "2020-06-08 16:23:53 +0000";
layers = (
{
anchors = (
{
name = bottom;
position = "{285, 0}";
},
{
name = top;
position = "{285, 662}";
}
);
hints = (
{
place = "{116, 75}";
type = Stem;
},
{
place = "{138, 75}";
type = Stem;
},
{
horizontal = 1;
place = "{-8, 73}";
type = Stem;
},
{
horizontal = 1;
place = "{314, 69}";
type = Stem;
},
{
horizontal = 1;
place = "{597, 73}";
type = Stem;
}
);
layerId = UUID0;
paths = (
{
closed = 1;
nodes = (
"410 -8 OFFCURVE",
"512 72 OFFCURVE",
"522 175 CURVE",
"446 175 LINE",
"436 113 OFFCURVE",
"366 65 OFFCURVE",
"286 65 CURVE SMOOTH",
"179 65 OFFCURVE",
"116 120 OFFCURVE",
"116 188 CURVE SMOOTH",
"116 255 OFFCURVE",
"183 314 OFFCURVE",
"279 314 CURVE SMOOTH",
"375 314 LINE",
"375 383 LINE",
"288 383 LINE SMOOTH",
"208 383 OFFCURVE",
"138 427 OFFCURVE",
"138 491 CURVE SMOOTH",
"138 554 OFFCURVE",
"190 597 OFFCURVE",
"290 597 CURVE SMOOTH",
"371 597 OFFCURVE",
"422 554 OFFCURVE",
"431 503 CURVE",
"504 503 LINE",
"495 584 OFFCURVE",
"421 670 OFFCURVE",
"292 670 CURVE SMOOTH",
"150 670 OFFCURVE",
"63 597 OFFCURVE",
"63 494 CURVE SMOOTH",
"63 428 OFFCURVE",
"118 367 OFFCURVE",
"163 353 CURVE",
"86 324 OFFCURVE",
"41 261 OFFCURVE",
"41 190 CURVE SMOOTH",
"41 72 OFFCURVE",
"150 -8 OFFCURVE",
"286 -8 CURVE SMOOTH"
);
}
);
width = 570;
}
);
leftKerningGroup = S;
rightKerningGroup = C;
unicode = 0190;
},
{
glyphname = Esh;
lastChange = "2020-06-08 16:23:53 +0000";
layers = (
{
anchors = (
{
name = bottom;
position = "{344, 0}";
},
{
name = ogonek;
position = "{578, 0}";
},
{
name = top;
position = "{334, 662}";
},
{
name = topleft;
position = "{20, 662}";
}
);
hints = (
{
place = "{81, 75}";
type = Stem;
},
{
horizontal = 1;
place = "{0, 72}";
type = Stem;
},
{
horizontal = 1;
place = "{295, 73}";
type = Stem;
},
{
horizontal = 1;
place = "{590, 72}";
type = Stem;
}
);
layerId = UUID0;
paths = (
{
closed = 1;
nodes = (
"88 662 LINE",
"88 590 LINE",
"336 322 LINE",
"81 72 LINE",
"81 0 LINE",
"528 0 LINE",
"528 72 LINE",
"186 72 LINE",
"440 321 LINE",
"191 590 LINE",
"535 590 LINE",
"535 662 LINE"
);
}
);
width = 608;
}
);
leftKerningGroup = I;
rightKerningGroup = E;
unicode = 01A9;
},
{
glyphname = Estroke;
lastChange = "2020-06-08 16:23:53 +0000";
layers = (
{
anchors = (
{
name = _bottom;
position = "{329, 0}";
}
);
components = (
{
name = E;
}
);
layerId = UUID0;
paths = (
{
closed = 1;
nodes = (
"199 -75 LINE",
"540 725 LINE",
"470 725 LINE",
"129 -75 LINE"
);
}
);
width = 608;
},
{
associatedMasterId = UUID0;
components = (
{
name = E;
}
);
layerId = "505F1115-475E-4AB0-8216-FFE9EB816770";
name = "May 28 20, 14:41";
paths = (
{
closed = 1;
nodes = (
"284 -112 LINE",
"468 760 LINE",
"398 760 LINE",
"214 -112 LINE"
);
}
);
width = 608;
}
);
leftKerningGroup = I;
rightKerningGroup = E;
unicode = 0246;
},
{
color = 3;
glyphname = Ezh;
lastChange = "2020-06-08 17:06:49 +0000";
layers = (
{
anchors = (
{
name = bottom;
position = "{279, 0}";
},
{
name = top;
position = "{279, 662}";
}
);
background = {
paths = (
{
closed = 1;
nodes = (
"475 590 LINE",
"475 662 LINE",
"71 662 LINE",
"71 590 LINE",
"383 590 LINE",
"208 347 LINE",
"208 278 LINE",
"284 278 LINE SMOOTH",
"405 278 OFFCURVE",
"464 192 OFFCURVE",
"464 63 CURVE SMOOTH",
"464 -71 OFFCURVE",
"395 -133 OFFCURVE",
"257 -133 CURVE SMOOTH",
"182 -133 OFFCURVE",
"116 -85 OFFCURVE",
"107 -23 CURVE",
"31 -23 LINE",
"41 -126 OFFCURVE",
"138 -206 OFFCURVE",
"257 -206 CURVE SMOOTH",
"444 -206 OFFCURVE",
"539 -104 OFFCURVE",
"539 63 CURVE SMOOTH",
"539 221 OFFCURVE",
"459 338 OFFCURVE",
"297 346 CURVE"
);
}
);
};
hints = (
{
place = "{427, 75}";
type = Stem;
},
{
place = "{405, 75}";
type = Stem;
},
{
horizontal = 1;
place = "{-8, 73}";
type = Stem;
},
{
horizontal = 1;
place = "{314, 69}";
type = Stem;
},
{
horizontal = 1;
place = "{597, 73}";
type = Stem;
}
);
layerId = UUID0;
paths = (
{
closed = 1;
nodes = (
"261 259 LINE",
"379 260 OFFCURVE",
"463 178 OFFCURVE",
"463 63 CURVE SMOOTH",
"463 -52 OFFCURVE",
"383 -133 OFFCURVE",
"271 -133 CURVE SMOOTH",
"193 -133 OFFCURVE",
"130 -91 OFFCURVE",
"101 -25 CURVE",
"21 -25 LINE",
"57 -133 OFFCURVE",
"152 -206 OFFCURVE",
"271 -206 CURVE SMOOTH",
"424 -206 OFFCURVE",
"538 -91 OFFCURVE",
"538 63 CURVE SMOOTH",
"538 216 OFFCURVE",
"420 332 OFFCURVE",
"261 332 CURVE",
"208 259 LINE"
);
},
{
closed = 1;
nodes = (
"297 326 LINE",
"475 590 LINE",
"475 662 LINE",
"51 662 LINE",
"51 590 LINE",
"383 590 LINE",
"208 328 LINE",
"208 259 LINE"
);
}
);
width = 586;
},
{
associatedMasterId = UUID0;
hints = (
{
place = "{427, 75}";
type = Stem;
},
{
place = "{405, 75}";
type = Stem;
},
{
horizontal = 1;
place = "{-8, 73}";
type = Stem;
},
{
horizontal = 1;
place = "{314, 69}";
type = Stem;
},
{
horizontal = 1;
place = "{597, 73}";
type = Stem;
}
);
layerId = "513E6045-1914-4743-BA2E-B3FEFB0DD281";
name = "May 11 20, 13:06";
paths = (
{
closed = 1;
nodes = (
"424 -206 OFFCURVE",
"509 -96 OFFCURVE",
"509 83 CURVE SMOOTH",
"509 262 OFFCURVE",
"432 363 OFFCURVE",
"275 363 CURVE SMOOTH",
"208 363 LINE",
"208 294 LINE",
"284 294 LINE SMOOTH",
"385 294 OFFCURVE",
"434 225 OFFCURVE",
"434 83 CURVE SMOOTH",
"434 -65 OFFCURVE",
"375 -133 OFFCURVE",
"257 -133 CURVE SMOOTH",
"182 -133 OFFCURVE",
"116 -85 OFFCURVE",
"107 -23 CURVE",
"31 -23 LINE",
"41 -126 OFFCURVE",
"138 -206 OFFCURVE",
"257 -206 CURVE SMOOTH"
);
},
{
closed = 1;
nodes = (
"208 294 LINE",
"244 294 LINE",
"475 590 LINE",
"475 662 LINE",
"71 662 LINE",
"71 590 LINE",
"439 590 LINE",
"402 614 LINE",
"208 363 LINE"
);
}
);
visible = 1;
width = 550;
},
{
anchors = (
{
name = bottom;
position = "{279, 0}";
},
{
name = top;
position = "{279, 662}";
}
);
associatedMasterId = UUID0;
hints = (
{
place = "{427, 75}";
type = Stem;
},
{
place = "{405, 75}";
type = Stem;
},
{
horizontal = 1;
place = "{-8, 73}";
type = Stem;
},
{
horizontal = 1;
place = "{314, 69}";
type = Stem;
},
{
horizontal = 1;
place = "{597, 73}";
type = Stem;
}
);
layerId = "1BD95694-959C-4D90-B331-6D02DFB9D88F";
name = "Jun 8 20, 18:52";
paths = (
{
closed = 1;
nodes = (
"475 590 LINE",
"475 662 LINE",
"71 662 LINE",
"71 590 LINE",
"383 590 LINE",
"208 323 LINE",
"208 254 LINE",
"284 254 LINE SMOOTH",
"405 254 OFFCURVE",
"464 192 OFFCURVE",
"464 63 CURVE SMOOTH",
"464 -71 OFFCURVE",
"395 -133 OFFCURVE",
"257 -133 CURVE SMOOTH",
"182 -133 OFFCURVE",
"116 -85 OFFCURVE",
"107 -23 CURVE",
"31 -23 LINE",
"41 -126 OFFCURVE",
"138 -206 OFFCURVE",
"257 -206 CURVE SMOOTH",
"444 -206 OFFCURVE",
"539 -104 OFFCURVE",
"539 63 CURVE SMOOTH",
"539 221 OFFCURVE",
"459 314 OFFCURVE",
"297 322 CURVE"
);
}
);
width = 587;
}
);
rightMetricsKey = three;
unicode = 01B7;
},
{
glyphname = Fhook;
lastChange = "2020-06-08 16:26:05 +0000";
layers = (
{
anchors = (
{
name = _bottom;
position = "{153, 243}";
}
);
components = (
{
name = F;
}
);
layerId = UUID0;
paths = (
{
closed = 1;
nodes = (
"81 -105 OFFCURVE",
"38 -137 OFFCURVE",
"-30 -137 CURVE SMOOTH",
"-45 -137 OFFCURVE",
"-60 -136 OFFCURVE",
"-76 -133 CURVE",
"-76 -201 LINE",
"-57 -205 OFFCURVE",
"-38 -206 OFFCURVE",
"-21 -206 CURVE SMOOTH",
"80 -206 OFFCURVE",
"156 -143 OFFCURVE",
"156 -19 CURVE SMOOTH",
"156 0 LINE",
"81 0 LINE"
);
}
);
width = 583;
}
);
leftKerningGroup = I;
rightKerningGroup = F;
rightMetricsKey = F;
unicode = 0191;
},
{
glyphname = Ghook;
lastChange = "2020-06-08 16:23:53 +0000";
layers = (
{
anchors = (
{
name = bottom;
position = "{362, 0}";
},
{
name = top;
position = "{362, 662}";
}
);
hints = (
{
place = "{39, 75}";
type = Stem;
},
{
place = "{603, 69}";
type = Stem;
},
{
horizontal = 1;
place = "{-8, 73}";
type = Stem;
},
{
horizontal = 1;
place = "{284, 68}";
type = Stem;
},
{
horizontal = 1;
place = "{597, 73}";
type = Stem;
},
{
horizontal = 1;
place = "{0, 21}";
target = up;
type = BottomGhost;
}
);
layerId = UUID0;
paths = (
{
closed = 1;
nodes = (
"361 284 LINE",
"603 284 LINE",
"603 146 OFFCURVE",
"489 65 OFFCURVE",
"369 65 CURVE SMOOTH",
"208 65 OFFCURVE",
"114 182 OFFCURVE",
"114 331 CURVE SMOOTH",
"114 479 OFFCURVE",
"209 597 OFFCURVE",
"368 597 CURVE SMOOTH",
"475 597 OFFCURVE",
"549 544 OFFCURVE",
"583 464 CURVE",
"659 464 LINE",
"618 583 OFFCURVE",
"512 670 OFFCURVE",
"365 670 CURVE SMOOTH",
"362 670 LINE",
"359 670 LINE SMOOTH",
"163 670 OFFCURVE",
"39 517 OFFCURVE",
"39 331 CURVE SMOOTH",
"39 143 OFFCURVE",
"161 -8 OFFCURVE",
"363 -8 CURVE SMOOTH",
"483 -8 OFFCURVE",
"561 53 OFFCURVE",
"603 117 CURVE",
"603 0 LINE",
"672 0 LINE",
"672 352 LINE",
"361 352 LINE"
);
},
{
closed = 1;
nodes = (
"604 789 OFFCURVE",
"584 710 OFFCURVE",
"584 645 CURVE SMOOTH",
"584 464 LINE",
"659 464 LINE",
"659 645 LINE SMOOTH",
"659 678 OFFCURVE",
"663 722 OFFCURVE",
"735 722 CURVE SMOOTH",
"743 722 OFFCURVE",
"750 721 OFFCURVE",
"759 719 CURVE",
"759 787 LINE",
"748 788 OFFCURVE",
"739 789 OFFCURVE",
"729 789 CURVE SMOOTH"
);
}
);
width = 723;
}
);
leftKerningGroup = O;
rightKerningGroup = G;
unicode = 0193;
},
{
color = 3;
glyphname = Glottalstop;
lastChange = "2020-06-08 17:15:06 +0000";
layers = (
{
hints = (
{
place = "{227, 73}";
type = Stem;
},
{
place = "{394, 71}";
type = Stem;
},
{
place = "{215, 97}";
type = Stem;
},
{
horizontal = 1;
place = "{0, 102}";
type = Stem;
},
{
horizontal = 1;
place = "{601, 69}";
type = Stem;
}
);
layerId = UUID0;
paths = (
{
closed = 1;
nodes = (
"145 670 OFFCURVE",
"47 576 OFFCURVE",
"40 466 CURVE",
"115 466 LINE",
"123 536 OFFCURVE",
"184 601 OFFCURVE",
"307 601 CURVE SMOOTH",
"436 601 OFFCURVE",
"471 539 OFFCURVE",
"471 489 CURVE SMOOTH",
"471 358 OFFCURVE",
"268 337 OFFCURVE",
"268 163 CURVE SMOOTH",
"268 0 LINE",
"341 0 LINE",
"341 163 LINE SMOOTH",
"341 313 OFFCURVE",
"546 323 OFFCURVE",
"546 489 CURVE SMOOTH",
"546 579 OFFCURVE",
"473 670 OFFCURVE",
"301 670 CURVE SMOOTH"
);
}
);
width = 591;
},
{
associatedMasterId = UUID0;
hints = (
{
place = "{227, 73}";
type = Stem;
},
{
place = "{394, 71}";
type = Stem;
},
{
place = "{215, 97}";
type = Stem;
},
{
horizontal = 1;
place = "{0, 102}";
type = Stem;
},
{
horizontal = 1;
place = "{601, 69}";
type = Stem;
}
);
layerId = "884F3B7C-583F-4A33-81F3-EFBD2BB2108A";
name = "Jun 8 20, 19:13";
paths = (
{
closed = 1;
nodes = (
"128 670 OFFCURVE",
"45 576 OFFCURVE",
"39 466 CURVE",
"110 466 LINE",
"116 536 OFFCURVE",
"168 601 OFFCURVE",
"266 601 CURVE SMOOTH",
"364 601 OFFCURVE",
"394 539 OFFCURVE",
"394 489 CURVE SMOOTH",
"394 374 OFFCURVE",
"227 356 OFFCURVE",
"227 203 CURVE SMOOTH",
"227 0 LINE",
"300 0 LINE",
"300 203 LINE SMOOTH",
"300 335 OFFCURVE",
"465 343 OFFCURVE",
"465 489 CURVE SMOOTH",
"465 579 OFFCURVE",
"404 670 OFFCURVE",
"260 670 CURVE SMOOTH"
);
}
);
width = 510;
}
);
leftKerningGroup = question;
rightKerningGroup = question;
unicode = 0241;
},
{
glyphname = Gstroke;
lastChange = "2020-06-08 16:23:53 +0000";
layers = (
{
components = (
{
name = G;
}
);
layerId = UUID0;
paths = (
{
closed = 1;
nodes = (
"361 217 LINE",
"361 152 LINE",
"709 152 LINE",
"709 217 LINE"
);
}
);
width = 723;
}
);
leftKerningGroup = O;
rightKerningGroup = G;
unicode = 01E4;
},
{
glyphname = Hbar;
lastChange = "2020-06-01 08:04:28 +0000";
layers = (
{
anchors = (
{
name = _center;
position = "{349, 504}";
}
);
components = (
{
name = H;
}
);
layerId = UUID0;
paths = (
{
closed = 1;
nodes = (
"662 468 LINE",
"662 538 LINE",
"35 538 LINE",
"35 468 LINE"
);
}
);
width = 697;
}
);
leftKerningGroup = I;
rightKerningGroup = I;
unicode = 0126;
},
{
glyphname = Heng;
lastChange = "2020-06-08 16:23:53 +0000";
layers = (
{
anchors = (
{
name = _bottom;
position = "{752, 0}";
}
);
background = {
paths = (
{
closed = 1;
nodes = (
"541 -94 OFFCURVE",
"498 -137 OFFCURVE",
"430 -137 CURVE SMOOTH",
"415 -137 OFFCURVE",
"400 -136 OFFCURVE",
"384 -133 CURVE",
"384 -201 LINE",
"403 -205 OFFCURVE",
"422 -206 OFFCURVE",
"439 -206 CURVE SMOOTH",
"541 -206 OFFCURVE",
"616 -145 OFFCURVE",
"616 -29 CURVE SMOOTH",
"616 0 LINE",
"541 0 LINE"
);
}
);
};
components = (
{
name = H;
}
);
layerId = UUID0;
paths = (
{
closed = 1;
nodes = (
"541 -105 OFFCURVE",
"498 -137 OFFCURVE",
"430 -137 CURVE SMOOTH",
"415 -137 OFFCURVE",
"400 -136 OFFCURVE",
"384 -133 CURVE",
"384 -201 LINE",
"403 -205 OFFCURVE",
"422 -206 OFFCURVE",
"439 -206 CURVE SMOOTH",
"540 -206 OFFCURVE",
"616 -143 OFFCURVE",
"616 -19 CURVE SMOOTH",
"616 0 LINE",
"541 0 LINE"
);
}
);
width = 697;
}
);
leftKerningGroup = I;
rightKerningGroup = I;
unicode = A726;
},
{
color = 0;
glyphname = Hhook;
lastChange = "2020-06-14 09:20:17 +0000";
layers = (
{
anchors = (
{
name = _top;
position = "{454, 662}";
}
);
components = (
{
alignment = -1;
name = H;
transform = "{1, 0, 0, 1, 123, 0}";
}
);
layerId = UUID0;
paths = (
{
closed = 1;
nodes = (
"204 662 LINE",
"182 662 LINE SMOOTH",
"66 658 OFFCURVE",
"5 590 OFFCURVE",
"5 488 CURVE SMOOTH",
"5 471 OFFCURVE",
"6 452 OFFCURVE",
"10 433 CURVE",
"78 433 LINE",
"75 449 OFFCURVE",
"74 464 OFFCURVE",
"74 479 CURVE SMOOTH",
"74 547 OFFCURVE",
"110 591 OFFCURVE",
"204 591 CURVE"
);
}
);
width = 820;
}
);
leftKerningGroup = Bhook;
rightKerningGroup = I;
unicode = A7AA;
},
{
glyphname = Hturned;
lastChange = "2020-06-08 16:23:53 +0000";
layers = (
{
anchors = (
{
name = bottom;
position = "{341, 0}";
},
{
name = center;
position = "{329, 504}";
},
{
name = top;
position = "{329, 662}";
},
{
name = topleft;
position = "{0, 662}";
}
);
hints = (
{
place = "{81, 75}";
type = Stem;
},
{
place = "{541, 75}";
type = Stem;
},
{
horizontal = 1;
place = "{0, 21}";
target = up;
type = BottomGhost;
},
{
horizontal = 1;
place = "{295, 73}";
type = Stem;
},
{
horizontal = 1;
place = "{662, -20}";
target = down;
type = TopGhost;
},
{
place = "{522, -75}";
type = Stem;
},
{
place = "{156, -75}";
type = Stem;
},
{
horizontal = 1;
place = "{700, 21}";
target = up;
type = BottomGhost;
},
{
horizontal = 1;
place = "{260, -68}";
type = Stem;
}
);
layerId = UUID0;
paths = (
{
closed = 1;
nodes = (
"501 662 LINE",
"501 412 LINE SMOOTH",
"501 323 OFFCURVE",
"412 280 OFFCURVE",
"325 280 CURVE SMOOTH",
"240 280 OFFCURVE",
"156 320 OFFCURVE",
"156 411 CURVE SMOOTH",
"156 662 LINE",
"81 662 LINE",
"81 409 LINE SMOOTH",
"81 279 OFFCURVE",
"189 207 OFFCURVE",
"307 207 CURVE SMOOTH",
"374 207 OFFCURVE",
"445 230 OFFCURVE",
"501 278 CURVE",
"501 0 LINE",
"576 0 LINE",
"576 662 LINE"
);
}
);
width = 657;
},
{
anchors = (
{
name = bottom;
position = "{361, 0}";
},
{
name = center;
position = "{349, 504}";
},
{
name = top;
position = "{349, 662}";
},
{
name = topleft;
position = "{20, 662}";
}
);
associatedMasterId = UUID0;
hints = (
{
place = "{81, 75}";
type = Stem;
},
{
place = "{541, 75}";
type = Stem;
},
{
horizontal = 1;
place = "{0, 21}";
target = up;
type = BottomGhost;
},
{
horizontal = 1;
place = "{295, 73}";
type = Stem;
},
{
horizontal = 1;
place = "{662, -20}";
target = down;
type = TopGhost;
}
);
layerId = "C16B7874-6073-4CE7-9277-D7BC06BDC075";
name = "May 11 20, 13:50";
paths = (
{
closed = 1;
nodes = (
"541 295 LINE",
"541 0 LINE",
"616 0 LINE",
"616 662 LINE",
"541 662 LINE",
"541 368 LINE",
"156 368 LINE",
"156 662 LINE",
"81 662 LINE",
"81 295 LINE"
);
}
);
visible = 1;
width = 697;
},
{
anchors = (
{
name = bottom;
position = "{341, 0}";
},
{
name = center;
position = "{329, 504}";
},
{
name = top;
position = "{329, 662}";
},
{
name = topleft;
position = "{0, 662}";
}
);
associatedMasterId = UUID0;
hints = (
{
place = "{81, 75}";
type = Stem;
},
{
place = "{541, 75}";
type = Stem;
},
{
horizontal = 1;
place = "{0, 21}";
target = up;
type = BottomGhost;
},
{
horizontal = 1;
place = "{295, 73}";
type = Stem;
},
{
horizontal = 1;
place = "{662, -20}";
target = down;
type = TopGhost;
},
{
place = "{522, -75}";
type = Stem;
},
{
place = "{156, -75}";
type = Stem;
},
{
horizontal = 1;
place = "{700, 21}";
target = up;
type = BottomGhost;
},
{
horizontal = 1;
place = "{260, -68}";
type = Stem;
}
);
layerId = "F373B25A-8C6E-4C76-B1A6-0E0FED417D5E";
name = "May 11 20, 14:03";
paths = (
{
closed = 1;
nodes = (
"501 662 LINE",
"501 412 LINE SMOOTH",
"501 322 OFFCURVE",
"441 260 OFFCURVE",
"316 260 CURVE SMOOTH",
"232 260 OFFCURVE",
"156 320 OFFCURVE",
"156 411 CURVE SMOOTH",
"156 662 LINE",
"81 662 LINE",
"81 409 LINE SMOOTH",
"81 267 OFFCURVE",
"197 192 OFFCURVE",
"301 192 CURVE SMOOTH",
"408 192 OFFCURVE",
"465 230 OFFCURVE",
"501 278 CURVE",
"501 0 LINE",
"576 0 LINE",
"576 662 LINE"
);
}
);
width = 657;
}
);
leftKerningGroup = I;
leftMetricsKey = I;
rightKerningGroup = I;
rightMetricsKey = I;
unicode = A78D;
},
{
glyphname = Iotaafrican;
lastChange = "2020-06-09 14:01:52 +0000";
layers = (
{
anchors = (
{
name = bottom;
position = "{103, 0}";
},
{
name = top;
position = "{103, 700}";
}
);
hints = (
{
place = "{65, 75}";
type = Stem;
},
{
horizontal = 1;
place = "{0, 21}";
target = up;
type = BottomGhost;
}
);
layerId = UUID0;
paths = (
{
closed = 1;
nodes = (
"180 61 OFFCURVE",
"140 97 OFFCURVE",
"140 191 CURVE SMOOTH",
"140 662 LINE",
"65 662 LINE",
"65 169 LINE SMOOTH",
"65 53 OFFCURVE",
"137 -8 OFFCURVE",
"239 -8 CURVE SMOOTH",
"256 -8 OFFCURVE",
"275 -7 OFFCURVE",
"294 -3 CURVE",
"294 65 LINE",
"278 62 OFFCURVE",
"263 61 OFFCURVE",
"248 61 CURVE SMOOTH"
);
}
);
width = 304;
}
);
leftKerningGroup = I;
rightKerningGroup = I;
unicode = 0196;
},
{
glyphname = Istroke;
lastChange = "2020-06-08 16:23:53 +0000";
layers = (
{
components = (
{
name = I;
}
);
layerId = UUID0;
paths = (
{
closed = 1;
nodes = (
"7 364 LINE",
"7 299 LINE",
"230 299 LINE",
"230 364 LINE"
);
}
);
width = 237;
},
{
associatedMasterId = UUID0;
components = (
{
name = I;
}
);
layerId = "EE32EF94-AEFE-40E7-8103-E6F0081A446C";
name = "May 27 20, 14:28";
paths = (
{
closed = 1;
nodes = (
"-25 363 LINE",
"-25 298 LINE",
"262 298 LINE",
"262 363 LINE"
);
}
);
width = 237;
}
);
leftKerningGroup = I;
rightKerningGroup = I;
unicode = 0197;
},
{
glyphname = Jcrossedtail;
lastChange = "2020-06-08 16:39:30 +0000";
layers = (
{
anchors = (
{
name = bottom;
position = "{252, 0}";
},
{
name = top;
position = "{401, 662}";
}
);
associatedMasterId = UUID0;
hints = (
{
place = "{377, 75}";
type = Stem;
},
{
horizontal = 1;
place = "{-8, 73}";
type = Stem;
},
{
horizontal = 1;
place = "{662, -20}";
target = down;
type = TopGhost;
}
);
layerId = "78D44C4F-E556-411D-8167-4DA113B62F47";
name = "May 31 20, 17:10";
paths = (
{
closed = 1;
nodes = (
"111 147 LINE",
"111 194 OFFCURVE",
"145 231 OFFCURVE",
"228 231 CURVE",
"228 296 LINE",
"99 296 OFFCURVE",
"34 236 OFFCURVE",
"34 147 CURVE"
);
},
{
closed = 1;
nodes = (
"384 -8 OFFCURVE",
"440 103 OFFCURVE",
"440 219 CURVE SMOOTH",
"440 662 LINE",
"365 662 LINE",
"365 222 LINE SMOOTH",
"365 154 OFFCURVE",
"348 65 OFFCURVE",
"228 65 CURVE SMOOTH",
"153 65 OFFCURVE",
"111 109 OFFCURVE",
"111 147 CURVE",
"34 147 LINE",
"34 71 OFFCURVE",
"101 -8 OFFCURVE",
"224 -8 CURVE SMOOTH"
);
},
{
closed = 1;
nodes = (
"228 296 LINE",
"228 231 LINE",
"515 231 LINE",
"515 296 LINE"
);
}
);
width = 515;
},
{
anchors = (
{
name = bottom;
position = "{252, 0}";
},
{
name = top;
position = "{401, 662}";
}
);
associatedMasterId = UUID0;
hints = (
{
place = "{377, 75}";
type = Stem;
},
{
horizontal = 1;
place = "{-8, 73}";
type = Stem;
},
{
horizontal = 1;
place = "{662, -20}";
target = down;
type = TopGhost;
}
);
layerId = "3D688171-3B77-4442-98E0-48FF64196383";
name = "May 31 20, 17:28";
paths = (
{
closed = 1;
nodes = (
"111 147 LINE",
"111 194 OFFCURVE",
"145 231 OFFCURVE",
"228 231 CURVE",
"228 296 LINE",
"99 296 OFFCURVE",
"34 236 OFFCURVE",
"34 147 CURVE"
);
},
{
closed = 1;
nodes = (
"384 -8 OFFCURVE",
"440 103 OFFCURVE",
"440 219 CURVE SMOOTH",
"440 662 LINE",
"365 662 LINE",
"365 222 LINE SMOOTH",
"365 154 OFFCURVE",
"348 65 OFFCURVE",
"228 65 CURVE SMOOTH",
"153 65 OFFCURVE",
"111 109 OFFCURVE",
"111 147 CURVE",
"34 147 LINE",
"34 71 OFFCURVE",
"101 -8 OFFCURVE",
"224 -8 CURVE SMOOTH"
);
},
{
closed = 1;
nodes = (
"228 296 LINE",
"228 231 LINE",
"515 231 LINE",
"515 296 LINE"
);
}
);
width = 515;
},
{
anchors = (
{
name = bottom;
position = "{151, 0}";
},
{
name = top;
position = "{300, 662}";
}
);
background = {
paths = (
{
closed = 1;
nodes = (
"408 147 LINE",
"418 128 OFFCURVE",
"424 105 OFFCURVE",
"424 77 CURVE",
"482 77 LINE",
"482 143 OFFCURVE",
"458 196 OFFCURVE",
"408 236 CURVE"
);
}
);
};
hints = (
{
place = "{377, 75}";
type = Stem;
},
{
horizontal = 1;
place = "{-8, 73}";
type = Stem;
},
{
horizontal = 1;
place = "{662, -20}";
target = down;
type = TopGhost;
}
);
layerId = UUID0;
paths = (
{
closed = 1;
nodes = (
"321 205 LINE",
"366 188 OFFCURVE",
"400 164 OFFCURVE",
"428 139 CURVE",
"428 216 LINE",
"400 241 OFFCURVE",
"365 261 OFFCURVE",
"323 275 CURVE"
);
},
{
closed = 1;
nodes = (
"339 253 LINE",
"339 662 LINE",
"264 662 LINE",
"264 273 LINE",
"264 236 LINE SMOOTH",
"266 167 OFFCURVE",
"258 65 OFFCURVE",
"167 65 CURVE SMOOTH",
"118 65 OFFCURVE",
"90 105 OFFCURVE",
"90 143 CURVE SMOOTH",
"90 196 OFFCURVE",
"130 231 OFFCURVE",
"196 231 CURVE SMOOTH",
"227 231 OFFCURVE",
"254 227 OFFCURVE",
"278 219 CURVE",
"278 287 LINE",
"255 292 OFFCURVE",
"227 296 OFFCURVE",
"197 296 CURVE",
"167 296 OFFCURVE",
"167 296 OFFCURVE",
"196 296 CURVE SMOOTH",
"195 296 LINE SMOOTH",
"74 295 OFFCURVE",
"15 232 OFFCURVE",
"15 143 CURVE SMOOTH",
"15 67 OFFCURVE",
"66 -8 OFFCURVE",
"163 -8 CURVE SMOOTH",
"289 -8 OFFCURVE",
"337 99 OFFCURVE",
"339 214 CURVE SMOOTH"
);
}
);
width = 414;
},
{
anchors = (
{
name = bottom;
position = "{201, 0}";
},
{
name = top;
position = "{350, 662}";
}
);
associatedMasterId = UUID0;
background = {
paths = (
{
closed = 1;
nodes = (
"458 147 LINE",
"468 128 OFFCURVE",
"474 105 OFFCURVE",
"474 77 CURVE",
"532 77 LINE",
"532 143 OFFCURVE",
"508 196 OFFCURVE",
"458 236 CURVE"
);
}
);
};
hints = (
{
place = "{377, 75}";
type = Stem;
},
{
horizontal = 1;
place = "{-8, 73}";
type = Stem;
},
{
horizontal = 1;
place = "{662, -20}";
target = down;
type = TopGhost;
}
);
layerId = "D9C46DD6-B92E-4609-9C16-300855D131DB";
name = "Jun 8 20, 18:38";
paths = (
{
closed = 1;
nodes = (
"371 205 LINE",
"416 188 OFFCURVE",
"450 164 OFFCURVE",
"478 139 CURVE",
"478 216 LINE",
"450 241 OFFCURVE",
"415 261 OFFCURVE",
"373 275 CURVE"
);
},
{
closed = 1;
nodes = (
"389 253 LINE",
"389 662 LINE",
"314 662 LINE",
"314 273 LINE",
"314 236 LINE SMOOTH",
"316 167 OFFCURVE",
"306 65 OFFCURVE",
"187 65 CURVE SMOOTH",
"125 65 OFFCURVE",
"90 109 OFFCURVE",
"90 147 CURVE SMOOTH",
"90 200 OFFCURVE",
"137 231 OFFCURVE",
"216 231 CURVE SMOOTH",
"259 231 OFFCURVE",
"295 227 OFFCURVE",
"328 219 CURVE",
"328 287 LINE",
"296 292 OFFCURVE",
"258 296 OFFCURVE",
"217 296 CURVE",
"217 296 OFFCURVE",
"217 296 OFFCURVE",
"216 296 CURVE SMOOTH",
"215 296 LINE SMOOTH",
"81 295 OFFCURVE",
"15 236 OFFCURVE",
"15 147 CURVE SMOOTH",
"15 71 OFFCURVE",
"73 -8 OFFCURVE",
"183 -8 CURVE SMOOTH",
"331 -8 OFFCURVE",
"387 99 OFFCURVE",
"389 214 CURVE SMOOTH"
);
}
);
width = 464;
}
);
leftKerningGroup = J;
leftMetricsKey = "=J";
rightKerningGroup = J;
unicode = A7B2;
},
{
glyphname = Jstroke;
lastChange = "2020-06-08 16:23:53 +0000";
layers = (
{
anchors = (
{
name = bottom;
position = "{415, 0}";
},
{
name = ogonek;
position = "{462, 0}";
},
{
name = top;
position = "{415, 662}";
},
{
name = topleft;
position = "{316, 662}";
}
);
background = {
paths = (
{
closed = 1;
nodes = (
"271 363 LINE",
"271 298 LINE",
"558 298 LINE",
"558 363 LINE"
);
}
);
};
components = (
{
name = J;
}
);
layerId = UUID0;
paths = (
{
closed = 1;
nodes = (
"210 364 LINE",
"210 299 LINE",
"558 299 LINE",
"558 364 LINE"
);
}
);
width = 527;
}
);
leftKerningGroup = J;
rightKerningGroup = J;
unicode = 0248;
},
{
glyphname = Khook;
lastChange = "2020-06-08 16:23:53 +0000";
layers = (
{
anchors = (
{
name = bottom;
position = "{321, 0}";
},
{
name = top;
position = "{321, 662}";
}
);
background = {
paths = (
{
closed = 1;
nodes = (
"422 565 LINE",
"509 648 OFFCURVE",
"532 670 OFFCURVE",
"584 670 CURVE SMOOTH",
"653 670 OFFCURVE",
"688 636 OFFCURVE",
"698 541 CURVE",
"636 528 LINE",
"630 578 OFFCURVE",
"619 597 OFFCURVE",
"584 597 CURVE SMOOTH",
"563 597 OFFCURVE",
"519 565 OFFCURVE",
"474 514 CURVE"
);
}
);
};
hints = (
{
place = "{81, 75}";
type = Stem;
},
{
horizontal = 1;
place = "{0, 21}";
target = up;
type = BottomGhost;
},
{
horizontal = 1;
place = "{662, -20}";
target = down;
type = TopGhost;
}
);
layerId = UUID0;
paths = (
{
closed = 1;
nodes = (
"469 553 OFFCURVE",
"507 597 OFFCURVE",
"543 597 CURVE SMOOTH",
"587 597 OFFCURVE",
"593 562 OFFCURVE",
"597 527 CURVE",
"661 541 LINE",
"661 624 OFFCURVE",
"618 670 OFFCURVE",
"543 670 CURVE SMOOTH",
"482 670 OFFCURVE",
"440 630 OFFCURVE",
"374 557 CURVE SMOOTH",
"156 317 LINE",
"156 662 LINE",
"81 662 LINE",
"81 0 LINE",
"156 0 LINE",
"156 217 LINE",
"285 355 LINE",
"552 0 LINE",
"646 0 LINE",
"337 411 LINE",
"425 506 LINE SMOOTH"
);
}
);
width = 641;
}
);
leftKerningGroup = I;
rightKerningGroup = K;
unicode = 0198;
},
{
glyphname = Kstroke;
lastChange = "2020-06-08 16:23:53 +0000";
layers = (
{
components = (
{
name = K;
}
);
layerId = UUID0;
paths = (
{
closed = 1;
nodes = (
"-25 565 LINE",
"-25 500 LINE",
"262 500 LINE",
"262 565 LINE"
);
}
);
width = 641;
}
);
leftKerningGroup = I;
rightKerningGroup = K;
unicode = A740;
},
{
glyphname = Lbar;
lastChange = "2020-06-09 14:07:36 +0000";
layers = (
{
components = (
{
name = L;
}
);
layerId = UUID0;
paths = (
{
closed = 1;
nodes = (
"7 363 LINE",
"7 298 LINE",
"355 298 LINE",
"355 363 LINE"
);
}
);
width = 533;
}
);
leftKerningGroup = I;
rightKerningGroup = L;
unicode = 023D;
},
{
glyphname = Lbelt;
lastChange = "2020-06-14 09:59:00 +0000";
layers = (
{
background = {
paths = (
{
closed = 1;
nodes = (
"7 363 LINE",
"7 298 LINE",
"355 298 LINE",
"355 363 LINE"
);
}
);
};
components = (
{
name = L;
}
);
guideLines = (
{
position = "{328, 298}";
}
);
layerId = UUID0;
paths = (
{
closed = 1;
nodes = (
"131 435 OFFCURVE",
"89 502 OFFCURVE",
"23 502 CURVE SMOOTH",
"-35 502 OFFCURVE",
"-70 457 OFFCURVE",
"-70 410 CURVE SMOOTH",
"-70 356 OFFCURVE",
"-25 298 OFFCURVE",
"56 298 CURVE SMOOTH",
"355 298 LINE",
"355 363 LINE",
"131 363 LINE"
);
},
{
closed = 1;
nodes = (
"-6 435 OFFCURVE",
"10 445 OFFCURVE",
"23 445 CURVE SMOOTH",
"63 445 OFFCURVE",
"81 402 OFFCURVE",
"81 363 CURVE",
"56 363 LINE SMOOTH",
"16 363 OFFCURVE",
"-6 385 OFFCURVE",
"-6 411 CURVE SMOOTH"
);
}
);
width = 533;
},
{
associatedMasterId = UUID0;
components = (
{
name = L;
}
);
guideLines = (
{
position = "{309, 298}";
}
);
layerId = "000D76A0-CA62-484D-84F6-78C3F472F8AB";
name = "May 27 20, 14:33";
paths = (
{
closed = 1;
nodes = (
"309 298 LINE",
"309 363 LINE",
"58 363 LINE SMOOTH",
"21 363 OFFCURVE",
"2 377 OFFCURVE",
"2 397 CURVE SMOOTH",
"2 415 OFFCURVE",
"13 427 OFFCURVE",
"34 427 CURVE SMOOTH",
"64 427 OFFCURVE",
"81 402 OFFCURVE",
"81 367 CURVE",
"131 352 LINE",
"131 416 OFFCURVE",
"92 477 OFFCURVE",
"22 477 CURVE SMOOTH",
"-28 477 OFFCURVE",
"-62 440 OFFCURVE",
"-62 391 CURVE SMOOTH",
"-62 338 OFFCURVE",
"-22 298 OFFCURVE",
"69 298 CURVE SMOOTH"
);
}
);
width = 533;
}
);
leftKerningGroup = l;
rightKerningGroup = l;
unicode = A7AD;
},
{
glyphname = Ldoublebar;
lastChange = "2020-06-08 16:23:53 +0000";
layers = (
{
components = (
{
name = L;
}
);
layerId = UUID0;
paths = (
{
closed = 1;
nodes = (
"7 466 LINE",
"7 401 LINE",
"356 401 LINE",
"356 466 LINE"
);
},
{
closed = 1;
nodes = (
"7 319 LINE",
"7 254 LINE",
"356 254 LINE",
"356 319 LINE"
);
}
);
width = 533;
}
);
leftKerningGroup = I;
rightKerningGroup = L;
unicode = 2C60;
},
{
glyphname = Lmiddletilde;
lastChange = "2020-06-08 16:23:53 +0000";
layers = (
{
anchors = (
{
name = top;
position = "{128.178, 368.023}";
}
);
components = (
{
name = L;
}
);
hints = (
{
place = "{-53, 361.203}";
type = Stem;
},
{
horizontal = 1;
place = "{328.787, 68.086}";
type = Stem;
},
{
horizontal = 1;
place = "{282.627, 66.932}";
type = Stem;
}
);
layerId = UUID0;
paths = (
{
closed = 1;
nodes = (
"271 273 OFFCURVE",
"301 326 OFFCURVE",
"309 379 CURVE",
"271 379 LINE",
"267 361 OFFCURVE",
"249 336 OFFCURVE",
"216 336 CURVE SMOOTH",
"157 336 OFFCURVE",
"125 380 OFFCURVE",
"42 380 CURVE SMOOTH",
"-32 380 OFFCURVE",
"-62 326 OFFCURVE",
"-70 274 CURVE",
"-33 274 LINE",
"-26 291 OFFCURVE",
"-12 317 OFFCURVE",
"23 317 CURVE SMOOTH",
"83 317 OFFCURVE",
"114 273 OFFCURVE",
"198 273 CURVE SMOOTH"
);
}
);
width = 533;
}
);
leftKerningGroup = I;
rightKerningGroup = L;
unicode = 2C62;
},
{
glyphname = Lslash;
lastChange = "2020-06-01 08:04:28 +0000";
layers = (
{
components = (
{
name = L;
}
);
layerId = UUID0;
paths = (
{
closed = 1;
nodes = (
"7 328 LINE",
"7 255 LINE",
"341 429 LINE",
"341 502 LINE"
);
}
);
width = 533;
}
);
leftKerningGroup = I;
rightKerningGroup = L;
unicode = 0141;
},
